<?xml version="1.0" standalone="no"?><!-- Generator: Adobe Fireworks CS6, Export SVG Extension by Aaron Beall (http://fireworks.abeall.com) . Version: 0.6.1  --><!DOCTYPE svg PUBLIC "-//W3C//DTD SVG 1.1//EN" "http://www.w3.org/Graphics/SVG/1.1/DTD/svg11.dtd"><svg id="Untitled-Page%201" viewBox="0 0 200 12" style="background-color:#ffffff00" version="1.1"	xmlns="http://www.w3.org/2000/svg" xmlns:xlink="http://www.w3.org/1999/xlink" xml:space="preserve"	x="0px" y="0px" width="200px" height="12px">	<g>		<path d="M 62.501 11.4656 C 61.9912 11.7234 60.8662 11.9995 59.4434 11.9995 C 55.6846 11.9995 53.3994 9.6726 53.3994 6.1377 C 53.3994 2.3108 56.105 0 59.7246 0 C 61.1484 0 62.166 0.2942 62.6055 0.5168 L 62.1318 2.2075 C 61.5693 1.9653 60.7969 1.7595 59.8135 1.7595 C 57.4063 1.7595 55.666 3.241 55.666 6.0347 C 55.666 8.5859 57.1934 10.2234 59.7954 10.2234 C 60.6738 10.2234 61.5869 10.0518 62.1489 9.793 L 62.501 11.4656 L 62.501 11.4656 Z" fill="#0072ba"/>		<path d="M 65.5576 6.0522 C 65.5576 8.4141 66.769 10.3103 68.8428 10.3103 C 70.9326 10.3103 72.1104 8.396 72.1104 5.9658 C 72.1104 3.7769 71.0039 1.6902 68.8428 1.6902 C 66.7002 1.6902 65.5576 3.6548 65.5576 6.0522 L 65.5576 6.0522 ZM 74.3936 5.8794 C 74.3936 9.7766 71.9873 11.9995 68.7188 11.9995 C 65.3809 11.9995 63.2725 9.4993 63.2725 6.0862 C 63.2725 2.5176 65.5576 0 68.895 0 C 72.3574 0 74.3936 2.5701 74.3936 5.8794 L 74.3936 5.8794 Z" fill="#0072ba"/>		<path d="M 87.252 7.0691 C 87.1816 5.5681 87.0938 3.7588 87.1113 2.1726 L 87.0586 2.1726 C 86.6719 3.6035 86.1807 5.1726 85.6528 6.6375 L 83.9316 11.6724 L 82.2627 11.6724 L 80.6816 6.7065 C 80.2251 5.2246 79.8027 3.6389 79.4873 2.1726 L 79.4517 2.1726 C 79.3984 3.7073 79.3281 5.5527 79.2402 7.1379 L 78.9775 11.8098 L 76.9565 11.8098 L 77.748 0.1907 L 80.5938 0.1907 L 82.1401 4.8621 C 82.5605 6.2246 82.9307 7.6035 83.2285 8.8965 L 83.2813 8.8965 C 83.5967 7.6379 84.002 6.207 84.459 4.8455 L 86.0918 0.1907 L 88.9038 0.1907 L 89.5889 11.8098 L 87.4814 11.8098 L 87.252 7.0691 L 87.252 7.0691 Z" fill="#0072ba"/>		<path d="M 101.7808 7.0691 C 101.7109 5.5681 101.6226 3.7588 101.6406 2.1726 L 101.5869 2.1726 C 101.2012 3.6035 100.71 5.1726 100.1812 6.6375 L 98.46 11.6724 L 96.791 11.6724 L 95.209 6.7065 C 94.7524 5.2246 94.332 3.6389 94.0146 2.1726 L 93.9805 2.1726 C 93.9268 3.7073 93.8564 5.5527 93.7695 7.1379 L 93.5059 11.8098 L 91.4854 11.8098 L 92.2754 0.1907 L 95.1221 0.1907 L 96.668 4.8621 C 97.0894 6.2246 97.458 7.6035 97.7578 8.8965 L 97.8105 8.8965 C 98.126 7.6379 98.5298 6.207 98.9873 4.8455 L 100.6211 0.1907 L 103.4316 0.1907 L 104.1182 11.8098 L 102.0093 11.8098 L 101.7808 7.0691 L 101.7808 7.0691 Z" fill="#0072ba"/>		<path d="M 107.4551 0.1902 L 107.4551 6.9656 C 107.4551 9.2417 108.4219 10.293 109.8799 10.293 C 111.4434 10.293 112.375 9.2417 112.375 6.9656 L 112.375 0.1902 L 114.5356 0.1902 L 114.5356 6.8274 C 114.5356 10.4138 112.6553 11.9995 109.8096 11.9995 C 107.0693 11.9995 105.2949 10.4998 105.2949 6.8442 L 105.2949 0.1902 L 107.4551 0.1902 L 107.4551 0.1902 Z" fill="#0072ba"/>		<path d="M 118.0122 11.8098 L 118.0122 0.1907 L 120.4717 0.1907 L 123.5293 5.1721 C 124.3203 6.4658 125.0039 7.8108 125.5488 9.0688 L 125.5845 9.0688 C 125.4434 7.5176 125.3921 6.0173 125.3921 4.2417 L 125.3921 0.1907 L 127.3945 0.1907 L 127.3945 11.8098 L 125.1626 11.8098 L 122.0713 6.6899 C 121.3154 5.4314 120.5249 4.0005 119.9448 2.6899 L 119.8926 2.7075 C 119.9795 4.2073 119.9976 5.741 119.9976 7.6548 L 119.9976 11.8098 L 118.0122 11.8098 L 118.0122 11.8098 Z" fill="#0072ba"/>		<path d="M 131.0479 11.8093 L 128.8867 11.8093 L 128.8867 0.1902 L 131.0479 0.1902 L 131.0479 11.8093 L 131.0479 11.8093 Z" fill="#0072ba"/>		<path d="M 143.0117 11.4656 C 142.502 11.7234 141.376 11.9995 139.9536 11.9995 C 136.1953 11.9995 133.9111 9.6726 133.9111 6.1377 C 133.9111 2.3108 136.6162 0 140.2363 0 C 141.6582 0 142.6777 0.2942 143.1162 0.5168 L 142.6416 2.2075 C 142.0781 1.9653 141.3066 1.7595 140.3232 1.7595 C 137.916 1.7595 136.1758 3.241 136.1758 6.0347 C 136.1758 8.5859 137.7051 10.2234 140.3066 10.2234 C 141.1831 10.2234 142.0986 10.0518 142.6597 9.793 L 143.0117 11.4656 L 143.0117 11.4656 Z" fill="#0072ba"/>		<path d="M 150.7402 6.9143 L 149.8096 4.0515 C 149.5801 3.3447 149.3867 2.5522 149.2124 1.8804 L 149.1763 1.8804 C 149 2.5522 148.8271 3.3613 148.6138 4.0515 L 147.7012 6.9143 L 150.7402 6.9143 L 150.7402 6.9143 ZM 147.3506 8.5173 L 146.3311 11.8103 L 144.0996 11.8103 L 147.8945 0.1897 L 150.6528 0.1897 L 154.501 11.8103 L 152.1826 11.8103 L 151.1099 8.5173 L 147.3506 8.5173 L 147.3506 8.5173 Z" fill="#0072ba"/>		<path d="M 155.9946 1.9658 L 152.6191 1.9658 L 152.6191 0.1907 L 161.5645 0.1907 L 161.5645 1.9658 L 158.1558 1.9658 L 158.1558 11.8098 L 155.9946 11.8098 L 155.9946 1.9658 L 155.9946 1.9658 Z" fill="#0072ba"/>		<path d="M 166.1113 11.8093 L 163.9521 11.8093 L 163.9521 0.1902 L 166.1113 0.1902 L 166.1113 11.8093 L 166.1113 11.8093 Z" fill="#0072ba"/>		<path d="M 169.2568 6.0522 C 169.2568 8.4141 170.4688 10.3103 172.542 10.3103 C 174.6328 10.3103 175.8105 8.396 175.8105 5.9658 C 175.8105 3.7769 174.7041 1.6902 172.542 1.6902 C 170.3989 1.6902 169.2568 3.6548 169.2568 6.0522 L 169.2568 6.0522 ZM 178.0938 5.8794 C 178.0938 9.7766 175.687 11.9995 172.4199 11.9995 C 169.0801 11.9995 166.9736 9.4993 166.9736 6.0862 C 166.9736 2.5176 169.2568 0 172.5957 0 C 176.0566 0 178.0938 2.5701 178.0938 5.8794 L 178.0938 5.8794 Z" fill="#0072ba"/>		<path d="M 180.9551 11.8098 L 180.9551 0.1907 L 183.415 0.1907 L 186.4727 5.1721 C 187.2627 6.4658 187.9473 7.8108 188.4922 9.0688 L 188.5278 9.0688 C 188.3877 7.5176 188.335 6.0173 188.335 4.2417 L 188.335 0.1907 L 190.3379 0.1907 L 190.3379 11.8098 L 188.1055 11.8098 L 185.0146 6.6899 C 184.2598 5.4314 183.4668 4.0005 182.8877 2.6899 L 182.834 2.7075 C 182.9229 4.2073 182.9424 5.741 182.9424 7.6548 L 182.9424 11.8098 L 180.9551 11.8098 L 180.9551 11.8098 Z" fill="#0072ba"/>		<path d="M 192.7769 9.4993 C 193.4795 9.8975 194.5352 10.2405 195.6416 10.2405 C 197.0303 10.2405 197.8047 9.6033 197.8047 8.6548 C 197.8047 7.7756 197.2051 7.2583 195.6943 6.7234 C 193.7432 6.0352 192.4971 5.0173 192.4971 3.3447 C 192.4971 1.4495 194.1133 0.0005 196.6787 0.0005 C 197.9609 0.0005 198.9092 0.2756 199.5234 0.5859 L 198.998 2.293 C 198.5771 2.0696 197.75 1.7419 196.6436 1.7419 C 195.2734 1.7419 194.6758 2.4663 194.6758 3.1384 C 194.6758 4.0349 195.3613 4.449 196.9424 5.0522 C 198.998 5.8105 200 6.8274 200 8.5005 C 200 10.3613 198.5571 12 195.502 12 C 194.2539 12 192.9546 11.6384 192.3032 11.2583 L 192.7769 9.4993 L 192.7769 9.4993 Z" fill="#0072ba"/>		<path d="M 3.3799 11.7612 L 3.3799 3.5334 L 0 3.5334 L 0 0.1123 L 11.4971 0.1123 L 11.4971 3.5334 L 8.2188 3.5334 L 8.2188 11.7612 L 3.3799 11.7612 L 3.3799 11.7612 Z" fill="#0072ba"/>		<path d="M 26.3198 11.7612 L 26.3198 3.5334 L 22.9414 3.5334 L 22.9414 0.1123 L 34.4385 0.1123 L 34.4385 3.5334 L 31.1587 3.5334 L 31.1587 11.7612 L 26.3198 11.7612 L 26.3198 11.7612 Z" fill="#0072ba"/>		<path d="M 10.3994 11.7756 L 14.748 0.1274 L 19.6973 0.1252 L 24.3135 11.7756 L 19.6514 11.7756 L 17.249 4.7327 L 14.8555 11.7756 L 10.3994 11.7756 L 10.3994 11.7756 Z" fill="#0072ba"/>		<path d="M 33.3301 11.7732 L 37.6753 0.1248 L 42.5723 0.1248 L 47.2432 11.7732 L 42.5801 11.7732 L 40.2324 4.7327 L 37.7837 11.7732 L 33.3301 11.7732 L 33.3301 11.7732 Z" fill="#0072ba"/>	</g></svg>