<?xml version="1.0" encoding="utf-8"?>
<!-- Generator: Adobe Illustrator 18.1.1, SVG Export Plug-In . SVG Version: 6.00 Build 0)  -->
<svg version="1.1" id="Layer_1" xmlns="http://www.w3.org/2000/svg" xmlns:xlink="http://www.w3.org/1999/xlink" x="0px" y="0px"
	 viewBox="0 0 578 249" enable-background="new 0 0 578 249" xml:space="preserve">
<g>
	<path fill="#1D1160" d="M107.8,164.8c-1,0-2,0-3,0H47.6l-5.3,17.7L533,167.8v-3H107.8z"/>
	<g>
		<polygon fill="#1D1160" points="132.3,70.3 58.6,70.3 54.6,87.9 81.9,87.9 74.4,121.8 66.4,157.8 85.5,157.8 101,87.9 128.3,87.9 
					"/>
		<path fill="#1D1160" d="M209.4,87.8c6.5,0,11.5-2.1,12.9-8.6c1.2-5.8-4-8.7-8.9-8.7c-5.9,0-11.9,2.5-13.2,8.7
			C198.6,86.5,203.5,87.8,209.4,87.8z"/>
		<polygon fill="#1D1160" points="351.4,91.7 330.6,91.7 311.2,107.8 305.3,112.7 306.4,107.7 315.4,67.5 297.5,67.5 288.6,107.6 
			277.4,157.8 295.2,157.8 299.9,136.4 305.9,131.1 319.8,157.8 341.3,157.8 320.4,118.2 		"/>
		<path fill="#1D1160" d="M444.2,89.4c-14.8,0-27.6,8.3-32.2,20.3l-0.6,2.5l0,0l-5.4,24.4c-3,14.6,8.4,23.2,22,23.2
			c12.7,0,20.1-2.7,32.9-13.1l-10-11.9c-5.7,5.9-12.7,9.4-17.7,9.4c-5.5,0-10.1-3.1-8.4-10.5l0.5-2.6h36.2l3-13.5h0l0.2-1.1
			C469.2,96.6,460.8,89.4,444.2,89.4z M447.5,114.8l-18.6,0l0.2-1.1l0.6-2.8c0.6-3.3,6.2-5.9,11-6.1
			C446.3,105.2,448.7,107.2,447.5,114.8z"/>
		<path fill="#1D1160" d="M185.3,110.4l0-0.3c3.4-21.7-17.1-20.9-20.8-20.9c-2.4,0.1-7.2,0.6-11.7,2.3l5.4-24h-18.2l-20.1,90.3h18.2
			l8.9-39.8c0.4-1.7,1.1-3.5,2-5.2c0,0,0,0,0,0c2.3-3.9,6-7,11.2-7c4.2,0,6.5,2,6.7,5.7c0,0,0,0,0,0c0.1,1.1-0.1,2.4-0.4,3.8
			l-9.5,42.5h18l9.9-44.7C185,112.1,185.1,111.4,185.3,110.4z"/>
		<polygon fill="#1D1160" points="217.4,91.7 199.2,91.7 195.2,109.7 184.5,157.8 202.7,157.8 213.6,108.9 		"/>
		<path fill="#1D1160" d="M279.1,107.6c1.6-16.3-14.5-18.2-21.6-18.2c-0.2,0-0.4,0-0.7,0c-4.1,0-8.4,0.8-12.1,2.6l0.1-0.2h-17.6
			l-3.7,16.7l0,0l-11,49.4h17.6l8.4-37.6c0.8-3.8,3.6-9.2,7.7-12.4c2-1.6,4.4-2.6,7.1-2.6c3.1,0,5.3,0.9,6.6,2.4h0
			c1,1.3,1.4,3,0.9,4.9l-10,45.2h17.5l10.4-46.8C278.8,109.8,279,108.7,279.1,107.6z"/>
		<polygon fill="#1D1160" points="429.6,70.3 355.8,70.3 351.8,87.9 379.1,87.9 374.3,109.8 374.3,109.8 363.7,157.8 382.8,157.8 
			398.2,87.9 425.6,87.9 		"/>
		<polygon fill="#1D1160" points="504.3,67.5 486.6,67.5 466.5,157.8 484.2,157.8 		"/>
	</g>
	<g>
		<path fill="#1D1160" d="M226.8,202.1l-3.6,7.2h-3l11.9-22.9h3.3l3.2,22.9h-2.9l-0.9-7.2H226.8z M234.5,199.8l-0.9-6.6
			c-0.1-1.2-0.3-2.9-0.4-4.2h-0.1c-0.6,1.4-1.2,2.8-1.9,4.2l-3.4,6.7H234.5z"/>
		<path fill="#1D1160" d="M265.1,185.2l-3.6,18.9c-0.3,1.7-0.6,3.6-0.7,5.2h-2.6l0.4-3.3h-0.1c-1.5,2.3-3.6,3.6-5.9,3.6
			c-3.2,0-4.9-2.6-4.9-6c0-5.8,4.4-11.2,10.2-11.2c1.1,0,2.2,0.2,2.9,0.6l1.5-7.9H265.1z M260.4,195.4c-0.6-0.4-1.5-0.7-2.7-0.7
			c-3.9,0-7,4.2-7,8.6c0,2,0.7,4,3.1,4c2.2,0,4.8-2.5,5.5-6.2L260.4,195.4z"/>
		<path fill="#1D1160" d="M265.4,209.3l3.2-16.5h2.8l-3.2,16.5H265.4z M270.7,190c-1,0-1.6-0.7-1.6-1.8c0-1.1,0.9-1.9,1.9-1.9
			c1,0,1.7,0.7,1.7,1.8C272.6,189.3,271.8,190,270.7,190L270.7,190z"/>
		<path fill="#1D1160" d="M276.9,192.9l1.4,9.4c0.2,1.9,0.4,3.1,0.5,4h0.1c0.3-0.9,0.8-2,1.7-3.8l5-9.6h3.1l-9.1,16.5h-2.8
			l-2.9-16.5H276.9z"/>
		<path fill="#1D1160" d="M288.7,209.3l3.2-16.5h2.8l-3.2,16.5H288.7z M294,190c-1,0-1.6-0.7-1.6-1.8c0-1.1,0.9-1.9,1.9-1.9
			c1,0,1.7,0.7,1.7,1.8C295.9,189.3,295.1,190,294,190L294,190z"/>
		<path fill="#1D1160" d="M296.6,206.5c0.8,0.5,2.2,1,3.5,1c1.9,0,3.1-1.2,3.1-2.7c0-1.3-0.6-2.1-2.3-3c-1.9-1.1-3-2.5-3-4.2
			c0-2.9,2.5-5.1,6-5.1c1.5,0,2.8,0.4,3.4,0.8l-0.8,2.1c-0.6-0.3-1.6-0.7-2.9-0.7c-1.7,0-2.9,1.1-2.9,2.5c0,1.2,0.8,1.9,2.2,2.8
			c1.8,1.1,3.1,2.5,3.1,4.3c0,3.5-2.8,5.4-6.3,5.4c-1.8,0-3.3-0.6-4.1-1.2L296.6,206.5z"/>
		<path fill="#1D1160" d="M309.2,209.3l3.2-16.5h2.8l-3.2,16.5H309.2z M314.4,190c-1,0-1.6-0.7-1.6-1.8c0-1.1,0.8-1.9,1.9-1.9
			s1.7,0.7,1.7,1.8C316.3,189.3,315.5,190,314.4,190L314.4,190z"/>
		<path fill="#1D1160" d="M332.7,199.4c0,5.1-3.6,10.3-9.1,10.3c-4.1,0-6.4-3.1-6.4-6.8c0-5.4,3.8-10.4,9.1-10.4
			C330.7,192.5,332.7,195.9,332.7,199.4z M320.1,202.8c0,2.7,1.5,4.6,3.9,4.6c3.3,0,5.8-4.3,5.8-8.1c0-1.9-0.9-4.6-3.8-4.6
			C322.4,194.7,320.1,199,320.1,202.8z"/>
		<path fill="#1D1160" d="M334.7,209.3l2.2-11.7c0.4-1.8,0.6-3.4,0.8-4.8h2.5l-0.4,3.2h0.1c1.5-2.3,3.7-3.6,6.1-3.6
			c2,0,4.2,1.1,4.2,4.6c0,0.7-0.1,1.8-0.3,2.7l-1.8,9.6h-2.8l1.8-9.5c0.1-0.6,0.2-1.4,0.2-2.1c0-1.7-0.6-2.9-2.6-2.9
			c-2,0-4.9,2.4-5.6,6.5l-1.5,8H334.7z"/>
		<path fill="#1D1160" d="M374.8,199.4c0,5.1-3.6,10.3-9.1,10.3c-4.1,0-6.4-3.1-6.4-6.8c0-5.4,3.8-10.4,9.1-10.4
			C372.8,192.5,374.8,195.9,374.8,199.4z M362.2,202.8c0,2.7,1.5,4.6,3.9,4.6c3.3,0,5.8-4.3,5.8-8.1c0-1.9-0.9-4.6-3.8-4.6
			C364.5,194.7,362.2,199,362.2,202.8z"/>
		<path fill="#1D1160" d="M377.2,209.3l2.7-14.2h-2.2l0.4-2.2h2.2l0.2-0.8c0.4-2.3,1.2-4.4,2.7-5.7c1-1,2.5-1.5,3.9-1.5
			c1.1,0,1.9,0.2,2.2,0.4l-0.6,2.2c-0.4-0.2-1-0.3-1.7-0.3c-2.2,0-3.3,2.2-3.8,4.9l-0.1,0.8h3.7l-0.4,2.2h-3.6l-2.7,14.2H377.2z"/>
		<path fill="#1D1160" d="M397,186.7c1.7-0.3,3.7-0.5,5.7-0.5c3.8,0,6.7,1.1,8.4,3.1c1.2,1.3,2.1,3.3,2.2,6.2
			c0,4.1-1.7,8.3-4.6,10.8c-2.7,2.2-6,3.2-10.4,3.2c-2,0-4.1-0.1-5.6-0.3L397,186.7z M396,207c1,0.1,2.1,0.2,3,0.2
			c3.6,0,6.3-1.1,8.2-3.1c2-2.1,3.1-5.2,3.1-8.4c0-4.1-2-7.1-7.7-7.1c-1,0-2.3,0.1-3.1,0.2L396,207z"/>
		<path fill="#1D1160" d="M414.8,209.3l3.2-16.5h2.8l-3.2,16.5H414.8z M420.1,190c-1,0-1.6-0.7-1.6-1.8c0-1.1,0.8-1.9,1.9-1.9
			c1,0,1.7,0.7,1.7,1.8C422,189.3,421.2,190,420.1,190L420.1,190z"/>
		<path fill="#1D1160" d="M422.7,206.5c0.8,0.5,2.2,1,3.5,1c1.9,0,3.1-1.2,3.1-2.7c0-1.3-0.6-2.1-2.3-3c-1.9-1.1-3-2.5-3-4.2
			c0-2.9,2.5-5.1,5.9-5.1c1.5,0,2.8,0.4,3.4,0.8l-0.8,2.1c-0.6-0.3-1.6-0.7-2.9-0.7c-1.7,0-2.9,1.1-2.9,2.5c0,1.2,0.8,1.9,2.2,2.8
			c1.8,1.1,3.1,2.5,3.1,4.3c0,3.5-2.8,5.4-6.3,5.4c-1.8,0-3.3-0.6-4.1-1.2L422.7,206.5z"/>
		<path fill="#1D1160" d="M442.5,188.9l-0.7,3.9h3.9l-0.4,2.2h-3.9l-1.5,8c-0.2,0.9-0.3,1.8-0.3,2.6c0,1,0.5,1.6,1.6,1.6
			c0.5,0,1,0,1.3-0.1l-0.1,2.2c-0.5,0.2-1.4,0.3-2.2,0.3c-2.5,0-3.5-1.5-3.5-3.2c0-1,0.1-1.9,0.3-3.1l1.6-8.3h-2.4l0.4-2.2h2.3
			l0.6-3L442.5,188.9z"/>
		<path fill="#1D1160" d="M445.9,209.3l2-10.6c0.4-2.1,0.7-4.3,0.9-5.8h2.5c-0.1,1.2-0.3,2.3-0.4,3.6h0.1c1.1-2.2,2.8-3.9,5-3.9
			c0.2,0,0.6,0,0.8,0.1l-0.5,2.8c-0.2,0-0.4-0.1-0.7-0.1c-2.4,0-4.6,3-5.3,6.8l-1.4,7.2H445.9z"/>
		<path fill="#1D1160" d="M456.7,209.3l3.2-16.5h2.8l-3.2,16.5H456.7z M462,190c-1,0-1.6-0.7-1.6-1.8c0-1.1,0.9-1.9,1.9-1.9
			c1,0,1.7,0.7,1.7,1.8C463.9,189.3,463.1,190,462,190L462,190z"/>
		<path fill="#1D1160" d="M471.8,185.2l-2.2,10.7h0.1c1.5-2.2,3.6-3.4,5.8-3.4c3.6,0,5,3,5,5.9c0,5-3.6,11.3-10.2,11.3
			c-2.9,0-5.1-1.2-5.1-4.2c0-0.8,0.1-1.8,0.3-2.5l3.6-17.7H471.8z M468.2,203c-0.1,0.5-0.2,1.2-0.2,2.1c0,1.6,0.9,2.4,2.7,2.4
			c4.2,0,6.8-5.1,6.8-8.7c0-2-0.9-3.9-3.1-3.9c-2.4,0-5,2.5-5.8,6.4L468.2,203z"/>
		<path fill="#1D1160" d="M498.4,192.9l-2.2,11.7c-0.3,1.8-0.6,3.4-0.7,4.8h-2.5l0.4-3.1h-0.1c-1.5,2.1-3.6,3.5-5.8,3.5
			c-2.1,0-4.3-1-4.3-4.8c0-0.8,0.1-1.7,0.3-2.8l1.8-9.3h2.8l-1.7,9.2c-0.2,0.9-0.3,1.7-0.3,2.4c0,1.7,0.7,2.9,2.7,2.9
			c2,0,4.7-2.4,5.3-6l1.6-8.4H498.4z"/>
		<path fill="#1D1160" d="M507.5,188.9l-0.7,3.9h3.9l-0.4,2.2h-3.9l-1.5,8c-0.2,0.9-0.3,1.8-0.3,2.6c0,1,0.5,1.6,1.6,1.6
			c0.5,0,1,0,1.3-0.1l-0.1,2.2c-0.5,0.2-1.4,0.3-2.2,0.3c-2.5,0-3.5-1.5-3.5-3.2c0-1,0.1-1.9,0.3-3.1l1.6-8.3h-2.4l0.4-2.2h2.3
			l0.6-3L507.5,188.9z"/>
		<path fill="#1D1160" d="M522.6,208.4c-1.2,0.7-3.2,1.3-5.4,1.3c-4.4,0-6.3-3-6.3-6.6c0-5,3.7-10.6,9-10.6c3.1,0,4.8,1.9,4.8,4.2
			c0,4.3-4.9,5.5-10.9,5.4c-0.1,0.7,0,2.2,0.3,3.1c0.6,1.5,2,2.2,3.7,2.2c1.9,0,3.4-0.6,4.4-1.2L522.6,208.4z M522,196.8
			c0-1.3-1-2.1-2.5-2.1c-2.7,0-4.7,2.6-5.4,5.2C518.5,199.9,522,199.4,522,196.8L522,196.8z"/>
		<path fill="#1D1160" d="M526.2,209.3l4.6-24.1h2.8l-4.6,24.1H526.2z"/>
	</g>
</g>
<g>
	<path d="M519.1,67.5c4.2,0,7.7,3.3,7.7,7.7c0,4.4-3.5,7.8-7.7,7.8c-4.2,0-7.8-3.3-7.8-7.8C511.3,70.8,514.9,67.5,519.1,67.5z
		 M519.1,81.8c3.6,0,6.3-2.8,6.3-6.6c0-3.7-2.8-6.5-6.3-6.5c-3.6,0-6.4,2.8-6.4,6.5C512.7,78.9,515.5,81.8,519.1,81.8z M516.1,70.7
		h3.5c2.1,0,3.2,0.8,3.2,2.6c0,1.6-1,2.3-2.4,2.5l2.6,4h-1.5l-2.5-3.9h-1.5v3.9h-1.4V70.7z M517.5,74.7h1.5c1.2,0,2.4-0.1,2.4-1.5
		c0-1.2-1-1.4-2-1.4h-1.9V74.7z"/>
</g>
</svg>
