<?xml version="1.0" standalone="no"?><!-- Generator: Adobe Fireworks CS6, Export SVG Extension by Aaron Beall (http://fireworks.abeall.com) . Version: 0.6.1  --><!DOCTYPE svg PUBLIC "-//W3C//DTD SVG 1.1//EN" "http://www.w3.org/Graphics/SVG/1.1/DTD/svg11.dtd"><svg id="Untitled-Page%201" viewBox="0 0 140 37" style="background-color:#ffffff00" version="1.1"	xmlns="http://www.w3.org/2000/svg" xmlns:xlink="http://www.w3.org/1999/xlink" xml:space="preserve"	x="0px" y="0px" width="140px" height="37px">	<g>		<g>			<path d="M 21.7189 30.6599 L 24.9379 30.6599 L 24.8593 31.061 L 23.4753 31.061 L 22.6005 35.3267 L 22.1301 35.3267 L 23.0186 31.061 L 21.6339 31.061 L 21.7189 30.6599 Z" fill="#223975"/>			<path d="M 25.7225 29.5166 L 26.2219 29.5166 L 25.647 32.0184 L 25.6621 32.0184 C 25.9342 31.5537 26.2823 31.3214 26.8951 31.2827 C 27.5914 31.2827 28.1057 31.6858 28.1057 32.4292 C 28.1057 32.7002 28.053 32.9789 27.9924 33.2424 L 27.561 35.3267 L 27.0618 35.3267 L 27.5004 33.1497 C 27.5533 32.8938 27.5837 32.7236 27.5837 32.4602 C 27.5837 31.9956 27.3265 31.7009 26.8422 31.7009 C 26.01 31.7009 25.5938 32.553 25.4199 33.3896 L 25.0037 35.3267 L 24.5044 35.3267 L 25.7225 29.5166 Z" fill="#223975"/>			<path d="M 29.1428 33.4906 C 29.1274 33.5916 29.1198 33.6995 29.1198 33.808 C 29.1198 34.5674 29.6118 35.001 30.2927 35.001 C 30.7694 35.001 31.1176 34.8695 31.4199 34.738 L 31.3824 35.2104 C 31.1554 35.2954 30.8604 35.4192 30.2321 35.4192 C 29.332 35.4192 28.6433 34.8695 28.6433 33.808 C 28.6433 32.4832 29.3998 31.2827 30.6409 31.2827 C 31.5487 31.2827 32.0026 31.856 32.0026 32.7549 C 32.0026 32.9949 31.9723 33.2424 31.9496 33.4906 L 29.1428 33.4906 ZM 31.5033 33.0723 C 31.511 32.9637 31.5261 32.8628 31.5261 32.77 C 31.5261 32.127 31.2611 31.7009 30.6409 31.7009 C 29.8993 31.7009 29.3547 32.3518 29.2257 33.0723 L 31.5033 33.0723 Z" fill="#223975"/>			<path d="M 39.0364 30.5544 C 38.6509 30.345 38.2192 30.291 37.7656 30.291 C 36.2297 30.291 35.1779 31.4916 35.1779 33.0564 C 35.1779 34.1104 35.9875 34.9546 37.0997 34.9546 C 37.7582 34.9546 37.9247 34.8618 38.2272 34.7769 L 38.1667 35.2491 C 37.9546 35.3113 37.6973 35.4192 37.1375 35.4192 C 35.7832 35.4192 34.6559 34.5134 34.6559 33.0488 C 34.6559 31.1589 35.9724 29.8263 37.7959 29.8263 C 38.3632 29.8263 38.7792 29.8962 39.2181 30.105 L 39.0364 30.5544 Z" fill="#223975"/>			<path d="M 39.9916 29.5166 L 40.491 29.5166 L 39.2806 35.3267 L 38.781 35.3267 L 39.9916 29.5166 Z" fill="#223975"/>			<path d="M 42.5535 31.2827 C 43.537 31.2827 44.0894 31.9568 44.0894 32.9789 C 44.0894 34.2963 43.2797 35.4192 41.9482 35.4192 C 40.9948 35.4192 40.4047 34.6833 40.4047 33.6995 C 40.4047 32.3752 41.2445 31.2827 42.5535 31.2827 ZM 42.0087 35.001 C 43.0076 35.001 43.5671 33.9166 43.5671 32.9873 C 43.5671 32.2432 43.2416 31.7009 42.4928 31.7009 C 41.4263 31.7009 40.9269 32.77 40.9269 33.777 C 40.9269 34.4587 41.3352 35.001 42.0087 35.001 Z" fill="#223975"/>			<path d="M 47.5474 34.6993 C 47.5018 34.9622 47.4717 35.1329 47.4565 35.3267 L 46.9796 35.3267 C 47.0027 35.0784 47.0254 34.8695 47.0634 34.7299 L 47.048 34.7299 C 46.7834 35.1482 46.2992 35.4192 45.822 35.4192 C 45.1262 35.4192 44.6117 35.0168 44.6117 34.2727 C 44.6117 34.0017 44.6721 33.7078 44.7251 33.4595 L 45.1566 31.3754 L 45.6559 31.3754 L 45.2173 33.5522 C 45.1638 33.808 45.1337 33.9788 45.1337 34.2422 C 45.1337 34.7069 45.3911 35.001 45.8752 35.001 C 46.7075 35.001 47.1539 34.1565 47.3352 33.2507 L 47.7137 31.3754 L 48.2133 31.3754 L 47.5474 34.6993 Z" fill="#223975"/>			<path d="M 51.6804 34.552 C 51.6124 34.8695 51.567 35.1405 51.552 35.3267 L 51.0602 35.3267 C 51.0825 35.1094 51.1283 34.8542 51.1813 34.6993 L 51.1661 34.6993 C 50.8861 35.1254 50.5001 35.4192 49.8494 35.4192 C 48.9188 35.4192 48.5406 34.6218 48.5406 33.7305 C 48.5406 32.6304 49.2444 31.2827 50.4696 31.2827 C 51.0295 31.2827 51.5063 31.5613 51.6503 32.1035 L 51.6654 32.1035 L 52.1948 29.5166 L 52.6942 29.5166 L 51.6804 34.552 ZM 50.0085 35.001 C 50.871 35.001 51.4911 33.8315 51.4911 32.9561 C 51.4911 32.2507 51.1736 31.7009 50.5076 31.7009 C 49.5166 31.7009 49.0626 32.9098 49.0626 33.824 C 49.0626 34.4822 49.3425 35.001 50.0085 35.001 Z" fill="#223975"/>			<path d="M 59.3572 30.5544 C 58.9716 30.345 58.54 30.291 58.0862 30.291 C 56.5504 30.291 55.4988 31.4916 55.4988 33.0564 C 55.4988 34.1104 56.3082 34.9546 57.4205 34.9546 C 58.0787 34.9546 58.2454 34.8618 58.5477 34.7769 L 58.4873 35.2491 C 58.2753 35.3113 58.0181 35.4192 57.4581 35.4192 C 56.104 35.4192 54.9766 34.5134 54.9766 33.0488 C 54.9766 31.1589 56.2932 29.8263 58.1168 29.8263 C 58.6841 29.8263 59.1001 29.8962 59.5387 30.105 L 59.3572 30.5544 Z" fill="#223975"/>			<path d="M 61.209 31.2827 C 62.1925 31.2827 62.7449 31.9568 62.7449 32.9789 C 62.7449 34.2963 61.9354 35.4192 60.604 35.4192 C 59.6505 35.4192 59.0602 34.6833 59.0602 33.6995 C 59.0602 32.3752 59.9 31.2827 61.209 31.2827 ZM 60.6642 35.001 C 61.6628 35.001 62.2229 33.9166 62.2229 32.9873 C 62.2229 32.2432 61.8973 31.7009 61.1486 31.7009 C 60.0818 31.7009 59.5824 32.77 59.5824 33.777 C 59.5824 34.4587 59.991 35.001 60.6642 35.001 Z" fill="#223975"/>			<path d="M 63.7152 32.042 C 63.7607 31.8483 63.7983 31.5848 63.8135 31.3754 L 64.2904 31.3754 C 64.2676 31.6235 64.2374 31.8325 64.2072 31.9722 L 64.222 31.9722 C 64.5851 31.4763 64.8882 31.2827 65.4175 31.2827 C 65.9623 31.2827 66.3634 31.5925 66.386 32.1656 L 66.401 32.1656 C 66.6509 31.616 67.0972 31.2827 67.71 31.2827 C 68.3759 31.2827 68.7998 31.7245 68.7998 32.4443 C 68.7998 32.5999 68.7467 32.9016 68.6863 33.1885 L 68.2471 35.3267 L 67.7478 35.3267 L 68.1792 33.2347 C 68.2322 32.9949 68.2777 32.7625 68.2777 32.468 C 68.2777 32.0342 68.0959 31.7009 67.6344 31.7009 C 66.8475 31.7009 66.4464 32.6077 66.3027 33.3198 L 65.9016 35.3267 L 65.4022 35.3267 L 65.8337 33.2347 C 65.8867 32.9949 65.9324 32.7625 65.9324 32.468 C 65.9324 32.0342 65.7504 31.7009 65.2891 31.7009 C 64.5023 31.7009 64.101 32.6077 63.9574 33.3198 L 63.5562 35.3267 L 63.0568 35.3267 L 63.7152 32.042 Z" fill="#223975"/>			<path d="M 69.8593 32.042 C 69.9044 31.8483 69.9425 31.5848 69.9574 31.3754 L 70.4342 31.3754 C 70.4115 31.6235 70.3815 31.8325 70.3508 31.9722 L 70.3662 31.9722 C 70.7291 31.4763 71.0317 31.2827 71.5614 31.2827 C 72.1062 31.2827 72.5073 31.5925 72.53 32.1656 L 72.5452 32.1656 C 72.7946 31.616 73.241 31.2827 73.8539 31.2827 C 74.5199 31.2827 74.9438 31.7245 74.9438 32.4443 C 74.9438 32.5999 74.8906 32.9016 74.8304 33.1885 L 74.3914 35.3267 L 73.892 35.3267 L 74.323 33.2347 C 74.3761 32.9949 74.4216 32.7625 74.4216 32.468 C 74.4216 32.0342 74.2399 31.7009 73.7783 31.7009 C 72.9916 31.7009 72.5905 32.6077 72.4469 33.3198 L 72.0458 35.3267 L 71.5465 35.3267 L 71.9774 33.2347 C 72.0306 32.9949 72.0762 32.7625 72.0762 32.468 C 72.0762 32.0342 71.8947 31.7009 71.4329 31.7009 C 70.646 31.7009 70.2449 32.6077 70.1014 33.3198 L 69.7003 35.3267 L 69.2009 35.3267 L 69.8593 32.042 Z" fill="#223975"/>			<path d="M 78.4861 34.6993 C 78.4403 34.9622 78.4105 35.1329 78.3949 35.3267 L 77.9181 35.3267 C 77.941 35.0784 77.9639 34.8695 78.0017 34.7299 L 77.9863 34.7299 C 77.7214 35.1482 77.2375 35.4192 76.7612 35.4192 C 76.0649 35.4192 75.5504 35.0168 75.5504 34.2727 C 75.5504 34.0017 75.6105 33.7078 75.6638 33.4595 L 76.0948 31.3754 L 76.5946 31.3754 L 76.1555 33.5522 C 76.1025 33.808 76.0724 33.9788 76.0724 34.2422 C 76.0724 34.7069 76.3298 35.001 76.814 35.001 C 77.6459 35.001 78.0922 34.1565 78.2739 33.2507 L 78.6522 31.3754 L 79.152 31.3754 L 78.4861 34.6993 Z" fill="#223975"/>			<path d="M 80.0323 32.0032 C 80.0776 31.7397 80.1082 31.5691 80.123 31.3754 L 80.5997 31.3754 C 80.5767 31.6235 80.5543 31.8325 80.5165 31.9722 L 80.5314 31.9722 C 80.7963 31.5537 81.2804 31.2827 81.7571 31.2827 C 82.4534 31.2827 82.9681 31.6858 82.9681 32.4292 C 82.9681 32.7002 82.9072 32.9949 82.8547 33.2424 L 82.4231 35.3267 L 81.924 35.3267 L 82.3622 33.1497 C 82.4156 32.8938 82.4459 32.7236 82.4459 32.4602 C 82.4459 31.9956 82.1888 31.7009 81.7046 31.7009 C 80.8718 31.7009 80.4255 32.5453 80.2444 33.4519 L 79.8655 35.3267 L 79.3663 35.3267 L 80.0323 32.0032 Z" fill="#223975"/>			<path d="M 84.2025 31.3754 L 84.7015 31.3754 L 83.8846 35.3267 L 83.3853 35.3267 L 84.2025 31.3754 ZM 84.9514 30.322 L 84.3835 30.322 L 84.5198 29.6714 L 85.0873 29.6714 L 84.9514 30.322 Z" fill="#223975"/>			<path d="M 88.1067 31.8794 C 87.9629 31.802 87.5165 31.7009 87.2139 31.7009 C 86.1169 31.7009 85.5271 32.5217 85.5271 33.5757 C 85.5271 34.3889 86.0563 35.001 86.775 35.001 C 87.0625 35.001 87.3503 34.9006 87.5922 34.8156 L 87.5321 35.3031 C 87.3503 35.3654 87.0477 35.4192 86.6539 35.4192 C 85.5416 35.4192 85.0049 34.4664 85.0049 33.6144 C 85.0049 32.2203 85.7765 31.2827 87.2673 31.2827 C 87.5847 31.2827 88.0464 31.3601 88.2429 31.4375 L 88.1067 31.8794 Z" fill="#223975"/>			<path d="M 91.0244 34.3889 C 90.9487 34.6912 90.896 35.0554 90.8804 35.3267 L 90.4037 35.3267 C 90.4268 35.1177 90.4418 34.9158 90.4792 34.7456 L 90.4648 34.7456 C 90.139 35.2415 89.7156 35.4192 89.1483 35.4192 C 88.5508 35.4192 88.0435 34.9622 88.0435 34.3115 C 88.0435 33.1572 89.3145 32.9174 90.2606 32.9174 C 90.4572 32.9174 90.6312 32.9326 90.7826 32.9485 C 90.7976 32.8323 90.8051 32.7161 90.8051 32.553 C 90.8051 32.0107 90.5096 31.7009 89.9803 31.7009 C 89.5341 31.7009 89.0948 31.9099 88.8378 32.042 L 88.891 31.5461 C 89.1632 31.4299 89.6024 31.2827 90.056 31.2827 C 90.8881 31.2827 91.327 31.7473 91.327 32.5688 C 91.327 32.7236 91.2966 33.01 91.229 33.3198 L 91.0244 34.3889 ZM 89.3145 35.001 C 90.2074 35.001 90.6158 34.1801 90.7219 33.351 C 90.5632 33.351 90.4119 33.3357 90.2524 33.3357 C 89.6096 33.3357 88.5654 33.436 88.5654 34.3038 C 88.5654 34.7534 88.9287 35.001 89.3145 35.001 Z" fill="#223975"/>			<path d="M 92.9321 30.4922 L 93.4772 30.2986 L 93.2429 31.3754 L 94.249 31.3754 L 94.1503 31.7937 L 93.1598 31.7937 L 92.751 33.7465 C 92.6978 34.0093 92.637 34.2651 92.637 34.521 C 92.637 34.8308 92.7963 35.001 93.076 35.001 C 93.22 35.001 93.349 34.9705 93.4849 34.8931 L 93.4393 35.3113 C 93.2954 35.3806 93.1516 35.4192 92.9552 35.4192 C 92.4182 35.4192 92.115 35.1094 92.115 34.6833 C 92.115 34.3425 92.2512 33.7153 92.2892 33.5446 L 92.66 31.7937 L 91.8882 31.7937 L 91.994 31.3754 L 92.751 31.3754 L 92.9321 30.4922 Z" fill="#223975"/>			<path d="M 94.8176 31.3754 L 95.3168 31.3754 L 94.4996 35.3267 L 94.0005 35.3267 L 94.8176 31.3754 ZM 95.5667 30.322 L 94.9994 30.322 L 95.135 29.6714 L 95.7024 29.6714 L 95.5667 30.322 Z" fill="#223975"/>			<path d="M 97.7693 31.2827 C 98.7528 31.2827 99.3053 31.9568 99.3053 32.9789 C 99.3053 34.2963 98.4955 35.4192 97.1641 35.4192 C 96.2106 35.4192 95.6205 34.6833 95.6205 33.6995 C 95.6205 32.3752 96.4601 31.2827 97.7693 31.2827 ZM 97.2245 35.001 C 98.2234 35.001 98.7833 33.9166 98.7833 32.9873 C 98.7833 32.2432 98.4576 31.7009 97.7086 31.7009 C 96.6418 31.7009 96.1427 32.77 96.1427 33.777 C 96.1427 34.4587 96.551 35.001 97.2245 35.001 Z" fill="#223975"/>			<path d="M 100.2837 32.0032 C 100.329 31.7397 100.3593 31.5691 100.3741 31.3754 L 100.851 31.3754 C 100.8278 31.6235 100.8057 31.8325 100.7678 31.9722 L 100.7826 31.9722 C 101.0474 31.5537 101.5317 31.2827 102.0085 31.2827 C 102.7047 31.2827 103.2186 31.6858 103.2186 32.4292 C 103.2186 32.7002 103.1586 32.9949 103.1053 33.2424 L 102.6744 35.3267 L 102.1747 35.3267 L 102.6135 33.1497 C 102.6667 32.8938 102.6967 32.7236 102.6967 32.4602 C 102.6967 31.9956 102.4395 31.7009 101.9551 31.7009 C 101.1229 31.7009 100.6769 32.5453 100.4951 33.4519 L 100.1168 35.3267 L 99.6177 35.3267 L 100.2837 32.0032 Z" fill="#223975"/>			<path d="M 103.4535 34.7146 C 103.7261 34.8846 104.0441 35.001 104.3694 35.001 C 104.8307 35.001 105.4586 34.8231 105.4586 34.2112 C 105.4586 33.351 103.938 33.3896 103.938 32.3828 C 103.938 31.6001 104.7476 31.2827 105.3676 31.2827 C 105.7162 31.2827 106.041 31.3448 106.359 31.4763 L 106.2002 31.9333 C 105.9507 31.786 105.6329 31.7009 105.3455 31.7009 C 104.9669 31.7009 104.4369 31.8247 104.4369 32.3752 C 104.4369 33.0488 105.9808 33.1345 105.9808 34.1801 C 105.9808 35.0784 105.1786 35.4192 104.4296 35.4192 C 104.0284 35.4192 103.6808 35.3577 103.3101 35.2028 L 103.4535 34.7146 Z" fill="#223975"/>			<path d="M 113.2654 30.5544 C 112.879 30.345 112.448 30.291 111.9944 30.291 C 110.4579 30.291 109.4063 31.4916 109.4063 33.0564 C 109.4063 34.1104 110.2162 34.9546 111.3285 34.9546 C 111.9862 34.9546 112.1531 34.8618 112.4557 34.7769 L 112.3948 35.2491 C 112.1832 35.3113 111.926 35.4192 111.3662 35.4192 C 110.0115 35.4192 108.8845 34.5134 108.8845 33.0488 C 108.8845 31.1589 110.2006 29.8263 112.0243 29.8263 C 112.5919 29.8263 113.0081 29.8962 113.4471 30.105 L 113.2654 30.5544 Z" fill="#223975"/>			<path d="M 115.1167 31.2827 C 116.1 31.2827 116.6523 31.9568 116.6523 32.9789 C 116.6523 34.2963 115.8427 35.4192 114.511 35.4192 C 113.5579 35.4192 112.9678 34.6833 112.9678 33.6995 C 112.9678 32.3752 113.807 31.2827 115.1167 31.2827 ZM 114.5717 35.001 C 115.5703 35.001 116.1304 33.9166 116.1304 32.9873 C 116.1304 32.2432 115.8048 31.7009 115.0559 31.7009 C 113.989 31.7009 113.4897 32.77 113.4897 33.777 C 113.4897 34.4587 113.8984 35.001 114.5717 35.001 Z" fill="#223975"/>			<path d="M 117.6227 32.042 C 117.6687 31.8483 117.7063 31.5848 117.7212 31.3754 L 118.1979 31.3754 C 118.1753 31.6235 118.1449 31.8325 118.115 31.9722 L 118.13 31.9722 C 118.4933 31.4763 118.7959 31.2827 119.3252 31.2827 C 119.8702 31.2827 120.2709 31.5925 120.2939 32.1656 L 120.3085 32.1656 C 120.5583 31.616 121.0049 31.2827 121.6182 31.2827 C 122.2832 31.2827 122.7074 31.7245 122.7074 32.4443 C 122.7074 32.5999 122.6539 32.9016 122.594 33.1885 L 122.155 35.3267 L 121.6559 35.3267 L 122.0867 33.2347 C 122.1401 32.9949 122.1854 32.7625 122.1854 32.468 C 122.1854 32.0342 122.0038 31.7009 121.5425 31.7009 C 120.755 31.7009 120.3544 32.6077 120.2107 33.3198 L 119.8096 35.3267 L 119.3102 35.3267 L 119.7412 33.2347 C 119.7946 32.9949 119.8398 32.7625 119.8398 32.468 C 119.8398 32.0342 119.6583 31.7009 119.197 31.7009 C 118.4098 31.7009 118.0092 32.6077 117.8651 33.3198 L 117.464 35.3267 L 116.9647 35.3267 L 117.6227 32.042 Z" fill="#223975"/>			<path d="M 123.7173 32.2979 C 123.7776 32.0032 123.8383 31.6699 123.8685 31.3754 L 124.3455 31.3754 C 124.3298 31.616 124.2921 31.8171 124.2617 31.9644 L 124.2771 31.9644 C 124.5345 31.5461 125.0189 31.2827 125.5409 31.2827 C 126.418 31.2827 126.8646 31.9956 126.8646 32.8787 C 126.8646 34.1025 126.2068 35.4192 124.9053 35.4192 C 124.3602 35.4192 123.9138 35.1019 123.7551 34.5597 L 123.7395 34.5597 L 123.271 36.9537 L 122.7711 36.9537 L 123.7173 32.2979 ZM 124.9053 35.001 C 125.896 35.001 126.3427 33.7927 126.3427 32.8787 C 126.3427 32.2278 126.0703 31.7009 125.4044 31.7009 C 124.4888 31.7009 123.9369 32.9098 123.9369 33.7465 C 123.9369 34.366 124.2321 35.001 124.9053 35.001 Z" fill="#223975"/>			<path d="M 130.1388 34.3889 C 130.063 34.6912 130.0105 35.0554 129.9949 35.3267 L 129.5182 35.3267 C 129.5413 35.1177 129.5559 34.9158 129.5938 34.7456 L 129.5791 34.7456 C 129.2533 35.2415 128.8298 35.4192 128.2628 35.4192 C 127.665 35.4192 127.1577 34.9622 127.1577 34.3115 C 127.1577 33.1572 128.4287 32.9174 129.3749 32.9174 C 129.5713 32.9174 129.7456 32.9326 129.8971 32.9485 C 129.912 32.8323 129.9193 32.7161 129.9193 32.553 C 129.9193 32.0107 129.6241 31.7009 129.0946 31.7009 C 128.6484 31.7009 128.2094 31.9099 127.952 32.042 L 128.0052 31.5461 C 128.2775 31.4299 128.7167 31.2827 129.1703 31.2827 C 130.0023 31.2827 130.4414 31.7473 130.4414 32.5688 C 130.4414 32.7236 130.4109 33.01 130.3435 33.3198 L 130.1388 34.3889 ZM 128.4287 35.001 C 129.3214 35.001 129.7302 34.1801 129.8362 33.351 C 129.6775 33.351 129.5262 33.3357 129.3669 33.3357 C 128.7239 33.3357 127.6799 33.436 127.6799 34.3038 C 127.6799 34.7534 128.0432 35.001 128.4287 35.001 Z" fill="#223975"/>			<path d="M 131.5417 32.0032 C 131.587 31.7397 131.6176 31.5691 131.6326 31.3754 L 132.1093 31.3754 C 132.0864 31.6235 132.0637 31.8325 132.026 31.9722 L 132.0409 31.9722 C 132.3057 31.5537 132.7899 31.2827 133.2668 31.2827 C 133.9629 31.2827 134.4769 31.6858 134.4769 32.4292 C 134.4769 32.7002 134.417 32.9949 134.3635 33.2424 L 133.9325 35.3267 L 133.4327 35.3267 L 133.8718 33.1497 C 133.9253 32.8938 133.955 32.7236 133.955 32.4602 C 133.955 31.9956 133.6976 31.7009 133.2134 31.7009 C 132.3813 31.7009 131.9349 32.5453 131.7534 33.4519 L 131.375 35.3267 L 130.8761 35.3267 L 131.5417 32.0032 Z" fill="#223975"/>			<path d="M 135.6642 36.256 C 135.4301 36.7053 135.1497 37 134.6277 37 C 134.4615 37 134.3101 36.9766 134.1664 36.8914 L 134.2798 36.4731 C 134.3628 36.5581 134.4764 36.5817 134.5898 36.5817 C 134.9226 36.5817 135.1802 36.2717 135.324 35.9622 L 135.6494 35.3342 L 135.1044 31.3754 L 135.6041 31.3754 L 135.9971 34.7769 L 136.0127 34.7769 L 137.8207 31.3754 L 138.3353 31.3754 L 135.6642 36.256 Z" fill="#223975"/>		</g>		<g>			<path d="M 18.6689 12.7236 C 18.6689 14.7797 17.0416 16.4464 15.0321 16.4464 C 13.024 16.4464 11.3956 14.7797 11.3956 12.7236 C 11.3956 10.6675 13.024 8.9998 15.0321 8.9998 C 17.0416 8.9998 18.6689 10.6675 18.6689 12.7236 Z" fill="#7ac042"/>			<path d="M 15.4103 0 C 6.8993 0 0 4.8083 0 10.7412 C 0 14.3933 2.6233 17.6143 6.62 19.5537 L 7.1639 16.9438 C 4.7494 15.4565 3.2118 13.231 3.2118 10.7424 C 3.2118 6.2601 8.1859 2.6257 14.3224 2.6257 C 20.4578 2.6257 25.4315 6.2601 25.4315 10.7424 C 25.4315 15.2253 20.4578 18.8591 14.3224 18.8591 C 12.9838 18.8591 11.7067 18.677 10.5173 18.3589 L 8.1228 29.8752 L 15.0839 21.4756 C 15.1925 21.4756 15.2998 21.4814 15.4103 21.4814 C 23.9194 21.4814 30.8181 16.6725 30.8181 10.7412 C 30.8181 4.8083 23.9194 0 15.4103 0 Z" fill="#223975"/>		</g>		<g>			<g>				<path d="M 138.6588 22.3213 C 139.4054 22.3213 140 22.9104 140 23.7007 C 140 24.4722 139.4178 25.0746 138.6588 25.0746 C 137.8994 25.0746 137.3165 24.4722 137.3165 23.7007 C 137.3165 22.9104 137.9058 22.3213 138.6588 22.3213 ZM 138.6588 24.7571 C 139.2096 24.7571 139.6892 24.2645 139.6892 23.7007 C 139.6892 23.1243 139.2096 22.6379 138.6588 22.6379 C 138.1145 22.6379 137.6271 23.1243 137.6271 23.7007 C 137.6271 24.2645 138.1084 24.7571 138.6588 24.7571 ZM 138.4563 24.4137 L 138.0828 24.4137 L 138.0828 22.9822 L 138.7594 22.9822 C 138.8424 22.9822 139.2915 22.9822 139.2915 23.4087 C 139.2915 23.6816 139.1016 23.7592 139.0316 23.7915 L 139.2915 24.4137 L 138.8994 24.4137 L 138.6776 23.8956 L 138.4563 23.8956 L 138.4563 24.4137 ZM 138.4563 23.6036 L 138.6396 23.6036 C 138.7408 23.6036 138.9058 23.5776 138.9058 23.4031 C 138.9058 23.3186 138.8488 23.2544 138.6652 23.2544 L 138.4563 23.2544 L 138.4563 23.6036 Z" fill="#7ac042"/>			</g>			<path d="M 36.7217 8.4155 L 39.9645 8.4155 L 39.9645 24.9697 L 36.7217 24.9697 L 36.7217 8.4155 Z" fill="#223975"/>			<path d="M 42.6072 12.7559 L 45.5493 12.7559 L 45.5493 14.4156 L 45.5957 14.4156 C 46.5684 13.0164 47.8882 12.4714 49.5099 12.4714 C 52.3357 12.4714 53.5635 14.5105 53.5635 17.2615 L 53.5635 24.9697 L 50.4598 24.9697 L 50.4598 18.448 C 50.4598 16.9537 50.4363 14.9381 48.4442 14.9381 C 46.1976 14.9381 45.7107 17.4279 45.7107 18.9934 L 45.7107 24.9697 L 42.6072 24.9697 L 42.6072 12.7559 Z" fill="#223975"/>			<path d="M 57.0443 24.9697 L 57.0443 15.0797 L 54.7506 15.0797 L 54.7506 12.7559 L 57.0443 12.7559 L 57.0443 10.3126 L 60.1481 9.2925 L 60.1481 12.7559 L 62.9042 12.7559 L 62.9042 15.0797 L 60.1481 15.0797 L 60.1481 24.9697 L 60.1481 24.9697 " fill="#223975"/>			<path d="M 73.9363 24.2822 C 72.8019 24.9229 71.5046 25.2549 69.837 25.2549 C 65.8989 25.2549 63.6055 22.9302 63.6055 18.9226 C 63.6055 15.3882 65.4358 12.4714 69.1418 12.4714 C 73.5656 12.4714 74.8169 15.578 74.8169 19.8473 L 66.5704 19.8473 C 66.7097 21.8153 68.0529 22.9302 69.976 22.9302 C 71.4813 22.9302 72.7783 22.3613 73.9363 21.6973 L 73.9363 24.2822 ZM 71.8516 17.665 C 71.759 16.123 71.0643 14.7949 69.3273 14.7949 C 67.5897 14.7949 66.7097 16.0281 66.5704 17.665 L 71.8516 17.665 Z" fill="#223975"/>			<path d="M 76.558 7.1819 L 79.6617 7.1819 L 79.6617 24.9697 L 76.558 24.9697 L 76.558 7.1819 Z" fill="#223975"/>			<path d="M 91.8008 24.2822 C 90.6663 24.9229 89.3693 25.2549 87.701 25.2549 C 83.7638 25.2549 81.4701 22.9302 81.4701 18.9226 C 81.4701 15.3882 83.3004 12.4714 87.0067 12.4714 C 91.4307 12.4714 92.681 15.578 92.681 19.8473 L 84.4352 19.8473 C 84.5739 21.8153 85.9174 22.9302 87.8407 22.9302 C 89.3452 22.9302 90.6432 22.3613 91.8008 21.6973 L 91.8008 24.2822 ZM 89.7163 17.665 C 89.6237 16.123 88.9287 14.7949 87.1917 14.7949 C 85.4542 14.7949 84.5739 16.0281 84.4352 17.665 L 89.7163 17.665 Z" fill="#223975"/>			<path d="M 94.8878 8.3611 L 98.9878 8.3611 C 102.5088 8.3611 105.7279 9.4045 105.7279 13.365 C 105.7279 17.2314 102.9718 18.631 99.4968 18.631 L 98.1301 18.631 L 98.1301 24.9158 L 94.8878 24.9158 L 94.8878 8.3611 ZM 98.1301 16.0215 L 99.2655 16.0215 C 100.8862 16.0215 102.3457 15.4761 102.3457 13.5547 C 102.3457 11.634 100.9333 10.97 99.2655 10.97 L 98.1301 10.97 L 98.1301 16.0215 Z" fill="#7ac042"/>			<path d="M 116.8893 24.3312 C 115.7542 24.9711 114.4572 25.3032 112.7893 25.3032 C 108.8522 25.3032 106.5587 22.9789 106.5587 18.97 C 106.5587 15.4364 108.3883 12.519 112.0948 12.519 C 116.5186 12.519 117.7697 15.6262 117.7697 19.8955 L 109.5234 19.8955 C 109.6625 21.8643 111.0061 22.9789 112.9286 22.9789 C 114.4341 22.9789 115.7311 22.4094 116.8893 21.7454 L 116.8893 24.3312 ZM 114.8048 17.7134 C 114.7115 16.1721 114.0166 14.8442 112.28 14.8442 C 110.5424 14.8442 109.6625 16.0773 109.5234 17.7134 L 114.8048 17.7134 Z" fill="#7ac042"/>			<path d="M 129.403 24.3312 C 128.2676 24.9711 126.9706 25.3032 125.3027 25.3032 C 121.3657 25.3032 119.0723 22.9789 119.0723 18.97 C 119.0723 15.4364 120.9023 12.519 124.6083 12.519 C 129.0326 12.519 130.2832 15.6262 130.2832 19.8955 L 122.0371 19.8955 C 122.1759 21.8643 123.5195 22.9789 125.4424 22.9789 C 126.9476 22.9789 128.2446 22.4094 129.403 21.7454 L 129.403 24.3312 ZM 127.3185 17.7134 C 127.2261 16.1721 126.5309 14.8442 124.7937 14.8442 C 123.0564 14.8442 122.1759 16.0773 122.0371 17.7134 L 127.3185 17.7134 Z" fill="#7ac042"/>			<path d="M 131.9995 12.8037 L 134.7554 12.8037 L 134.7554 15.5789 L 134.8018 15.5789 C 134.9407 14.4404 136.2142 12.519 138.0674 12.519 C 138.3687 12.519 138.693 12.519 139.0172 12.614 L 139.0172 15.816 C 138.7394 15.6498 138.1835 15.5548 137.6281 15.5548 C 135.1025 15.5548 135.1025 18.7805 135.1025 20.5361 L 135.1025 25.0187 L 131.9995 25.0187 L 131.9995 12.8037 Z" fill="#7ac042"/>		</g>	</g></svg>