<?xml version="1.0" encoding="utf-8"?>
<!-- Generator: Adobe Illustrator 18.1.0, SVG Export Plug-In . SVG Version: 6.00 Build 0)  -->
<svg version="1.1" id="DX_x5F_650_x5F_225x200-Page_x25_201"
	 xmlns="http://www.w3.org/2000/svg" xmlns:xlink="http://www.w3.org/1999/xlink" x="0px" y="0px" viewBox="-173.5 320 175 155.5"
	 enable-background="new -173.5 320 175 155.5" xml:space="preserve">
<path fill="none" d="z"/>
<g id="Layer_x25_201">
	<path fill="#FFFFFF" stroke="#989898" d="M-29.5,408.5h-52v-6h52V408.5z"/>
	<path fill="#FFFFFF" stroke="#989898" d="M-154.7,451.3c0,0-0.1,2.5-0.1,4.2c0,1.7,1.5,4.2,7.7,4.2c7.5,0,140,0.2,142.3,0.1
		c3.9-0.2,6.5-1.5,5.7-8.7l0,0"/>
	<path fill="#FFFFFF" stroke="#989898" d="M-106.5,406.5c0,0-2.1,0.1-3.4-1c-1.1-0.9-1.1-3.4-1.1-3.4s1.9-29.9,1.9-31.3
		c0-2-0.4-1.9-1.1-2.6c-1-0.9-3.9-0.9-3.9-0.9h-27.1c0,0-2.3-0.1-3.5,1.4c-0.8,1.1-0.9,1.1-1.2,2.5c-0.2,1.4-9.1,78.3-9.1,80
		c0,1.8,0.2,2.3,1.2,3.1c1,0.8,2,0.7,2.8,0.7L-3,456c1.1,0,2.3-0.4,3.1-1.3c0.8-0.9,0.8-3.3,0.7-4.8c-0.1-1.6-3.4-38.1-3.6-39.1
		c-0.2-1.1-0.6-2.2-1.6-3.1c-1.3-1.1-3.1-1.2-3.9-1.2H-106.5z M-2.5,398.7v-74.4c0-2.1-1.7-3.8-3.8-3.8h-98.4
		c-2.1,0-3.8,1.7-3.8,3.8v74.4c0,2.1,1.7,3.8,3.8,3.8h98.4C-4.2,402.5-2.5,400.8-2.5,398.7z"/>
	<path fill="none" stroke="#989898" d="M-10.5,390.5h-90v-54h90V390.5z"/>
	<path fill="none" stroke="#989898" d="M-51.5,328.1c0,2.7-2.2,4.9-4.9,4.9l0,0c-2.7,0-4.9-2.2-4.9-4.9l0,0c0-2.7,2.2-4.9,4.9-4.9
		l0,0C-53.7,323.2-51.5,325.4-51.5,328.1L-51.5,328.1z"/>
	<path fill="#CBCBCB" d="M-53.4,328.1c0,1.7-1.4,3-3,3l0,0c-1.7,0-3-1.4-3-3l0,0c0-1.7,1.4-3,3-3l0,0
		C-54.8,325.1-53.4,326.4-53.4,328.1L-53.4,328.1z"/>
	<path fill="#FFFFFF" stroke="#989898" d="M-55.6,328.1c0,0.5-0.4,0.9-0.9,0.9c-0.5,0-0.9-0.4-0.9-0.9c0-0.5,0.4-0.9,0.9-0.9
		C-55.9,327.2-55.6,327.6-55.6,328.1z"/>
	<path fill="#989898" d="M-64.6,328c0,0.4-0.3,0.8-0.8,0.8c-0.4,0-0.8-0.3-0.8-0.8c0-0.4,0.3-0.8,0.8-0.8
		C-64.9,327.2-64.6,327.6-64.6,328z"/>
	<path fill="none" stroke="#999999" d="M-76.5,434.2V433c0-0.7-0.6-1.3-1.3-1.3c0,0-6.3,0.6-10.5,0.6c-4.2,0-9.9-0.6-9.9-0.6
		c-0.7,0-1.3,0.6-1.3,1.3v1.2c0,0.7,0.6,1.3,1.3,1.3h20.4C-77.1,435.5-76.5,434.9-76.5,434.2z M-9.5,446.2v-1.4
		c0-0.7-0.6-1.3-1.3-1.3h-6.4c-0.7,0-1.3,0.6-1.3,1.3v1.4c0,0.7,0.6,1.3,1.3,1.3h6.4C-10.1,447.5-9.5,446.9-9.5,446.2z M-21.5,446.2
		v-1.4c0-0.7-0.6-1.3-1.3-1.3h-7.4c-0.7,0-1.3,0.6-1.3,1.3v1.4c0,0.7,0.6,1.3,1.3,1.3h7.4C-22.1,447.5-21.5,446.9-21.5,446.2z
		 M-76.5,446.2v-1.4c0-0.7-0.6-1.3-1.3-1.3h-7.4c-0.7,0-1.3,0.6-1.3,1.3v1.4c0,0.7,0.6,1.3,1.3,1.3h7.4
		C-77.1,447.5-76.5,446.9-76.5,446.2z M-89.5,446.2v-1.4c0-0.7-0.6-1.3-1.3-1.3h-6.4c-0.7,0-1.3,0.6-1.3,1.3v1.4
		c0,0.7,0.6,1.3,1.3,1.3h6.4C-90.1,447.5-89.5,446.9-89.5,446.2z M-76.5,440.2v-2.4c0-0.7-0.6-1.3-1.3-1.3h-7.4
		c-0.7,0-1.3,0.6-1.3,1.3v2.4c0,0.7,0.6,1.3,1.3,1.3h7.4C-77.1,441.5-76.5,440.9-76.5,440.2z M-89.5,440.2v-2.4
		c0-0.7-0.6-1.3-1.3-1.3h-6.4c-0.7,0-1.3,0.6-1.3,1.3v2.4c0,0.7,0.6,1.3,1.3,1.3h6.4C-90.1,441.5-89.5,440.9-89.5,440.2z
		 M-9.5,440.2v-2.4c0-0.7-0.6-1.3-1.3-1.3h-6.4c-0.7,0-1.3,0.6-1.3,1.3v2.4c0,0.7,0.6,1.3,1.3,1.3h6.4
		C-10.1,441.5-9.5,440.9-9.5,440.2z M-21.5,440.2v-2.4c0-0.7-0.6-1.3-1.3-1.3h-7.4c-0.7,0-1.3,0.6-1.3,1.3v2.4
		c0,0.7,0.6,1.3,1.3,1.3h7.4C-22.1,441.5-21.5,440.9-21.5,440.2z M-38.5,446.2v-2.4c0-0.7-0.6-1.3-1.3-1.3h-5.4
		c-0.7,0-1.3,0.6-1.3,1.3v2.4c0,0.7,0.6,1.3,1.3,1.3h5.4C-39.1,447.5-38.5,446.9-38.5,446.2z M-49.5,446.2v-2.4
		c0-0.7-0.6-1.3-1.3-1.3h-6.4c-0.7,0-1.3,0.6-1.3,1.3v2.4c0,0.7,0.6,1.3,1.3,1.3h6.4C-50.1,447.5-49.5,446.9-49.5,446.2z
		 M-62.5,446.2v-2.4c0-0.7-0.6-1.3-1.3-1.3h-5.4c-0.7,0-1.3,0.6-1.3,1.3v2.4c0,0.7,0.6,1.3,1.3,1.3h5.4
		C-63.1,447.5-62.5,446.9-62.5,446.2z M-38.5,439.2v-2.4c0-0.7-0.6-1.3-1.3-1.3h-5.4c-0.7,0-1.3,0.6-1.3,1.3v2.4
		c0,0.7,0.6,1.3,1.3,1.3h5.4C-39.1,440.5-38.5,439.9-38.5,439.2z M-49.5,439.2v-2.4c0-0.7-0.6-1.3-1.3-1.3h-6.4
		c-0.7,0-1.3,0.6-1.3,1.3v2.4c0,0.7,0.6,1.3,1.3,1.3h6.4C-50.1,440.5-49.5,439.9-49.5,439.2z M-62.5,439.2v-2.4
		c0-0.7-0.6-1.3-1.3-1.3h-5.4c-0.7,0-1.3,0.6-1.3,1.3v2.4c0,0.7,0.6,1.3,1.3,1.3h5.4C-63.1,440.5-62.5,439.9-62.5,439.2z
		 M-38.5,430.2v-1.4c0-0.7-0.6-1.3-1.3-1.3h-5.4c-0.7,0-1.3,0.6-1.3,1.3v1.4c0,0.7,0.6,1.3,1.3,1.3h5.4
		C-39.1,431.5-38.5,430.9-38.5,430.2z M-49.5,430.2v-1.4c0-0.7-0.6-1.3-1.3-1.3h-6.4c-0.7,0-1.3,0.6-1.3,1.3v1.4
		c0,0.7,0.6,1.3,1.3,1.3h6.4C-50.1,431.5-49.5,430.9-49.5,430.2z M-62.5,430.2v-1.4c0-0.7-0.6-1.3-1.3-1.3h-5.4
		c-0.7,0-1.3,0.6-1.3,1.3v1.4c0,0.7,0.6,1.3,1.3,1.3h5.4C-63.1,431.5-62.5,430.9-62.5,430.2z M-39.5,423.2v-2.4
		c0-0.7-0.6-1.3-1.3-1.3h-6.4c-0.7,0-1.3,0.6-1.3,1.3v2.4c0,0.7,0.6,1.3,1.3,1.3h6.4C-40.1,424.5-39.5,423.9-39.5,423.2z
		 M-49.5,423.2v-2.4c0-0.7-0.6-1.3-1.3-1.3h-6.4c-0.7,0-1.3,0.6-1.3,1.3v2.4c0,0.7,0.6,1.3,1.3,1.3h6.4
		C-50.1,424.5-49.5,423.9-49.5,423.2z M-62.5,423.2v-2.4c0-0.7-0.6-1.3-1.3-1.3h-5.4c-0.7,0-1.3,0.6-1.3,1.3v2.4
		c0,0.7,0.6,1.3,1.3,1.3h5.4C-63.1,424.5-62.5,423.9-62.5,423.2z M-9.6,413.4c0-1.1-1-1.9-2.3-1.9c-1.3,0-2.3,0.9-2.3,1.9
		c0,1.1,1,1.9,2.3,1.9C-10.6,415.3-9.6,414.4-9.6,413.4z"/>
	<path fill="none" stroke="#989898" d="M-141.2,372.6c0.2-1.1,0.5-2.1,1.5-3.1c1.6-1.5,3.2-1.3,3.7-1.3c0.8,0,14.6,0,14.6,0
		s1.9-0.1,3,0.9c1.1,1,1.3,2.3,1.2,3.5c-0.1,1.2-2.6,36.3-2.6,36.3l-1.5,33.9c0,0-0.1,2.9-1.1,4.1c-1.1,1.5-2.5,2-3.5,2.2
		c-0.4,0.1-6.5,0.5-6.5,0.5v-2.1h-4v0.9c0,0-4.7,1.3-5.4,1.3c-1.7,0-3.6-0.6-4.3-1.5c-0.9-0.9-1.9-2.8-1.7-5.5
		c-0.1-1.4,2.8-34.4,2.8-34.4S-141.4,373.7-141.2,372.6z"/>
	<path fill="none" stroke="#989898" d="M-143.6,394.4c0,0-1.6-0.7-1.2-3.7c0.4-2.9,1.9-16.3,1.9-16.3s0.5-2.8,2-2.8l0,0"/>
	<path fill="none" stroke="#989898" d="M-117.9,369.7c0,0,2.6-0.1,4.1,1.6c1.5,1.6,1.5,3.3,1.5,3.3l-1,14.8c0,0-0.1,3.6-1.7,4.8
		c-1.6,1.2-3.9,2-3.9,2l0,0"/>
	<path fill="none" stroke="#989898" d="M-117.5,370c0,0,2.1,1.2,2.9,4.9c0.2,1,0.1,3.4,0.1,5c-0.1,5.5-0.8,10.5-1.2,12.2
		c-0.3,1.8-3.2,2.6-3.2,2.6l0,0"/>
	<path fill="none" stroke="#989898" d="M-144.7,449.3c0,0,2.2,1.9,4.7,2.1c2.4,0.1,12.1,0,12.1,0s3.5-0.4,4.2-3.1l0,0"/>
	<path fill="#989898" d="M-14,459.1c0,0.4-0.6,0.7-1.3,0.7c-0.7,0-1.3-0.3-1.3-0.7c0-0.4,0.6-0.7,1.3-0.7
		C-14.5,458.4-14,458.7-14,459.1z"/>
	<path fill="#989898" d="M-118,461h-10v-1h10V461z"/>
	<path fill="#989898" d="M-28,461h-8v-1h8V461z"/>
	<path fill="none" stroke="#989898" d="M-120.8,455.3c1.8,0,4-0.9,5.1-1.8c1.4-1.2,1.5-3.9,1.5-3.9l5.1-79.2l0,0"/>
	<path fill="#FFFFFF" stroke="#989898" d="M-136.3,447.5c0,0,0.3,5.2,0.2,8.3c-0.1,3.6-1.9,9.1-3.3,11.5c-1,1.6-5.5,5.2-5.5,5.2
		s1.6-3.3,1.3-4.5c-0.2-1.4-1.9-2.6-3.5-1.9c-1.2,0.6-1.6,2.2-1.6,2.2s0.2-2-1.4-2.1c-1.5-0.2-2,1.2-2,1.2l-0.5-0.8
		c0,0-0.7-0.6-2-0.6c-1.3,0-1.8,0.3-1.8,0.3s-1.7-0.8-2.9-0.7c-1.2,0.1-3.9-1.3-5-2.8c-1-1.5,1.4-2.6,1.4-2.6l2.5-1.6l3.1-1.9l1.6-1
		v-3.1v-5.3c0,0-3.4,0.9-7.1,2.8c-3.6,1.9-7.7,5.7-9,7.5c-1.4,2-2,6.1-1,8c1,2,3.7,4.3,3.7,4.3l2.7,1.9c0,0,1.5,1.1,2.4,1.4
		c0.9,0.3,1.1,0,1.1,0l0.7,0.4c0,0,1.1,0.6,1.8,0.6c0.7,0,1.2-0.6,1.2-0.6s0.5,0.7,1.5,1c1.2,0.3,2.3-0.7,2.3-0.7l0.6-1.1
		c0,0-0.3,1.6,0.9,1.9c1.5,0.4,2.6-1.1,2.6-1.1s0.4,0.8,1.6,1.1c1.2,0.3,3.1-0.4,3.1-0.4l1.3,0.3c0,0,1.4,0.6,2.4-0.4
		c0.7-0.7,1.3-0.9,4.2-4.3c0,0,3.6-5.3,4.6-12.2c0.2-1.6,0.1-10.4,0.1-10.4H-136.3z"/>
	<path fill="#FFFFFF" stroke="#989898" d="M-146.2,474.5l1.9-3.2l0,0"/>
	<path fill="none" stroke="#989898" d="M-146.7,466.4c0.6,5.8-4,7.1-4.1,7.1l2.7-6.2l0,0"/>
	<path fill="none" stroke="#989898" d="M-154.7,473.8l2.8-6.4l0,0"/>
	<path fill="none" stroke="#989898" d="M-156.2,466.4c0,0-2.2,2.6-2.7,7.4l0,0"/>
	<path fill="none" stroke="#989898" d="M-159.8,465.6c0,0-3.6,4-2.6,7.9l0,0"/>
	<path fill="none" stroke="#989898" d="M-162.2,464.4c0,0-5.1,2.1-3.5,7.7l0,0"/>
	<path fill="none" stroke="#989898" d="M-163.7,463.3c0,0-5.7,0.6-4.8,6.9l0,0"/>
	<path fill="none" stroke="#989898" d="M-164.4,462.3c0,0-6.5-1.7-6.2,6l0,0"/>
	<path fill="none" stroke="#989898" d="M-164,461.7c0,0-6.3-3.7-8.9,2.5l0,0"/>
	<path fill="none" stroke="#989898" d="M-163.5,461.2c0,0-4-5.7-9-1.4l0,0"/>
	<path fill="none" stroke="#989898" d="M-163.1,460.6c0,0-0.9-5.8-6.7-4.6l0,0"/>
	<path fill="none" stroke="#989898" d="M-162.1,459.9c0,0,0.5-5.9-5.4-5.9l0,0"/>
	<path fill="none" stroke="#989898" d="M-160.7,459.1c0,0,1.2-5.7-4.7-6.7l0,0"/>
	<path fill="none" stroke="#989898" d="M-159.3,458.4c0,0,2.1-5.5-3.5-7.4l0,0"/>
	<path fill="none" stroke="#989898" d="M-157.2,457.2c0,0,2.1-5.6-3.5-7.5l0,0"/>
	<path fill="none" stroke="#989898" d="M-155.6,456.3c0,0,2.8-5.2-2.6-7.7l0,0"/>
	<path fill="none" stroke="#989898" d="M-154.8,452.8L-154.8,452.8z"/>
	<path fill="#999999" d="M-59.9,399.9v-2h0.5v2H-59.9L-59.9,399.9z M-62.2,398.8c0-0.1,0-0.3,0.1-0.4c0.1-0.1,0.1-0.2,0.2-0.3
		c0.1-0.1,0.2-0.2,0.3-0.2c0.1-0.1,0.3-0.1,0.4-0.1c0.1,0,0.1,0,0.2,0s0.1,0,0.1,0c0,0,0.1,0,0.1,0c0,0,0,0,0.1,0v0.5c0,0,0,0-0.1,0
		c0,0-0.1,0-0.1,0c0,0-0.1,0-0.1,0c-0.1,0-0.1,0-0.2,0c-0.1,0-0.2,0-0.2,0c-0.1,0-0.1,0.1-0.2,0.1c-0.1,0.1-0.1,0.1-0.1,0.2
		c0,0.1,0,0.1,0,0.2c0,0.1,0,0.1,0,0.2c0,0.1,0.1,0.1,0.1,0.2c0,0.1,0.1,0.1,0.2,0.1c0.1,0,0.1,0,0.2,0c0.1,0,0.1,0,0.2,0
		c0.1,0,0.1,0,0.1,0c0,0,0.1,0,0.1,0c0,0,0,0,0.1,0v0.5c0,0-0.1,0-0.1,0s-0.1,0-0.1,0c0,0-0.1,0-0.1,0h-0.1c-0.2,0-0.3,0-0.4-0.1
		c-0.1-0.1-0.2-0.1-0.3-0.2c-0.1-0.1-0.2-0.2-0.2-0.3C-62.2,399.1-62.2,399-62.2,398.8L-62.2,398.8z M-56.8,398.8
		c0-0.1,0-0.3,0.1-0.4c0.1-0.1,0.1-0.2,0.2-0.3c0.1-0.1,0.2-0.2,0.3-0.2c0.1-0.1,0.3-0.1,0.4-0.1c0.1,0,0.1,0,0.2,0
		c0.1,0,0.1,0,0.1,0c0,0,0.1,0,0.1,0s0,0,0.1,0v0.5c0,0,0,0-0.1,0c0,0-0.1,0-0.1,0c0,0-0.1,0-0.1,0c-0.1,0-0.1,0-0.2,0
		c-0.1,0-0.2,0-0.2,0c-0.1,0-0.1,0.1-0.2,0.1c-0.1,0.1-0.1,0.1-0.1,0.2c0,0.1,0,0.1,0,0.2c0,0.1,0,0.1,0,0.2c0,0.1,0.1,0.1,0.1,0.2
		c0.1,0.1,0.1,0.1,0.2,0.1c0.1,0,0.1,0,0.2,0c0.1,0,0.1,0,0.2,0c0.1,0,0.1,0,0.1,0c0,0,0.1,0,0.1,0c0,0,0,0,0.1,0v0.5
		c0,0-0.1,0-0.1,0c0,0-0.1,0-0.1,0c0,0-0.1,0-0.1,0h-0.1c-0.2,0-0.3,0-0.4-0.1c-0.1-0.1-0.2-0.1-0.3-0.2c-0.1-0.1-0.2-0.2-0.2-0.3
		C-56.8,399.1-56.8,399-56.8,398.8L-56.8,398.8z M-54.2,398.8c0,0.1,0,0.1,0,0.2c0,0.1,0.1,0.1,0.1,0.2c0.1,0.1,0.1,0.1,0.2,0.1
		c0.1,0,0.1,0,0.2,0c0.1,0,0.1,0,0.2,0c0.1,0,0.1-0.1,0.2-0.1c0.1,0,0.1-0.1,0.1-0.2c0-0.1,0-0.1,0-0.2c0-0.1,0-0.1,0-0.2
		c0-0.1-0.1-0.1-0.1-0.2c-0.1,0-0.1-0.1-0.2-0.1c-0.1,0-0.1,0-0.2,0c-0.1,0-0.2,0-0.2,0c-0.1,0-0.1,0.1-0.2,0.1
		c-0.1,0.1-0.1,0.1-0.1,0.2C-54.2,398.7-54.2,398.8-54.2,398.8L-54.2,398.8z M-54.8,398.8c0-0.1,0-0.3,0.1-0.4
		c0.1-0.1,0.1-0.2,0.2-0.3c0.1-0.1,0.2-0.2,0.3-0.2c0.1-0.1,0.3-0.1,0.4-0.1c0.2,0,0.3,0,0.4,0.1c0.1,0.1,0.2,0.1,0.3,0.2
		c0.1,0.1,0.2,0.2,0.2,0.3c0.1,0.1,0.1,0.3,0.1,0.4c0,0.1,0,0.3-0.1,0.4c-0.1,0.1-0.1,0.2-0.2,0.3c-0.1,0.1-0.2,0.2-0.3,0.2
		c-0.1,0.1-0.3,0.1-0.4,0.1c-0.2,0-0.3,0-0.4-0.1c-0.1-0.1-0.2-0.1-0.3-0.2c-0.1-0.1-0.2-0.2-0.2-0.3
		C-54.7,399.1-54.8,399-54.8,398.8L-54.8,398.8z M-58.7,398.4c0-0.1,0-0.2,0.1-0.3c0-0.1,0.1-0.1,0.1-0.2c0.1-0.1,0.1-0.1,0.2-0.1
		c0.1,0,0.2-0.1,0.3-0.1c0.1,0,0.1,0,0.2,0c0.1,0,0.1,0,0.1,0c0.1,0,0.1,0,0.2,0v0.4c0,0,0,0-0.1,0s-0.1,0-0.1,0s-0.1,0-0.1,0
		c-0.1,0-0.1,0-0.1,0c-0.1,0-0.1,0-0.1,0c0,0-0.1,0-0.1,0l-0.1,0.1c0,0,0,0,0,0.1c0,0,0,0.1,0,0.1c0,0,0,0,0.1,0.1c0,0,0,0,0.1,0
		c0,0,0.1,0,0.1,0l0.1,0.1c0.1,0,0.1,0.1,0.2,0.1c0.1,0,0.1,0.1,0.1,0.1c0,0.1,0.1,0.1,0.1,0.2c0,0.1,0,0.1,0,0.2
		c0,0.1,0,0.2-0.1,0.3c-0.1,0.1-0.1,0.1-0.2,0.2c-0.1,0.1-0.2,0.1-0.3,0.1c-0.1,0-0.2,0-0.3,0h-0.2c-0.1,0-0.1,0-0.2,0
		c-0.1,0-0.1,0-0.1,0c0,0,0,0,0,0v-0.5c0,0,0,0,0.1,0c0,0,0.1,0,0.1,0c0,0,0.1,0,0.1,0h0.2h0.2c0.1,0,0.1,0,0.1,0c0,0,0.1,0,0.1-0.1
		c0,0,0-0.1,0-0.1c0,0,0,0,0-0.1c0,0,0,0,0-0.1c0,0,0,0-0.1,0l-0.1,0c0,0,0,0,0,0s0,0,0,0c0,0,0,0,0,0c0,0,0,0,0,0
		c-0.1,0-0.1,0-0.2-0.1c-0.1,0-0.1-0.1-0.2-0.1c-0.1-0.1-0.1-0.1-0.1-0.2C-58.7,398.6-58.7,398.5-58.7,398.4L-58.7,398.4z
		 M-63.3,395.7v0.6c0,0,0,0.1,0,0.1c0,0,0,0.1,0.1,0.1c0,0,0.1,0.1,0.1,0.1c0,0,0.1,0,0.1,0c0,0,0.1,0,0.1,0c0,0,0.1,0,0.1-0.1
		c0,0,0-0.1,0.1-0.1c0,0,0-0.1,0-0.1v-0.6c0,0,0-0.1,0-0.1c0,0,0-0.1-0.1-0.1c0,0-0.1,0-0.1-0.1c0,0-0.1,0-0.1,0c0,0-0.1,0-0.1,0
		c0,0-0.1,0-0.1,0.1c0,0-0.1,0.1-0.1,0.1C-63.3,395.6-63.3,395.6-63.3,395.7L-63.3,395.7z M-57.7,395.7v0.6c0,0,0,0.1,0,0.1
		c0,0,0,0.1,0.1,0.1c0,0,0.1,0.1,0.1,0.1c0,0,0.1,0,0.1,0c0,0,0.1,0,0.1,0c0,0,0.1,0,0.1-0.1c0,0,0.1-0.1,0.1-0.1c0,0,0-0.1,0-0.1
		v-0.6c0,0,0-0.1,0-0.1c0,0,0-0.1-0.1-0.1c0,0-0.1,0-0.1-0.1c0,0-0.1,0-0.1,0c-0.1,0-0.1,0-0.1,0c0,0-0.1,0-0.1,0.1
		c0,0,0,0.1-0.1,0.1C-57.7,395.6-57.7,395.6-57.7,395.7L-57.7,395.7z M-52.1,395.7v0.6c0,0,0,0.1,0,0.1c0,0,0,0.1,0.1,0.1
		c0,0,0.1,0.1,0.1,0.1c0,0,0.1,0,0.1,0c0,0,0.1,0,0.1,0c0,0,0.1,0,0.1-0.1c0,0,0-0.1,0.1-0.1c0,0,0-0.1,0-0.1v-0.6c0,0,0-0.1,0-0.1
		c0,0,0-0.1-0.1-0.1c0,0-0.1,0-0.1-0.1c0,0-0.1,0-0.1,0c0,0-0.1,0-0.1,0c0,0-0.1,0-0.1,0.1c0,0,0,0.1-0.1,0.1
		C-52.1,395.6-52.1,395.6-52.1,395.7L-52.1,395.7z M-54.9,394.1v2.7c0,0,0,0.1,0,0.1c0,0,0,0.1,0.1,0.1c0,0,0.1,0,0.1,0.1
		c0,0,0.1,0,0.1,0c0,0,0.1,0,0.1,0c0,0,0.1,0,0.1-0.1c0,0,0-0.1,0.1-0.1c0,0,0-0.1,0-0.1v-2.7c0,0,0-0.1,0-0.1c0,0,0-0.1-0.1-0.1
		c0,0-0.1,0-0.1-0.1c0,0-0.1,0-0.1,0c0,0-0.1,0-0.1,0c0,0-0.1,0-0.1,0.1c0,0-0.1,0.1-0.1,0.1C-54.9,394-54.9,394-54.9,394.1
		L-54.9,394.1z M-60.5,394.1v2.7c0,0,0,0.1,0,0.1c0,0,0,0.1,0.1,0.1c0,0,0.1,0,0.1,0.1c0,0,0.1,0,0.1,0c0,0,0.1,0,0.1,0
		c0,0,0.1,0,0.1-0.1c0,0,0-0.1,0.1-0.1c0,0,0-0.1,0-0.1v-2.7c0,0,0-0.1,0-0.1c0,0,0-0.1-0.1-0.1c0,0-0.1,0-0.1-0.1c0,0-0.1,0-0.1,0
		c-0.1,0-0.1,0-0.1,0c0,0-0.1,0-0.1,0.1c0,0-0.1,0.1-0.1,0.1C-60.5,394-60.5,394-60.5,394.1L-60.5,394.1z M-61.9,394.9v1.3
		c0,0,0,0.1,0,0.1c0,0,0,0.1,0.1,0.1c0,0,0.1,0.1,0.1,0.1c0,0,0.1,0,0.1,0c0,0,0.1,0,0.1,0c0,0,0.1,0,0.1-0.1c0,0,0-0.1,0.1-0.1
		c0,0,0-0.1,0-0.1v-1.3c0,0,0-0.1,0-0.1c0,0,0-0.1-0.1-0.1c0,0-0.1,0-0.1-0.1c0,0-0.1,0-0.1,0c0,0-0.1,0-0.1,0c0,0-0.1,0-0.1,0.1
		C-61.8,394.8-61.8,394.8-61.9,394.9C-61.9,394.9-61.9,394.9-61.9,394.9L-61.9,394.9z M-59.1,394.9v1.3c0,0,0,0.1,0,0.1
		c0,0,0,0.1,0.1,0.1c0,0,0.1,0.1,0.1,0.1c0,0,0.1,0,0.1,0c0,0,0.1,0,0.1,0c0,0,0.1,0,0.1-0.1c0,0,0-0.1,0.1-0.1c0,0,0-0.1,0-0.1
		v-1.3c0,0,0-0.1,0-0.1c0,0,0-0.1-0.1-0.1c0,0-0.1,0-0.1-0.1c0,0-0.1,0-0.1,0c-0.1,0-0.1,0-0.1,0c0,0-0.1,0-0.1,0.1
		C-59,394.8-59,394.8-59.1,394.9C-59.1,394.9-59.1,394.9-59.1,394.9L-59.1,394.9z M-56.3,394.9v1.3c0,0,0,0.1,0,0.1
		c0,0,0,0.1,0.1,0.1c0,0,0.1,0.1,0.1,0.1c0,0,0.1,0,0.1,0c0,0,0.1,0,0.1,0c0,0,0.1,0,0.1-0.1c0,0,0-0.1,0.1-0.1c0,0,0-0.1,0-0.1
		v-1.3c0,0,0-0.1,0-0.1c0,0,0-0.1-0.1-0.1c0,0-0.1,0-0.1-0.1c0,0-0.1,0-0.1,0c-0.1,0-0.1,0-0.1,0c0,0-0.1,0-0.1,0.1
		C-56.2,394.8-56.3,394.8-56.3,394.9C-56.3,394.9-56.3,394.9-56.3,394.9L-56.3,394.9z M-53.5,394.9v1.3c0,0,0,0.1,0,0.1
		c0,0,0,0.1,0.1,0.1c0,0,0.1,0.1,0.1,0.1c0,0,0.1,0,0.1,0c0,0,0.1,0,0.1,0c0,0,0.1,0,0.1-0.1c0,0,0-0.1,0.1-0.1c0,0,0-0.1,0-0.1
		v-1.3c0,0,0-0.1,0-0.1c0,0,0-0.1-0.1-0.1c0,0-0.1,0-0.1-0.1c0,0-0.1,0-0.1,0c0,0-0.1,0-0.1,0c0,0-0.1,0-0.1,0.1
		C-53.4,394.8-53.5,394.8-53.5,394.9C-53.5,394.9-53.5,394.9-53.5,394.9L-53.5,394.9z"/>
</g>
<path fill="none" d="z"/>
</svg>
