<?xml version="1.0" encoding="UTF-8"?>
<svg width="86px" height="76px" viewBox="0 0 86 76" version="1.1" xmlns="http://www.w3.org/2000/svg" xmlns:xlink="http://www.w3.org/1999/xlink">
    <!-- Generator: Sketch 49 (51002) - http://www.bohemiancoding.com/sketch -->
    <title>illustration A</title>
    <desc>Created with Sketch.</desc>
    <defs></defs>
    <g id="Page-1" stroke="none" stroke-width="1" fill="none" fill-rule="evenodd">
        <g id="proposed---choose-a-place-type" transform="translate(-448.000000, -339.000000)" fill="#000000">
            <g id="illustration-A" transform="translate(448.000000, 339.000000)">
                <path d="M55,46 C56.654,46 58,47.346 58,49 C58,50.654 56.654,52 55,52 C53.346,52 52,50.654 52,49 C52,47.346 53.346,46 55,46 M55,4 C53.896,4 53,3.104 53,2 C53,0.896 53.896,0 55,0 C56.104,0 57,0.896 57,2 C57,3.104 56.104,4 55,4 Z M55,1 C54.448,1 54,1.448 54,2 C54,2.552 54.448,3 55,3 C55.552,3 56,2.552 56,2 C56,1.448 55.552,1 55,1 Z M78.5,6 C82.636,6 86,9.364 86,13.5 L86,39 L86,40 L86,68.5 C86,72.636 82.636,76 78.5,76 L31.5,76 C28.306,76 25.579,73.989 24.5,71.171 C23.421,73.989 20.694,76 17.5,76 L7.5,76 C3.364,76 0,72.636 0,68.5 L0,22.5 C0,18.364 3.364,15 7.5,15 L17.5,15 C20.279,15 22.704,16.522 24,18.774 L24,13.5 C24,9.364 27.364,6 31.5,6 L78.5,6 Z M25,39 L85,39 L85,13.5 C85,9.916 82.084,7 78.5,7 L31.5,7 C27.916,7 25,9.916 25,13.5 L25,22.5 L25,39 Z M85,68.5 L85,40 L25,40 L25,68.5 C25,72.084 27.916,75 31.5,75 L78.5,75 C82.084,75 85,72.084 85,68.5 Z M55,53 C52.791,53 51,51.209 51,49 C51,46.791 52.791,45 55,45 C57.209,45 59,46.791 59,49 C59,51.209 57.209,53 55,53 Z M56.5,57 C57.325,57 58,57.675 58,58.5 C58,59.325 57.325,60 56.5,60 L53.5,60 C52.675,60 52,59.325 52,58.5 C52,57.675 52.675,57 53.5,57 L56.5,57 Z M56.5,59 C56.771,59 57,58.771 57,58.5 C57,58.229 56.771,58 56.5,58 L53.5,58 C53.229,58 53,58.229 53,58.5 C53,58.771 53.229,59 53.5,59 L56.5,59 Z M45.5,60 C44.675,60 44,59.325 44,58.5 C44,57.675 44.675,57 45.5,57 L48.5,57 C49.325,57 50,57.675 50,58.5 C50,59.325 49.325,60 48.5,60 L45.5,60 Z M45.5,58 C45.229,58 45,58.229 45,58.5 C45,58.771 45.229,59 45.5,59 L48.5,59 C48.771,59 49,58.771 49,58.5 C49,58.229 48.771,58 48.5,58 L45.5,58 Z M61.5,60 C60.675,60 60,59.325 60,58.5 C60,57.675 60.675,57 61.5,57 L64.5,57 C65.325,57 66,57.675 66,58.5 C66,59.325 65.325,60 64.5,60 L61.5,60 Z M61.5,58 C61.229,58 61,58.229 61,58.5 C61,58.771 61.229,59 61.5,59 L64.5,59 C64.771,59 65,58.771 65,58.5 C65,58.229 64.771,58 64.5,58 L61.5,58 Z M56.5,62 C57.325,62 58,62.675 58,63.5 C58,64.325 57.325,65 56.5,65 L53.5,65 C52.675,65 52,64.325 52,63.5 C52,62.675 52.675,62 53.5,62 L56.5,62 Z M56.5,64 C56.771,64 57,63.771 57,63.5 C57,63.229 56.771,63 56.5,63 L53.5,63 C53.229,63 53,63.229 53,63.5 C53,63.771 53.229,64 53.5,64 L56.5,64 Z M45.5,65 C44.675,65 44,64.325 44,63.5 C44,62.675 44.675,62 45.5,62 L48.5,62 C49.325,62 50,62.675 50,63.5 C50,64.325 49.325,65 48.5,65 L45.5,65 Z M45.5,63 C45.229,63 45,63.229 45,63.5 C45,63.771 45.229,64 45.5,64 L48.5,64 C48.771,64 49,63.771 49,63.5 C49,63.229 48.771,63 48.5,63 L45.5,63 Z M61.5,65 C60.675,65 60,64.325 60,63.5 C60,62.675 60.675,62 61.5,62 L64.5,62 C65.325,62 66,62.675 66,63.5 C66,64.325 65.325,65 64.5,65 L61.5,65 Z M61.5,63 C61.229,63 61,63.229 61,63.5 C61,63.771 61.229,64 61.5,64 L64.5,64 C64.771,64 65,63.771 65,63.5 C65,63.229 64.771,63 64.5,63 L61.5,63 Z M56.5,67 C57.325,67 58,67.675 58,68.5 C58,69.325 57.325,70 56.5,70 L53.5,70 C52.675,70 52,69.325 52,68.5 C52,67.675 52.675,67 53.5,67 L56.5,67 Z M56.5,69 C56.771,69 57,68.771 57,68.5 C57,68.229 56.771,68 56.5,68 L53.5,68 C53.229,68 53,68.229 53,68.5 C53,68.771 53.229,69 53.5,69 L56.5,69 Z M45.5,70 C44.675,70 44,69.325 44,68.5 C44,67.675 44.675,67 45.5,67 L48.5,67 C49.325,67 50,67.675 50,68.5 C50,69.325 49.325,70 48.5,70 L45.5,70 Z M45.5,68 C45.229,68 45,68.229 45,68.5 C45,68.771 45.229,69 45.5,69 L48.5,69 C48.771,69 49,68.771 49,68.5 C49,68.229 48.771,68 48.5,68 L45.5,68 Z M61.5,70 C60.675,70 60,69.325 60,68.5 C60,67.675 60.675,67 61.5,67 L64.5,67 C65.325,67 66,67.675 66,68.5 C66,69.325 65.325,70 64.5,70 L61.5,70 Z M61.5,68 C61.229,68 61,68.229 61,68.5 C61,68.771 61.229,69 61.5,69 L64.5,69 C64.771,69 65,68.771 65,68.5 C65,68.229 64.771,68 64.5,68 L61.5,68 Z M17.5,75 C21.084,75 24,72.084 24,68.5 L24,40 L24,39 L24,22.5 C24,18.916 21.084,16 17.5,16 L7.5,16 C3.916,16 1,18.916 1,22.5 L1,68.5 C1,72.084 3.916,75 7.5,75 L17.5,75 Z M17,18 C19.762,18 22,20.238 22,23 L22,68 C22,70.762 19.762,73 17,73 L8,73 C5.238,73 3,70.762 3,68 L3,23 C3,20.238 5.238,18 8,18 L17,18 Z M21,68 L21,23 C21,20.794 19.206,19 17,19 L13,19 L13,23.506 C13,23.782 12.776,24.006 12.5,24.006 C12.224,24.006 12,23.782 12,23.506 L12,19 L8,19 C5.794,19 4,20.794 4,23 L4,68 C4,70.205 5.794,72 8,72 L17,72 C19.206,72 21,70.205 21,68 Z" id="fill"></path>
            </g>
        </g>
    </g>
</svg>