<?xml version="1.0" encoding="UTF-8"?>
<svg width="260px" height="110px" viewBox="0 0 260 110" version="1.1" xmlns="http://www.w3.org/2000/svg" xmlns:xlink="http://www.w3.org/1999/xlink">
    <!-- Generator: Sketch 49 (51002) - http://www.bohemiancoding.com/sketch -->
    <title>illustration B</title>
    <desc>Created with Sketch.</desc>
    <defs></defs>
    <g id="Page-1" stroke="none" stroke-width="1" fill="none" fill-rule="evenodd">
        <g id="proposed---choose-a-place-type" transform="translate(-820.000000, -322.000000)" fill="#000000">
            <g id="illustration-B" transform="translate(820.000000, 322.000000)">
                <path d="M68,104 C68,106.757 65.757,109 63,109 L6,109 C3.243,109 1,106.757 1,104 L1,76 C1,73.243 3.243,71 6,71 L63,71 C65.757,71 68,73.243 68,76 L68,104 Z M63,70 C66.313,70 69,72.687 69,76 L69,104 C69,107.313 66.313,110 63,110 L6,110 C2.687,110 0,107.313 0,104 L0,76 C0,72.687 2.687,70 6,70 L63,70 Z M61.5,104 C60.673,104 60,103.327 60,102.5 C60,101.673 60.673,101 61.5,101 C62.327,101 63,101.673 63,102.5 C63,103.327 62.327,104 61.5,104 Z M61.5,100 C60.119,100 59,101.119 59,102.5 C59,103.881 60.119,105 61.5,105 C62.881,105 64,103.881 64,102.5 C64,101.119 62.881,100 61.5,100 Z M111,102 C111,100.343 112.343,99 114,99 C115.657,99 117,100.343 117,102 C117,103.657 115.657,105 114,105 C112.343,105 111,103.657 111,102 Z M116,102 C116,100.897 115.103,100 114,100 C112.897,100 112,100.897 112,102 C112,103.103 112.897,104 114,104 C115.103,104 116,103.103 116,102 Z M120,8 C120,9.65 118.65,11 117,11 L111,11 C109.35,11 108,9.65 108,8 C108,6.35 109.35,5 111,5 L117,5 C118.65,5 120,6.35 120,8 Z M109,8 C109,9.103 109.897,10 111,10 L117,10 C118.103,10 119,9.103 119,8 C119,6.897 118.103,6 117,6 L111,6 C109.897,6 109,6.897 109,8 Z M231,52 C234.3,52 237,54.7 237,58 L237,88 L237,89 L237,104 C237,107.3 234.3,110 231,110 L183,110 C179.7,110 177,107.3 177,104 L177,89 L177,88 L177,58 C177,54.7 179.7,52 183,52 L231,52 Z M236,88 L236,58 C236,55.243 233.757,53 231,53 L183,53 C180.243,53 178,55.243 178,58 L178,88 L236,88 Z M236,104 L236,89 L178,89 L178,104 C178,106.757 180.243,109 183,109 L231,109 C233.757,109 236,106.757 236,104 Z M206,50 C204.343,50 203,48.657 203,47 C203,45.343 204.343,44 206,44 C207.657,44 209,45.343 209,47 C209,48.657 207.657,50 206,50 Z M206,45 C204.897,45 204,45.897 204,47 C204,48.103 204.897,49 206,49 C207.103,49 208,48.103 208,47 C208,45.897 207.103,45 206,45 Z M231,81 C232.104,81 233,81.896 233,83 C233,84.104 232.104,85 231,85 C229.896,85 229,84.104 229,83 C229,81.896 229.896,81 231,81 Z M231,84 C231.552,84 232,83.551 232,83 C232,82.449 231.552,82 231,82 C230.448,82 230,82.449 230,83 C230,83.551 230.448,84 231,84 Z M225,81 C226.1,81 227,81.9 227,83 C227,84.1 226.1,85 225,85 L222,85 C220.9,85 220,84.1 220,83 C220,81.9 220.9,81 222,81 L225,81 Z M225,84 C225.552,84 226,83.551 226,83 C226,82.449 225.552,82 225,82 L222,82 C221.448,82 221,82.449 221,83 C221,83.551 221.448,84 222,84 L225,84 Z M259.6113,102.5346 C260.9033,105.7236 258.8363,109.2766 255.4793,109.6626 C253.7473,109.8616 251.8713,109.9886 249.8703,109.9986 C249.7773,109.9996 249.6853,109.9996 249.5933,109.9996 C247.3973,109.9996 245.3503,109.8596 243.4773,109.6356 C240.1873,109.2426 238.1503,105.7796 239.3443,102.6226 C239.9823,100.9376 240.7953,99.1276 241.8343,97.2586 C242.9323,95.2826 244.1073,93.5586 245.2653,92.0726 C245.7563,91.4406 246.3523,90.9616 247.0003,90.6196 L247.0003,82.2996 C247.0003,81.5826 247.6233,80.9996 248.3883,80.9996 L250.6113,80.9996 C251.3773,80.9996 252.0003,81.5826 252.0003,82.2996 L252.0003,90.6506 C252.6613,91.0086 253.2663,91.5096 253.7593,92.1676 C254.8743,93.6536 256.0033,95.3476 257.0753,97.2586 C258.1033,99.0916 258.9353,100.8676 259.6113,102.5346 Z M258.4023,106.6836 C259.0863,105.5316 259.1893,104.1566 258.6843,102.9106 C257.9683,101.1426 257.1333,99.4066 256.2033,97.7476 C255.2353,96.0226 254.1433,94.3476 252.9603,92.7676 C252.1173,91.6436 250.8443,90.9996 249.4683,90.9996 C248.1333,90.9996 246.8893,91.6146 246.0543,92.6866 C244.8153,94.2776 243.6893,95.9786 242.7083,97.7456 C241.7773,99.4186 240.9603,101.1796 240.2803,102.9766 C239.8103,104.2166 239.9343,105.5756 240.6193,106.7046 C241.2763,107.7886 242.3613,108.4956 243.5963,108.6426 C245.5803,108.8796 247.5973,108.9996 249.5933,108.9996 L249.8653,108.9986 C251.6953,108.9896 253.5463,108.8776 255.3653,108.6686 C256.6323,108.5236 257.7403,107.7996 258.4023,106.6836 Z M248.0003,82.2996 L248.0003,90.2156 C248.4793,90.0776 248.9733,89.9996 249.4683,89.9996 C249.9853,89.9996 250.5013,90.0836 251.0003,90.2336 L251.0003,82.2996 C251.0003,82.1376 250.8223,81.9996 250.6113,81.9996 L248.3883,81.9996 C248.1773,81.9996 248.0003,82.1376 248.0003,82.2996 Z M249.5,96 C252.537,96 255,98.463 255,101.5 C255,104.537 252.537,107 249.5,107 C246.463,107 244,104.537 244,101.5 C244,98.463 246.463,96 249.5,96 Z M249.5,106 C251.981,106 254,103.981 254,101.5 C254,99.019 251.981,97 249.5,97 C247.019,97 245,99.019 245,101.5 C245,103.981 247.019,106 249.5,106 Z M39.5,106 L38.498,106 C41.176,104.569 43,101.749 43,98.5 C43,95.251 41.176,92.431 38.498,91 L39.5,91 C43.636,91 47,94.364 47,98.5 C47,102.636 43.636,106 39.5,106 Z M27,98.5 C27,94.364 30.364,91 34.5,91 C38.636,91 42,94.364 42,98.5 C42,102.636 38.636,106 34.5,106 C30.364,106 27,102.636 27,98.5 Z M29.5,106 C25.364,106 22,102.636 22,98.5 C22,94.364 25.364,91 29.5,91 L30.502,91 C27.824,92.431 26,95.251 26,98.5 C26,101.749 27.824,104.569 30.502,106 L29.5,106 Z M39.5,90 L29.5,90 C24.825,90 21,93.825 21,98.5 C21,103.175 24.825,107 29.5,107 L39.5,107 C44.175,107 48,103.175 48,98.5 C48,93.825 44.175,90 39.5,90 Z M34.5,65 C34.225,65 34,64.775 34,64.5 L34,10 C34,4.477 38.477,0 44,0 L184,0 C189.522,0 194,4.477 194,10 L194,46.5 C194,46.775 193.775,47 193.5,47 C193.225,47 193,46.775 193,46.5 L193,10 C193,5.037 188.963,1 184,1 L44,1 C39.038,1 35,5.037 35,10 L35,64.5 C35,64.775 34.775,65 34.5,65 Z M171.5,109 C171.775,109 172,109.225 172,109.5 C172,109.775 171.775,110 171.5,110 L74.5,110 C74.225,110 74,109.775 74,109.5 C74,109.225 74.225,109 74.5,109 L171.5,109 Z" id="fill"></path>
            </g>
        </g>
    </g>
</svg>