<?xml version="1.0" encoding="UTF-8"?>
<svg width="312px" height="48px" viewBox="0 0 312 48" version="1.1" xmlns="http://www.w3.org/2000/svg" xmlns:xlink="http://www.w3.org/1999/xlink">
    <!-- Generator: Sketch 51.2 (57519) - http://www.bohemiancoding.com/sketch -->
    <title>_template/site/black</title>
    <desc>Created with Sketch.</desc>
    <defs></defs>
    <g id="Symbols" stroke="none" stroke-width="1" fill="none" fill-rule="evenodd">
        <g id="_template/site/black" fill="#000000">
            <g>
                <g id="LOGO/cisco_webex_lockup_black">
                    <g>
                        <path d="M100.836285,0.390243902 L101.907554,0.390243902 L96.6196904,19.1756098 L95.0543653,19.1756098 L89.8447678,1.35609756 L84.6645201,19.1756098 L83.0404954,19.1756098 L77.7770898,0.390243902 L78.9559752,0.390243902 L83.9014241,18.2097561 L89.0865635,0.390243902 L90.6812384,0.390243902 L95.8370279,18.1609756 L100.836285,0.390243902 Z M113.368669,15.5512195 L114.518204,15.5512195 C114.214816,16.8096866 113.437014,17.903271 112.346316,18.604878 C109.706687,20.2381563 106.27322,19.7534252 104.19195,17.4536585 C103.132095,16.1853659 102.600537,14.499187 102.597276,12.395122 C102.597276,9.99512195 103.259278,8.14146341 104.583282,6.83414634 C105.671419,5.75445874 107.158038,5.17028793 108.69226,5.2195122 C110.445161,5.14497062 112.128321,5.90989484 113.22192,7.27804878 C114.262208,8.59837398 114.783983,10.3869919 114.787245,12.6439024 L103.702786,12.6439024 C103.771269,14.7317073 104.381094,16.3056911 105.53226,17.3658537 C106.487746,18.2125787 107.732664,18.6613199 109.010217,18.6195122 C110.064306,18.6586586 111.100065,18.3367442 111.945201,17.7073171 C112.651222,17.1704582 113.153189,16.4101394 113.368669,15.5512195 Z M103.702786,11.7414634 L113.618142,11.7414634 C113.530093,9.8097561 112.95451,8.34634146 111.891393,7.35121951 C111.02646,6.5293204 109.866802,6.08818758 108.672693,6.12682927 C107.294561,6.08929755 105.978376,6.69771815 105.116471,7.77073171 C104.212693,8.89912167 103.714879,10.2973723 103.702786,11.7414634 Z M118.832632,19.1756098 L117.947245,19.1756098 L117.947245,0.390243902 L119.042972,0.390243902 L119.042972,8.32195122 C119.468875,7.36571876 120.170416,6.5574533 121.058328,6 C121.906574,5.4756251 122.887796,5.20476137 123.885697,5.2195122 C125.540522,5.13546012 127.131865,5.86424156 128.146316,7.17073171 C129.069205,8.3902439 129.532281,10.0682927 129.535542,12.204878 C129.535542,14.7121951 128.915934,16.6260163 127.676718,17.9463415 C126.477806,19.2504946 124.697567,19.8594781 122.948339,19.5638227 C121.199112,19.2681672 119.719528,18.1082066 119.018514,16.4829268 L118.832632,19.1756098 Z M123.699814,6.13170732 C122.363057,6.08803563 121.087551,6.69130912 120.275666,7.75121951 C119.385387,8.84390244 118.940248,10.4 118.940248,12.4195122 C118.940248,14.5756098 119.445717,16.2113821 120.456656,17.3268293 C121.370899,18.2517922 122.645828,18.7305494 123.944793,18.636683 C125.243758,18.5428166 126.436153,17.8857647 127.207121,16.8390244 C128.00935,15.6943089 128.410464,14.1463415 128.410464,12.195122 C128.410464,10.0520325 127.913148,8.4601626 126.918514,7.4195122 C126.08195,6.54759702 124.908713,6.0781836 123.699814,6.13170732 Z M142.591331,15.5512195 L143.740867,15.5512195 C143.437479,16.8096866 142.659676,17.903271 141.568978,18.604878 C138.928704,20.2429796 135.490653,19.7578925 133.409721,17.4536585 C132.343344,16.1853659 131.810155,14.499187 131.810155,12.395122 C131.810155,9.99512195 132.473787,8.14146341 133.801053,6.83414634 C134.88736,5.75472075 136.372394,5.17047714 137.905139,5.2195122 C139.658353,5.14336867 141.342207,5.9086085 142.434799,7.27804878 C143.48161,8.59837398 144.005015,10.3869919 144.005015,12.6439024 L132.910774,12.6439024 C132.979257,14.7317073 133.589082,16.3056911 134.740248,17.3658537 C135.697234,18.213321 136.943952,18.6620797 138.223096,18.6195122 C139.27708,18.6578693 140.312581,18.3360349 141.15808,17.7073171 C141.867749,17.1720149 142.373288,16.4115121 142.591331,15.5512195 Z M132.935232,11.7414634 L142.835913,11.7414634 C142.754386,9.8097561 142.178803,8.34634146 141.109164,7.35121951 C140.244831,6.52837249 139.084758,6.08708197 137.890464,6.12682927 C136.512332,6.08929755 135.196147,6.69771815 134.334241,7.77073171 C133.435731,8.90104273 132.943149,10.2991108 132.935232,11.7414634 Z M157.021672,5.6097561 L152.286563,12.0292683 L157.833684,19.1756098 L156.532508,19.1756098 L151.616409,12.8341463 L146.905759,19.2 L145.624149,19.2 L150.960929,12.0536585 L145.834489,5.6097561 L147.23839,5.6097561 L151.684892,11.2439024 L155.79387,5.6097561 L157.021672,5.6097561 Z" id="Webex" fill-rule="nonzero"></path>
                        <path d="M8.84408669,16.4878049 C11.3877399,16.4878049 12.7573994,15.0796748 12.953065,12.2634146 L17.4240248,12.2634146 C17.0979154,14.8195122 16.1195872,16.7154472 14.4890402,17.9512195 C13.0411146,19.0276423 11.1317441,19.5674797 8.76092879,19.5707317 C5.95312693,19.5707317 3.76330237,18.6390244 2.19145511,16.7756098 C0.730485036,15.0390244 0,12.699187 0,9.75609756 C0,6.4 0.916367389,3.8699187 2.74910217,2.16585366 C4.30138287,0.72195122 6.37706914,0 8.97616099,0 C11.3632817,0 13.3068937,0.634146341 14.8069969,1.90243902 C16.1717461,3.08916618 17.0553299,4.73174262 17.2919505,6.52195122 L12.8894737,6.52195122 C12.4003096,4.2097561 11.095872,3.05365854 8.97616099,3.05365854 C7.61405959,3.00020595 6.33399418,3.70228567 5.6498452,4.87804878 C4.93566563,5.99349593 4.57857585,7.6195122 4.57857585,9.75609756 C4.57857585,12.2439024 5.04980392,14.0617886 5.99226006,15.2097561 C6.69356036,16.0525954 7.74644637,16.5244472 8.84408669,16.4878049 Z M23.7048916,3.86341463 L19.3024149,3.86341463 L19.3024149,0.390243902 L23.7048916,0.390243902 L23.7048916,3.86341463 Z M23.5483591,19.1756098 L19.463839,19.1756098 L19.463839,5.6097561 L23.5483591,5.6097561 L23.5483591,19.1756098 Z M31.7956656,16.804878 C33.3120743,16.804878 34.0702786,16.3772358 34.0702786,15.5219512 C34.1000781,15.156332 33.9073595,14.8084806 33.5811146,14.6390244 C32.6933278,14.2951373 31.778797,14.0243139 30.8466873,13.8292683 C29.1541796,13.4292683 27.9426832,12.9333333 27.2121981,12.3414634 C26.3497907,11.6314815 25.873117,10.5578792 25.9256966,9.44390244 C25.8791256,8.1418375 26.5388383,6.9155349 27.6524458,6.23414634 C28.6796904,5.55609756 30.0982663,5.2195122 31.9424149,5.2195122 C33.7865635,5.2195122 35.3029721,5.63414634 36.4182663,6.46829268 C37.3489325,7.17577938 37.9707757,8.21338074 38.1547988,9.36585366 L34.0458204,9.36585366 C33.8501548,8.44227642 33.1001032,7.98211382 31.7956656,7.98536585 C30.5727554,7.98536585 29.9613003,8.35609756 29.9613003,9.10731707 C29.9575616,9.46843544 30.163425,9.79918266 30.4895975,9.95609756 C31.2266125,10.2859507 31.9975368,10.5345781 32.7886687,10.697561 L33.2778328,10.8292683 C34.4501604,11.0739758 35.5783524,11.4950498 36.6237152,12.0780488 C37.6333299,12.6903586 38.2335105,13.7978871 38.1939319,14.9756098 C38.2499812,16.3629258 37.5770759,17.6791168 36.4182663,18.4487805 C35.2980805,19.195122 33.7669969,19.5707317 31.8103406,19.5707317 C29.8536842,19.5707317 28.2883591,19.1268293 27.0996904,18.2390244 C26.141382,17.5455499 25.4934601,16.5054518 25.2946749,15.3414634 L29.4036533,15.3414634 C29.5014688,15.7907586 29.7883727,16.1763806 30.1912074,16.4 C30.6770451,16.683126 31.2332621,16.8234849 31.7956656,16.804878 Z M49.1854489,14.6634146 L53.4803096,14.6634146 C53.1865893,16.1479026 52.3341919,17.4639638 51.0980805,18.3414634 C49.7825896,19.2076852 48.2265429,19.6378658 46.6515789,19.5707317 C44.257936,19.5707317 42.4643344,18.8747967 41.270774,17.4829268 C40.2435294,16.2829268 39.7299071,14.6292683 39.7299071,12.5219512 C39.7299071,10.0861789 40.4440867,8.21626016 41.8724458,6.91219512 C43.2056808,5.74338456 44.9419447,5.13650628 46.7151703,5.2195122 C48.4099133,5.15637036 50.077007,5.66129149 51.4502786,6.65365854 C52.4778518,7.41673466 53.1854089,8.53247221 53.4362848,9.78536585 L49.1609907,9.78536585 C49.020191,9.26962345 48.7187123,8.81182912 48.3000619,8.47804878 C47.8892063,8.15555345 47.3798457,7.98336862 46.8570279,7.9902439 C44.9395046,7.9902439 43.980743,9.52845528 43.980743,12.604878 C43.980743,14.0878049 44.2775026,15.201626 44.8710217,15.9463415 C45.3141706,16.5007509 45.9896014,16.8195184 46.7004954,16.8097561 C47.9380805,16.804878 48.7696594,16.097561 49.1854489,14.6634146 Z M54.864644,12.3414634 C54.864644,9.87317073 55.5804541,8.02113821 57.0120743,6.78536585 C58.2317234,5.74146341 59.9144479,5.2195122 62.0602477,5.2195122 C64.5223736,5.2195122 66.3714138,5.90569106 67.6073684,7.27804878 C68.7096182,8.49756098 69.2591125,10.1853659 69.2558514,12.3414634 C69.2558514,14.8292683 68.5400413,16.699187 67.1084211,17.9512195 C65.8887719,19.0276423 64.2060475,19.5674797 62.0602477,19.5707317 C59.6535604,19.5707317 57.8224561,18.8747967 56.566935,17.4829268 C55.4320743,16.2341463 54.864644,14.5203252 54.864644,12.3414634 Z M59.0763467,12.3414634 C59.0763467,14.0292683 59.3731063,15.2292683 59.9666254,15.9414634 C60.4954337,16.5502511 61.2785472,16.8784973 62.0847059,16.8292683 C63.1836945,16.8292683 63.9598349,16.4471545 64.4131269,15.6829268 C64.8533746,14.9658537 65.0686068,13.8536585 65.0686068,12.3414634 C65.0686068,10.6390244 64.78,9.44390244 64.207678,8.76585366 C63.6471647,8.19254318 62.8609162,7.89606349 62.0602477,7.95609756 C61.1293254,7.87342445 60.2272783,8.30355826 59.7073684,9.07804878 C59.2866873,9.75772358 59.0763467,10.8455285 59.0763467,12.3414634 Z" id="Cisco" fill-rule="nonzero"></path>
                    </g>
                </g>
                <text id="for-Developers" font-family="CiscoSans" font-size="20" font-weight="normal" line-spacing="20">
                    <tspan x="0" y="48">eDiscovery Search and Extraction</tspan>
                </text>
            </g>
        </g>
    </g>
</svg>