<svg xmlns="http://www.w3.org/2000/svg" width="96" height="128" viewBox="0 0 96 128">
    <g fill="none" fill-rule="evenodd">
        <path d="M6.995 0h82v82h-82z"/>
        <path fill="#FFF" d="M84.435 35.449l-19.368-.432 4.084-4.144c1.682-1.708 2.242-4.884 1.235-7.066l-3.178-6.895c-1.003-2.178-3.186-2.548-4.85-.82l-6.452 6.695.104-12.332c.02-2.398-1.751-3.551-3.936-2.563l-7.215 3.263c-2.185.988-4.003 3.759-4.038 6.157l-.088 5.868L27.194 8.076c-1.601-1.786-3.709-1.456-4.686.735l-2.948 6.611c-.978 2.19-.46 5.438 1.147 7.218l10.506 11.625-4.98-.11c-2.398-.054-5.251 1.65-6.341 3.786l-3.33 6.528c-1.09 2.136-.021 3.953 2.375 4.038l11.782.417-10.563 10.96c-1.664 1.727-1.156 3.74 1.127 4.472l7.15 2.295c2.283.732 5.525-.066 7.212-1.774l4.53-4.597-.22 14.61c-.036 2.397 1.815 3.803 4.116 3.123l7.215-2.137c2.3-.68 4.197-3.203 4.217-5.598l.08-9.049 6.702 7.416c1.608 1.779 3.948 1.561 5.2-.48l3.225-5.27c1.252-2.047.967-5.181-.633-6.968l-5.192-5.798 13.035.46c2.397.085 5.131-1.648 6.076-3.853l3.077-7.182c.948-2.205-.24-4.052-2.638-4.105z"/>
        <path fill="#0C99D5" d="M83.996 46.738c-.946 2.204-3.679 3.938-6.076 3.853l-58.983-2.082c-2.397-.085-3.466-1.902-2.376-4.038l3.33-6.528c1.09-2.136 3.943-3.844 6.34-3.787l58.203 1.295c2.398.053 3.586 1.9 2.643 4.105l-3.08 7.182z" style="mix-blend-mode:multiply"/>
        <path fill="#D0D1D0" d="M55.503 70.277c-.02 2.399-1.921 4.918-4.217 5.599l-7.215 2.136c-2.3.68-4.152-.72-4.116-3.123l.867-57.576c.036-2.398 1.853-5.168 4.038-6.157l7.215-3.263c2.185-.988 3.956.166 3.936 2.563l-.508 59.821z" style="mix-blend-mode:multiply"/>
        <path fill="#A9DFF3" d="M67.482 68.156c-1.252 2.046-3.593 2.263-5.2.48L20.705 22.64c-1.608-1.78-2.124-5.027-1.147-7.218l2.95-6.612c.977-2.19 3.085-2.521 4.685-.736l42.88 47.846c1.601 1.786 1.886 4.921.633 6.967l-3.225 5.27z" style="mix-blend-mode:multiply"/>
        <path fill="#74BE45" d="M70.385 23.807c1.004 2.178.448 5.358-1.235 7.066L35.645 64.876c-1.682 1.708-4.929 2.507-7.212 1.774l-7.15-2.294c-2.283-.733-2.79-2.745-1.127-4.473l42.201-43.792c1.664-1.727 3.844-1.361 4.85.82l3.178 6.896z" style="mix-blend-mode:multiply"/>
        <path fill="#D7D7D8" d="M5.778 103.271c-2.73 0-4.75-2.113-4.75-5.634 0-3.803 2.038-5.845 4.732-5.845 2.216 0 3.829 1.109 4.236 3.222h.993c-.372-2.536-2.464-4.085-5.229-4.085-3.26 0-5.76 2.36-5.76 6.708 0 3.979 2.322 6.497 5.76 6.497 2.978 0 4.945-2.007 5.211-4.472H9.98c-.266 2.236-1.914 3.609-4.2 3.609zm8.472-10.775v-1.303h-1.152v1.303h1.152zm-.106 11.374v-9.156h-.957v9.156h.957zm8.348-2.412c0 .985-.904 1.901-2.605 1.901-1.578 0-2.588-.757-2.73-1.92h-.993c.213 1.585 1.542 2.695 3.705 2.695 2.269 0 3.616-1.268 3.616-2.73 0-1.584-1.1-2.306-3.457-2.746-1.967-.37-2.57-.863-2.57-1.866 0-.845.727-1.567 2.34-1.567 1.453 0 2.481.74 2.64 1.76h.993c-.265-1.549-1.683-2.535-3.598-2.535-2.233 0-3.35 1.057-3.35 2.43 0 1.444 1.117 2.236 2.996 2.553 2.091.37 3.013.845 3.013 2.025zm9.553-.282c-.23 1.285-1.329 2.148-2.765 2.148-1.701 0-3.137-1.233-3.137-3.926 0-2.817 1.383-4.155 3.155-4.155 1.4 0 2.428.792 2.659 2.007h1.045c-.3-1.708-1.772-2.8-3.74-2.8-2.286 0-4.111 1.673-4.111 4.912 0 3.117 1.807 4.772 4.094 4.772 2.056 0 3.527-1.25 3.81-2.958h-1.01zm2.677-1.884c0-3.222 1.86-4.842 4.253-4.842 2.446 0 4.237 1.638 4.237 4.842 0 3.187-1.79 4.842-4.219 4.842-2.41 0-4.271-1.69-4.271-4.842zm.992 0c0 2.694 1.418 4.067 3.261 4.067 1.897 0 3.244-1.373 3.244-4.067 0-2.711-1.365-4.067-3.244-4.067-1.878 0-3.26 1.373-3.26 4.067zm23.13 1.338c0 1.567-1.329 2.641-3.757 2.641-2.056 0-3.598-.898-3.935-2.641h-1.046c.408 2.236 2.34 3.504 4.98 3.504 3.085 0 4.769-1.567 4.769-3.54 0-1.971-1.17-3.08-4.573-3.855-2.942-.651-3.616-1.39-3.616-2.747 0-1.285 1.081-2.218 3.403-2.218 2.056 0 3.439.88 3.758 2.324h1.028c-.39-1.99-2.287-3.169-4.804-3.169-2.871 0-4.395 1.303-4.395 3.116 0 1.779 1.045 2.852 3.934 3.486 3.457.757 4.254 1.55 4.254 3.099zm3.332-5.916h.78l.16 1.708c.567-1.144 1.701-1.972 3.261-1.972 2.269 0 3.882 1.585 3.882 4.736 0 3.24-1.737 4.948-3.988 4.948-1.49 0-2.57-.775-3.137-1.902v4.807h-.958V94.714zm7.09 4.455c0-2.694-1.311-3.909-3.084-3.909-1.56 0-3.12 1.11-3.12 4.032 0 2.676 1.295 4.032 3.067 4.032 1.772 0 3.137-1.338 3.137-4.155zm3.917-2.078h-.992c.141-1.567 1.542-2.64 3.58-2.64 2.056 0 3.42 1.144 3.42 3.01v6.409h-.78l-.141-1.515c-.567.951-1.613 1.779-3.261 1.779-1.79 0-3.084-.969-3.084-2.588 0-1.567.957-2.518 3.545-2.94l2.765-.458v-.793c0-1.32-.94-2.13-2.517-2.13-1.471 0-2.41.757-2.535 1.866zm2.074 6.233c1.471 0 2.978-1.11 2.978-2.712v-1.707l-2.482.422c-2.198.37-2.836 1.057-2.836 2.148 0 1.233.957 1.849 2.34 1.849zm7.533.546v-5c0-2.201 1.152-3.504 2.499-3.504.372 0 .691.07 1.01.158v-.933a3.332 3.332 0 0 0-.957-.14c-1.152 0-2.092.633-2.588 2.024l-.142-1.76h-.78v9.155h.958zm6.044 0v-4.842l4.998 4.842h1.294l-5.318-5.16 4.733-3.996h-1.294l-4.413 3.733v-7.254h-.958v12.677h.958zM6.212 127.137c-2.73 0-4.75-2.112-4.75-5.634 0-3.803 2.039-5.845 4.733-5.845 2.215 0 3.828 1.11 4.236 3.222h.992c-.372-2.535-2.463-4.085-5.228-4.085-3.262 0-5.76 2.36-5.76 6.708 0 3.98 2.321 6.497 5.76 6.497 2.977 0 4.945-2.007 5.21-4.472h-.992c-.266 2.236-1.914 3.61-4.2 3.61zm6.877-3.979c0-3.222 1.861-4.841 4.254-4.841 2.446 0 4.236 1.637 4.236 4.841 0 3.187-1.79 4.842-4.218 4.842-2.41 0-4.272-1.69-4.272-4.842zm.993 0c0 2.694 1.418 4.067 3.261 4.067 1.897 0 3.244-1.373 3.244-4.067 0-2.711-1.365-4.067-3.244-4.067-1.879 0-3.261 1.374-3.261 4.067zm10.652 4.578v-5.687c0-1.796 1.418-2.923 2.8-2.923 1.543 0 2.446.88 2.446 2.412v6.198h.958v-6.233c0-1.99-1.241-3.186-3.19-3.186-1.26 0-2.429.633-3.067 1.83l-.106-1.566h-.798v9.155h.957zm12.3-8.328v-.827H34.89v-2.201h-.904l-.053 2.2h-1.33v.828h1.33v6.48c0 1.373.78 2.112 2.11 2.112.371 0 .744-.053 1.169-.176v-.775c-.479.124-.78.141-1.117.141-.744 0-1.205-.405-1.205-1.285v-6.497h2.145zm2.854 8.328v-5c0-2.201 1.152-3.504 2.5-3.504.372 0 .69.07 1.01.159v-.934a3.332 3.332 0 0 0-.957-.14c-1.153 0-2.092.633-2.588 2.024l-.142-1.76h-.78v9.155h.957zm4.378-4.578c0-3.222 1.861-4.841 4.254-4.841 2.446 0 4.236 1.637 4.236 4.841 0 3.187-1.79 4.842-4.218 4.842-2.41 0-4.272-1.69-4.272-4.842zm.993 0c0 2.694 1.418 4.067 3.26 4.067 1.897 0 3.244-1.373 3.244-4.067 0-2.711-1.364-4.067-3.243-4.067-1.879 0-3.261 1.374-3.261 4.067zm10.652-8.099h-.957v12.677h.957v-12.677zm16.36 0v5.775h-7.232v-5.775h-.993v12.677h.993v-6.021h7.231v6.02h1.01V115.06h-1.01zm3.74 3.522v6.197c0 2.166 1.346 3.222 3.154 3.222 1.152 0 2.357-.546 3.013-1.725l.124 1.46h.78v-9.154h-.957v5.616c0 1.69-1.134 2.993-2.747 2.993-1.471 0-2.41-.792-2.41-2.412v-6.197h-.958zm10.58 9.155h-.78v-12.677h.958v5.23c.585-1.145 1.701-1.972 3.243-1.972 2.287 0 3.882 1.584 3.882 4.736 0 3.24-1.72 4.947-3.953 4.947-1.524 0-2.623-.792-3.19-1.937l-.16 1.673zm6.31-4.701c0-2.694-1.294-3.909-3.084-3.909-1.56 0-3.12 1.11-3.12 4.032 0 2.676 1.295 4.032 3.103 4.032 1.772 0 3.101-1.338 3.101-4.155z"/>
    </g>
</svg>
