<?xml version="1.0" encoding="utf-8"?>
<!-- Generator: Adobe Illustrator 22.1.0, SVG Export Plug-In . SVG Version: 6.00 Build 0)  -->
<svg version="1.1" id="Layer_1" xmlns="http://www.w3.org/2000/svg" xmlns:xlink="http://www.w3.org/1999/xlink" x="0px" y="0px"
	 viewBox="0 0 24 24" style="enable-background:new 0 0 24 24;" xml:space="preserve">
<style type="text/css">
	.st0{fill:#0AB7D7;}
	.st1{fill:#FFFFFF;}
</style>
<title>Group 12</title>
<desc>Created with Sketch.</desc>
<circle id="Oval-2" class="st0" cx="12" cy="12" r="12"/>
<path id="_x33_" class="st1" d="M11.9,17.7c-2.2,0-3.6-1.1-3.9-2.9h1.3c0.3,1.2,1.2,1.9,2.6,1.9c1.6,0,2.7-0.9,2.7-2.3
	c0-1.6-1.2-2.3-2.4-2.3h-1v-1h1c1.1,0,2.1-0.7,2.1-2s-1.1-2-2.4-2c-1.4,0-2.3,0.7-2.5,1.8H8.1C8.4,7.1,9.9,6,11.9,6
	c1.9,0,3.5,1,3.5,2.9c0,1.3-0.8,2.2-2.1,2.6c1.3,0.2,2.4,1.2,2.4,2.9C15.8,16.4,14.2,17.7,11.9,17.7z"/>
</svg>
