<?xml version="1.0" encoding="UTF-8"?>
<svg width="120px" height="120px" viewBox="0 0 120 120" version="1.1" xmlns="http://www.w3.org/2000/svg" xmlns:xlink="http://www.w3.org/1999/xlink">
    <!-- Generator: Sketch 49.1 (51147) - http://www.bohemiancoding.com/sketch -->
    <title>img_codec-plus_72</title>
    <desc>Created with Sketch.</desc>
    <defs>
        <path d="M4.39776911,0 L105.602231,-2.77555756e-15 C105.750231,3.24397589e-15 105.882233,0.0930903309 105.931919,0.232501209 L110,11.6470588 L0,11.6470588 L4.06808133,0.232501209 C4.11776655,0.0930903309 4.24976907,2.0313619e-15 4.39776911,1.60982339e-15 Z" id="path-1"></path>
        <filter x="0.0%" y="-0.0%" width="100.0%" height="100.0%" filterUnits="objectBoundingBox" id="filter-2">
            <feOffset dx="0" dy="0" in="SourceAlpha" result="shadowOffsetInner1"></feOffset>
            <feComposite in="shadowOffsetInner1" in2="SourceAlpha" operator="arithmetic" k2="-1" k3="1" result="shadowInnerInner1"></feComposite>
            <feColorMatrix values="0 0 0 0 1   0 0 0 0 1   0 0 0 0 1  0 0 0 1 0" type="matrix" in="shadowInnerInner1"></feColorMatrix>
        </filter>
        <linearGradient x1="0%" y1="100%" x2="100%" y2="100%" id="linearGradient-3">
            <stop stop-color="#EFEFEF" offset="0%"></stop>
            <stop stop-color="#F7F7F7" offset="1.09095982%"></stop>
            <stop stop-color="#ECEBEB" offset="3.04408482%"></stop>
            <stop stop-color="#ECEBEB" offset="97.7518136%"></stop>
            <stop stop-color="#F7F7F7" offset="99.0534319%"></stop>
            <stop stop-color="#EFEFEF" offset="100%"></stop>
        </linearGradient>
        <rect id="path-4" x="0" y="11.6470588" width="110" height="6.35294118" rx="0.35"></rect>
    </defs>
    <g id="Page-1" stroke="none" stroke-width="1" fill="none" fill-rule="evenodd">
        <g id="Devices" transform="translate(-1136.000000, -1293.000000)">
            <g id="img_codec-plus_72" transform="translate(1136.000000, 1293.000000)">
                <g id="Device" transform="translate(5.000000, 52.000000)">
                    <g id="Group">
                        <g id="Rectangle">
                            <use fill="#F1F1F1" fill-rule="evenodd" xlink:href="#path-1"></use>
                            <use fill="black" fill-opacity="1" filter="url(#filter-2)" xlink:href="#path-1"></use>
                        </g>
                        <path d="M52.4942697,9.50273741 L52.4942697,8.10550952 L52.9982086,8.10550952 L52.9982086,9.50273741 L52.4942697,9.50273741 Z M57.0734357,8.50689499 C57.055221,8.50266097 56.8912891,8.43068256 56.6484269,8.43068256 C56.320563,8.43068256 56.0959155,8.59157547 56.0959155,8.80751069 C56.0959155,9.01497786 56.3144914,9.18010479 56.6484269,9.18010479 C56.8852175,9.18010479 57.055221,9.11236041 57.0734357,9.10389236 L57.0734357,9.47648647 C57.0127202,9.49342256 56.8366451,9.52729475 56.6119976,9.52729475 C56.0473431,9.52729475 55.5494756,9.2520832 55.5494756,8.80751069 C55.5494756,8.38834232 55.9987706,8.0834926 56.6119976,8.0834926 C56.8487882,8.0834926 57.0248633,8.12159881 57.0734357,8.13430089 L57.0734357,8.50689499 Z M51.7996839,8.50689499 C51.7814692,8.50266097 51.6175373,8.43068256 51.3746751,8.43068256 C51.0468112,8.43068256 50.8221637,8.59157547 50.8221637,8.80751069 C50.8221637,9.01497786 51.0407396,9.18010479 51.3746751,9.18010479 C51.6114657,9.18010479 51.7814692,9.11236041 51.7996839,9.10389236 L51.7996839,9.47648647 C51.7389683,9.49342256 51.5689648,9.52729475 51.3443173,9.52729475 C50.7735912,9.52729475 50.2757238,9.2520832 50.2757238,8.80751069 C50.2757238,8.38834232 50.7250188,8.0834926 51.3443173,8.0834926 C51.5811079,8.0834926 51.757183,8.12159881 51.7996839,8.13430089 L51.7996839,8.50689499 Z M59.7254905,8.80497027 C59.7254905,9.20296852 59.282267,9.52898836 58.6629685,9.52898836 C58.0497416,9.52898836 57.6065181,9.20296852 57.6065181,8.80497027 C57.6065181,8.40697203 58.0497416,8.08518621 58.6629685,8.08518621 C59.282267,8.08518621 59.7254905,8.40697203 59.7254905,8.80497027 Z M58.6629685,8.43661019 C58.3654624,8.43661019 58.1408149,8.60597115 58.1408149,8.80497027 C58.1408149,9.00820342 58.3654624,9.17333035 58.6629685,9.17333035 C58.9665462,9.17333035 59.1851222,9.00820342 59.1851222,8.80497027 C59.1851222,8.60597115 58.9665462,8.43661019 58.6629685,8.43661019 Z M54.9186412,8.42433152 C54.9125696,8.42433152 54.7000652,8.38199128 54.5239902,8.38199128 C54.3175573,8.38199128 54.2082694,8.42856555 54.2082694,8.49630993 C54.2082694,8.58099041 54.3600582,8.61062858 54.44506,8.62756467 L54.5786342,8.66143686 C54.9125696,8.73341527 55.0582869,8.89007415 55.0582869,9.05943511 C55.0582869,9.4108591 54.621135,9.52941176 54.2325556,9.52941176 C53.9593356,9.52941176 53.7104019,9.49130555 53.6800442,9.48707153 L53.6800442,9.16951973 C53.7286166,9.17798778 53.941121,9.22032802 54.1596969,9.22032802 C54.4147022,9.22032802 54.5300617,9.16951973 54.5300617,9.08907328 C54.5300617,9.0213289 54.4268453,8.97898866 54.2993427,8.95358451 C54.2750565,8.94511647 54.226484,8.93664842 54.1961262,8.92818037 C53.9107632,8.86467001 53.6739726,8.75035137 53.6739726,8.51748005 C53.6739726,8.25920459 53.9593356,8.08137559 54.4268453,8.08137559 C54.6697075,8.08137559 54.9004265,8.12371583 54.9186412,8.12794985 L54.9186412,8.42433152 Z M49.7420342,6.60708846 L49.7420342,6.97121452 C49.7420342,7.06859707 49.6206031,7.14904352 49.487029,7.14904352 C49.3473832,7.14904352 49.2380952,7.06859707 49.2380952,6.97121452 L49.2380952,6.60708846 C49.2380952,6.50970591 49.3473832,6.43349348 49.487029,6.43349348 C49.6206031,6.43349348 49.7420342,6.50970591 49.7420342,6.60708846 Z M51.1178484,6.12525654 L51.1178484,6.97206132 C51.1178484,7.06944387 51.0024888,7.14989033 50.8628431,7.14989033 C50.7292689,7.14989033 50.6139094,7.06944387 50.6139094,6.97206132 L50.6139094,6.12525654 C50.6139094,6.03210801 50.7292689,5.95166156 50.8628431,5.95166156 C51.0024888,5.95166156 51.1178484,6.03210801 51.1178484,6.12525654 Z M52.4960911,5.46771263 L52.4960911,7.3222151 C52.4960911,7.41536363 52.3807316,7.49581008 52.2410859,7.49581008 C52.1075117,7.49581008 51.9921521,7.41536363 51.9921521,7.3222151 L51.9921521,5.46771263 C51.9921521,5.37033008 52.1075117,5.29411765 52.2410859,5.29411765 C52.3807316,5.29411765 52.4960911,5.37033008 52.4960911,5.46771263 Z M53.8719053,6.12525654 L53.8719053,6.97206132 C53.8719053,7.06944387 53.7565457,7.14989033 53.6229715,7.14989033 C53.4833258,7.14989033 53.3679663,7.06944387 53.3679663,6.97206132 L53.3679663,6.12525654 C53.3679663,6.03210801 53.4833258,5.95166156 53.6229715,5.95166156 C53.7565457,5.95166156 53.8719053,6.03210801 53.8719053,6.12525654 Z M55.250148,6.60708846 L55.250148,6.97121452 C55.250148,7.06859707 55.1347885,7.14904352 54.9951428,7.14904352 C54.8615686,7.14904352 54.746209,7.06859707 54.746209,6.97121452 L54.746209,6.60708846 C54.746209,6.50970591 54.8615686,6.43349348 54.9951428,6.43349348 C55.1347885,6.43349348 55.250148,6.50970591 55.250148,6.60708846 Z M56.6259622,6.12525654 L56.6259622,6.97206132 C56.6259622,7.06944387 56.5106026,7.14989033 56.3709569,7.14989033 C56.2373827,7.14989033 56.1220232,7.06944387 56.1220232,6.97206132 L56.1220232,6.12525654 C56.1220232,6.03210801 56.2373827,5.95166156 56.3709569,5.95166156 C56.5106026,5.95166156 56.6259622,6.03210801 56.6259622,6.12525654 Z M58.0048121,5.46771263 L58.0048121,7.3222151 C58.0048121,7.41536363 57.8955241,7.49581008 57.7558784,7.49581008 C57.6162326,7.49581008 57.5008731,7.41536363 57.5008731,7.3222151 L57.5008731,5.46771263 C57.5008731,5.37033008 57.6162326,5.29411765 57.7558784,5.29411765 C57.8955241,5.29411765 58.0048121,5.37033008 58.0048121,5.46771263 Z M59.3860906,6.12525654 L59.3860906,6.97206132 C59.3860906,7.06944387 59.2707311,7.14989033 59.1310854,7.14989033 C58.9914396,7.14989033 58.8821516,7.06944387 58.8821516,6.97206132 L58.8821516,6.12525654 C58.8821516,6.03210801 58.9914396,5.95166156 59.1310854,5.95166156 C59.2707311,5.95166156 59.3860906,6.03210801 59.3860906,6.12525654 Z M60.7619048,6.60708846 L60.7619048,6.97121452 C60.7619048,7.06859707 60.6465452,7.14904352 60.512971,7.14904352 C60.3733253,7.14904352 60.2579658,7.06859707 60.2579658,6.97121452 L60.2579658,6.60708846 C60.2579658,6.50970591 60.3733253,6.43349348 60.512971,6.43349348 C60.6465452,6.43349348 60.7619048,6.50970591 60.7619048,6.60708846 Z" id="Combined-Shape" fill="#AEAEAE"></path>
                        <g id="Rectangle">
                            <use fill="url(#linearGradient-3)" xlink:href="#path-4"></use>
                            <use fill-opacity="0.04" fill="#000000" xlink:href="#path-4"></use>
                        </g>
                    </g>
                </g>
            </g>
        </g>
    </g>
</svg>