<?xml version="1.0" encoding="UTF-8"?>
<svg width="120px" height="120px" viewBox="0 0 120 120" version="1.1" xmlns="http://www.w3.org/2000/svg" xmlns:xlink="http://www.w3.org/1999/xlink">
    <!-- Generator: Sketch 49.1 (51147) - http://www.bohemiancoding.com/sketch -->
    <title>img_spark-share_72</title>
    <desc>Created with Sketch.</desc>
    <defs>
        <linearGradient x1="50%" y1="0%" x2="50%" y2="88.8875326%" id="linearGradient-1">
            <stop stop-color="#979797" offset="0%"></stop>
            <stop stop-color="#959595" offset="51.1380058%"></stop>
            <stop stop-color="#666666" offset="99.1194003%"></stop>
        </linearGradient>
        <rect id="path-2" x="33" y="0" width="12" height="36" rx="1.125"></rect>
        <filter x="-8.3%" y="-2.8%" width="116.7%" height="105.6%" filterUnits="objectBoundingBox" id="filter-3">
            <feGaussianBlur stdDeviation="0.5" in="SourceAlpha" result="shadowBlurInner1"></feGaussianBlur>
            <feOffset dx="-1" dy="0" in="shadowBlurInner1" result="shadowOffsetInner1"></feOffset>
            <feComposite in="shadowOffsetInner1" in2="SourceAlpha" operator="arithmetic" k2="-1" k3="1" result="shadowInnerInner1"></feComposite>
            <feColorMatrix values="0 0 0 0 0   0 0 0 0 0   0 0 0 0 0  0 0 0 0.24 0" type="matrix" in="shadowInnerInner1" result="shadowMatrixInner1"></feColorMatrix>
            <feOffset dx="1" dy="0" in="SourceAlpha" result="shadowOffsetInner2"></feOffset>
            <feComposite in="shadowOffsetInner2" in2="SourceAlpha" operator="arithmetic" k2="-1" k3="1" result="shadowInnerInner2"></feComposite>
            <feColorMatrix values="0 0 0 0 0   0 0 0 0 0   0 0 0 0 0  0 0 0 0.04 0" type="matrix" in="shadowInnerInner2" result="shadowMatrixInner2"></feColorMatrix>
            <feGaussianBlur stdDeviation="0.5" in="SourceAlpha" result="shadowBlurInner3"></feGaussianBlur>
            <feOffset dx="0" dy="1" in="shadowBlurInner3" result="shadowOffsetInner3"></feOffset>
            <feComposite in="shadowOffsetInner3" in2="SourceAlpha" operator="arithmetic" k2="-1" k3="1" result="shadowInnerInner3"></feComposite>
            <feColorMatrix values="0 0 0 0 1   0 0 0 0 1   0 0 0 0 1  0 0 0 0.32 0" type="matrix" in="shadowInnerInner3" result="shadowMatrixInner3"></feColorMatrix>
            <feMerge>
                <feMergeNode in="shadowMatrixInner1"></feMergeNode>
                <feMergeNode in="shadowMatrixInner2"></feMergeNode>
                <feMergeNode in="shadowMatrixInner3"></feMergeNode>
            </feMerge>
        </filter>
        <path d="M67.6207053,56.817 C59.0167053,41.6325 49.3372053,31.5 38.7247053,31.5 C28.1122053,31.5 18.4327053,41.6325 9.82870528,56.817 C1.22470528,72 -2.95429472,85.3095 2.35120528,94.5 C7.65670528,103.6905 16.2247053,106.866 38.7247053,106.866 C61.2247053,106.866 69.7912053,103.6905 75.0967053,94.5 C80.4037053,85.3095 76.2247053,72 67.6207053,56.817" id="path-4"></path>
        <filter x="0.0%" y="0.0%" width="100.0%" height="100.0%" filterUnits="objectBoundingBox" id="filter-5">
            <feOffset dx="0" dy="0" in="SourceAlpha" result="shadowOffsetInner1"></feOffset>
            <feComposite in="shadowOffsetInner1" in2="SourceAlpha" operator="arithmetic" k2="-1" k3="1" result="shadowInnerInner1"></feComposite>
            <feColorMatrix values="0 0 0 0 1   0 0 0 0 1   0 0 0 0 1  0 0 0 0.6 0" type="matrix" in="shadowInnerInner1"></feColorMatrix>
        </filter>
        <radialGradient cx="48.4081467%" cy="49.070728%" fx="48.4081467%" fy="49.070728%" r="50.2683585%" id="radialGradient-6">
            <stop stop-color="#EEEEEE" offset="0%"></stop>
            <stop stop-color="#E1E1E1" offset="100%"></stop>
        </radialGradient>
        <path d="M66,73.5 C66,88.4115 53.9115,100.5 39,100.5 C24.0885,100.5 12,88.4115 12,73.5 C12,58.5885 24.0885,46.5 39,46.5 C53.9115,46.5 66,58.5885 66,73.5" id="path-7"></path>
        <filter x="0.0%" y="0.0%" width="100.0%" height="100.0%" filterUnits="objectBoundingBox" id="filter-8">
            <feOffset dx="-0" dy="0" in="SourceAlpha" result="shadowOffsetInner1"></feOffset>
            <feComposite in="shadowOffsetInner1" in2="SourceAlpha" operator="arithmetic" k2="-1" k3="1" result="shadowInnerInner1"></feComposite>
            <feColorMatrix values="0 0 0 0 1   0 0 0 0 1   0 0 0 0 1  0 0 0 0.24 0" type="matrix" in="shadowInnerInner1" result="shadowMatrixInner1"></feColorMatrix>
            <feOffset dx="0" dy="0" in="SourceAlpha" result="shadowOffsetInner2"></feOffset>
            <feComposite in="shadowOffsetInner2" in2="SourceAlpha" operator="arithmetic" k2="-1" k3="1" result="shadowInnerInner2"></feComposite>
            <feColorMatrix values="0 0 0 0 0   0 0 0 0 0   0 0 0 0 0  0 0 0 0.04 0" type="matrix" in="shadowInnerInner2" result="shadowMatrixInner2"></feColorMatrix>
            <feMerge>
                <feMergeNode in="shadowMatrixInner1"></feMergeNode>
                <feMergeNode in="shadowMatrixInner2"></feMergeNode>
            </feMerge>
        </filter>
    </defs>
    <g id="Page-1" stroke="none" stroke-width="1" fill="none" fill-rule="evenodd">
        <g id="Devices" transform="translate(-1136.000000, -586.000000)">
            <g id="img_spark-share_72" transform="translate(1136.000000, 586.000000)">
                <g id="Page-1" transform="translate(21.000000, 6.000000)">
                    <g id="Rectangle">
                        <use fill="url(#linearGradient-1)" fill-rule="evenodd" xlink:href="#path-2"></use>
                        <use fill="black" fill-opacity="1" filter="url(#filter-3)" xlink:href="#path-2"></use>
                    </g>
                    <g id="Fill-1">
                        <use fill="" fill-rule="evenodd" xlink:href="#path-4"></use>
                        <use fill="black" fill-opacity="1" filter="url(#filter-5)" xlink:href="#path-4"></use>
                    </g>
                    <g id="Fill-5">
                        <use fill="url(#radialGradient-6)" fill-rule="evenodd" xlink:href="#path-7"></use>
                        <use fill="black" fill-opacity="1" filter="url(#filter-8)" xlink:href="#path-7"></use>
                    </g>
                    <path d="M34.9230111,79.4338698 L34.9230111,75.969909 L35.7429531,75.969909 L35.7429531,79.4338698 L34.9230111,79.4338698 Z M42.373617,76.9650105 C42.3439805,76.9545136 42.0772524,76.7760672 41.6820996,76.7760672 C41.1486433,76.7760672 40.783127,77.1749475 40.783127,77.7102869 C40.783127,78.2246326 41.1387645,78.6340098 41.6820996,78.6340098 C42.0673736,78.6340098 42.3439805,78.4660602 42.373617,78.4450665 L42.373617,79.3687894 C42.2748288,79.4107768 41.988343,79.4947516 41.6228267,79.4947516 C40.7040964,79.4947516 39.8940332,78.8124563 39.8940332,77.7102869 C39.8940332,76.6710987 40.6250659,75.9153254 41.6228267,75.9153254 C42.0081006,75.9153254 42.2945864,76.0097971 42.373617,76.0412876 L42.373617,76.9650105 Z M33.7928741,76.9650105 C33.7632376,76.9545136 33.4965095,76.7760672 33.1013567,76.7760672 C32.5679004,76.7760672 32.2023841,77.1749475 32.2023841,77.7102869 C32.2023841,78.2246326 32.5580216,78.6340098 33.1013567,78.6340098 C33.4866307,78.6340098 33.7632376,78.4660602 33.7928741,78.4450665 L33.7928741,79.3687894 C33.6940859,79.4107768 33.4174789,79.4947516 33.0519626,79.4947516 C32.1233535,79.4947516 31.3132903,78.8124563 31.3132903,77.7102869 C31.3132903,76.6710987 32.044323,75.9153254 33.0519626,75.9153254 C33.4372366,75.9153254 33.7237223,76.0097971 33.7928741,76.0412876 L33.7928741,76.9650105 Z M46.6886855,77.7039888 C46.6886855,78.6906928 45.9675316,79.4989503 44.959892,79.4989503 C43.9621312,79.4989503 43.2409773,78.6906928 43.2409773,77.7039888 C43.2409773,76.7172848 43.9621312,75.9195241 44.959892,75.9195241 C45.9675316,75.9195241 46.6886855,76.7172848 46.6886855,77.7039888 Z M44.959892,76.7907628 C44.4758298,76.7907628 44.1103135,77.2106368 44.1103135,77.7039888 C44.1103135,78.2078376 44.4758298,78.6172148 44.959892,78.6172148 C45.453833,78.6172148 45.8094705,78.2078376 45.8094705,77.7039888 C45.8094705,77.2106368 45.453833,76.7907628 44.959892,76.7907628 Z M38.8676238,76.7603219 C38.857745,76.7603219 38.5119863,76.6553534 38.2255005,76.6553534 C37.8896207,76.6553534 37.7118019,76.7708188 37.7118019,76.9387684 C37.7118019,77.1487054 37.9587724,77.2221833 38.0970759,77.2641707 L38.3144099,77.3481456 C38.857745,77.526592 39.0948367,77.9149755 39.0948367,78.3348495 C39.0948367,79.2060882 38.3835616,79.5 37.7513172,79.5 C37.3067703,79.5 36.9017387,79.4055283 36.8523446,79.3950315 L36.8523446,78.6077677 C36.9313751,78.6287614 37.2771338,78.7337299 37.6327713,78.7337299 C38.0476818,78.7337299 38.2353793,78.6077677 38.2353793,78.4083275 C38.2353793,78.2403779 38.0674394,78.1354094 37.8599842,78.0724283 C37.8204689,78.0514346 37.7414384,78.0304409 37.6920443,78.0094472 C37.2277397,77.8519944 36.8424658,77.5685794 36.8424658,76.9912526 C36.8424658,76.3509447 37.3067703,75.910077 38.0674394,75.910077 C38.4625922,75.910077 38.8379874,76.0150455 38.8676238,76.0255423 L38.8676238,76.7603219 Z M30.444942,72.2550735 L30.444942,73.1578027 C30.444942,73.3992302 30.2473656,73.5986704 30.0300316,73.5986704 C29.8028188,73.5986704 29.625,73.3992302 29.625,73.1578027 L29.625,72.2550735 C29.625,72.0136459 29.8028188,71.8247026 30.0300316,71.8247026 C30.2473656,71.8247026 30.444942,72.0136459 30.444942,72.2550735 Z M32.6834826,71.0605318 L32.6834826,73.159902 C32.6834826,73.4013296 32.495785,73.6007698 32.2685722,73.6007698 C32.0512381,73.6007698 31.8635406,73.4013296 31.8635406,73.159902 L31.8635406,71.0605318 C31.8635406,70.8296011 32.0512381,70.630161 32.2685722,70.630161 C32.495785,70.630161 32.6834826,70.8296011 32.6834826,71.0605318 Z M34.9259747,69.4303709 L34.9259747,74.0279916 C34.9259747,74.2589223 34.7382771,74.4583625 34.5110643,74.4583625 C34.2937302,74.4583625 34.1060327,74.2589223 34.1060327,74.0279916 L34.1060327,69.4303709 C34.1060327,69.1889433 34.2937302,69 34.5110643,69 C34.7382771,69 34.9259747,69.1889433 34.9259747,69.4303709 Z M37.1645153,71.0605318 L37.1645153,73.159902 C37.1645153,73.4013296 36.9768177,73.6007698 36.7594837,73.6007698 C36.5322708,73.6007698 36.3445732,73.4013296 36.3445732,73.159902 L36.3445732,71.0605318 C36.3445732,70.8296011 36.5322708,70.630161 36.7594837,70.630161 C36.9768177,70.630161 37.1645153,70.8296011 37.1645153,71.0605318 Z M39.4070074,72.2550735 L39.4070074,73.1578027 C39.4070074,73.3992302 39.2193098,73.5986704 38.9920969,73.5986704 C38.7747629,73.5986704 38.5870653,73.3992302 38.5870653,73.1578027 L38.5870653,72.2550735 C38.5870653,72.0136459 38.7747629,71.8247026 38.9920969,71.8247026 C39.2193098,71.8247026 39.4070074,72.0136459 39.4070074,72.2550735 Z M41.6455479,71.0605318 L41.6455479,73.159902 C41.6455479,73.4013296 41.4578504,73.6007698 41.2306375,73.6007698 C41.0133035,73.6007698 40.8256059,73.4013296 40.8256059,73.159902 L40.8256059,71.0605318 C40.8256059,70.8296011 41.0133035,70.630161 41.2306375,70.630161 C41.4578504,70.630161 41.6455479,70.8296011 41.6455479,71.0605318 Z M43.8890279,69.4303709 L43.8890279,74.0279916 C43.8890279,74.2589223 43.7112092,74.4583625 43.4839963,74.4583625 C43.2567835,74.4583625 43.0690859,74.2589223 43.0690859,74.0279916 L43.0690859,69.4303709 C43.0690859,69.1889433 43.2567835,69 43.4839963,69 C43.7112092,69 43.8890279,69.1889433 43.8890279,69.4303709 Z M46.1364594,71.0605318 L46.1364594,73.159902 C46.1364594,73.4013296 45.9487619,73.6007698 45.721549,73.6007698 C45.4943361,73.6007698 45.3165174,73.4013296 45.3165174,73.159902 L45.3165174,71.0605318 C45.3165174,70.8296011 45.4943361,70.630161 45.721549,70.630161 C45.9487619,70.630161 46.1364594,70.8296011 46.1364594,71.0605318 Z M48.375,72.2550735 L48.375,73.1578027 C48.375,73.3992302 48.1873024,73.5986704 47.9699684,73.5986704 C47.7427555,73.5986704 47.555058,73.3992302 47.555058,73.1578027 L47.555058,72.2550735 C47.555058,72.0136459 47.7427555,71.8247026 47.9699684,71.8247026 C48.1873024,71.8247026 48.375,72.0136459 48.375,72.2550735 Z" id="Combined-Shape" fill="#908E8E"></path>
                </g>
            </g>
        </g>
    </g>
</svg>