<svg height="72" viewBox="0 0 114 72" width="114" xmlns="http://www.w3.org/2000/svg" xmlns:xlink="http://www.w3.org/1999/xlink"><defs><path id="a" d="m70 72h-68c-1.104 0-2-.896-2-2h72c0 1.104-.896 2-2 2"/></defs><g fill="none" fill-rule="evenodd"><path d="m0 0h114v72h-114z"/><use fill="#ffb400" xlink:href="#a"/><use fill="#000" fill-opacity=".1" xlink:href="#a"/><path d="m109.5 0h-86c-2.481 0-4.5 2.019-4.5 4.5v26.5h1v-26.5c0-1.93 1.57-3.5 3.5-3.5h86c1.93 0 3.5 1.57 3.5 3.5v52.998c0 1.93-1.57 3.5-3.5 3.5h-35c-.275 0-.5.225-.5.5 0 .274.225.5.5.5h35c2.481 0 4.5-2.019 4.5-4.5v-52.998c0-2.481-2.019-4.5-4.5-4.5" fill="#afafaf"/><path d="m109 9h-85c-1.104 0-2 .896-2 2v20h29v-.001c0-8.837 7.164-16 16-16s16 7.163 16 16-7.164 16-16 16v6.001h42c1.104 0 2-.896 2-2v-40c0-1.104-.896-2-2-2" fill="#000" opacity=".054743"/><path d="m67 53v17h-62v-36c0-1.657 1.343-3 3-3h11v12.917 13.583c0 2.481 2.019 4.5 4.5 4.5h9c.275 0 .5-.225.5-.5s-.225-.5-.5-.5h-9c-1.93 0-3.5-1.57-3.5-3.5v-13.583-12.917h2 29c0 8.836 7.164 15.999 16 15.999zm.707-22.001 5.146 5.146c.196.196.196.512 0 .708-.097.097-.225.146-.353.146s-.256-.049-.354-.146l-5.146-5.147-5.147 5.147c-.097.097-.225.146-.353.146s-.256-.049-.354-.146c-.195-.196-.195-.512 0-.708l5.147-5.146-5.147-5.146c-.195-.196-.195-.512 0-.708.196-.195.512-.195.707 0l5.147 5.147 5.146-5.147c.196-.195.512-.195.707 0 .196.196.196.512 0 .708z" fill="#ffb400"/></g></svg>