<?xml version="1.0" encoding="UTF-8"?>
<svg width="120px" height="120px" viewBox="0 0 120 120" version="1.1" xmlns="http://www.w3.org/2000/svg" xmlns:xlink="http://www.w3.org/1999/xlink">
    <!-- Generator: Sketch 49.1 (51147) - http://www.bohemiancoding.com/sketch -->
    <title>img_dx70_72</title>
    <desc>Created with Sketch.</desc>
    <defs>
        <path d="M96,108 L3,108 C1.344,108 0,106.714435 0,105.130435 L0,75 L99,75 L99,105.130435 C99,106.714435 97.656,108 96,108" id="path-1"></path>
        <filter x="-0.5%" y="-1.5%" width="101.0%" height="103.0%" filterUnits="objectBoundingBox" id="filter-2">
            <feOffset dx="0" dy="-0" in="SourceAlpha" result="shadowOffsetInner1"></feOffset>
            <feComposite in="shadowOffsetInner1" in2="SourceAlpha" operator="arithmetic" k2="-1" k3="1" result="shadowInnerInner1"></feComposite>
            <feColorMatrix values="0 0 0 0 0   0 0 0 0 0   0 0 0 0 0  0 0 0 0.08 0" type="matrix" in="shadowInnerInner1" result="shadowMatrixInner1"></feColorMatrix>
            <feOffset dx="0" dy="0" in="SourceAlpha" result="shadowOffsetInner2"></feOffset>
            <feComposite in="shadowOffsetInner2" in2="SourceAlpha" operator="arithmetic" k2="-1" k3="1" result="shadowInnerInner2"></feComposite>
            <feColorMatrix values="0 0 0 0 1   0 0 0 0 1   0 0 0 0 1  0 0 0 0.4 0" type="matrix" in="shadowInnerInner2" result="shadowMatrixInner2"></feColorMatrix>
            <feOffset dx="1" dy="0" in="SourceAlpha" result="shadowOffsetInner3"></feOffset>
            <feComposite in="shadowOffsetInner3" in2="SourceAlpha" operator="arithmetic" k2="-1" k3="1" result="shadowInnerInner3"></feComposite>
            <feColorMatrix values="0 0 0 0 0   0 0 0 0 0   0 0 0 0 0  0 0 0 0.08 0" type="matrix" in="shadowInnerInner3" result="shadowMatrixInner3"></feColorMatrix>
            <feOffset dx="-1" dy="0" in="SourceAlpha" result="shadowOffsetInner4"></feOffset>
            <feComposite in="shadowOffsetInner4" in2="SourceAlpha" operator="arithmetic" k2="-1" k3="1" result="shadowInnerInner4"></feComposite>
            <feColorMatrix values="0 0 0 0 0   0 0 0 0 0   0 0 0 0 0  0 0 0 0.04 0" type="matrix" in="shadowInnerInner4" result="shadowMatrixInner4"></feColorMatrix>
            <feMerge>
                <feMergeNode in="shadowMatrixInner1"></feMergeNode>
                <feMergeNode in="shadowMatrixInner2"></feMergeNode>
                <feMergeNode in="shadowMatrixInner3"></feMergeNode>
                <feMergeNode in="shadowMatrixInner4"></feMergeNode>
            </feMerge>
        </filter>
        <linearGradient x1="50%" y1="3.61919694%" x2="50%" y2="96.3263186%" id="linearGradient-3">
            <stop stop-color="#424242" offset="0%"></stop>
            <stop stop-color="#656565" offset="100%"></stop>
        </linearGradient>
        <path d="M55.5,6 C55.5,2.6865 52.8135,0 49.5,0 C46.1865,0 43.5,2.6865 43.5,6 C43.5,9.3135 46.1865,12 49.5,12 C52.8135,12 55.5,9.3135 55.5,6" id="path-4"></path>
        <filter x="0.0%" y="0.0%" width="100.0%" height="100.0%" filterUnits="objectBoundingBox" id="filter-5">
            <feOffset dx="0" dy="-0" in="SourceAlpha" result="shadowOffsetInner1"></feOffset>
            <feComposite in="shadowOffsetInner1" in2="SourceAlpha" operator="arithmetic" k2="-1" k3="1" result="shadowInnerInner1"></feComposite>
            <feColorMatrix values="0 0 0 0 1   0 0 0 0 1   0 0 0 0 1  0 0 0 0.6 0" type="matrix" in="shadowInnerInner1" result="shadowMatrixInner1"></feColorMatrix>
            <feOffset dx="0" dy="0" in="SourceAlpha" result="shadowOffsetInner2"></feOffset>
            <feComposite in="shadowOffsetInner2" in2="SourceAlpha" operator="arithmetic" k2="-1" k3="1" result="shadowInnerInner2"></feComposite>
            <feColorMatrix values="0 0 0 0 1   0 0 0 0 1   0 0 0 0 1  0 0 0 0.6 0" type="matrix" in="shadowInnerInner2" result="shadowMatrixInner2"></feColorMatrix>
            <feMerge>
                <feMergeNode in="shadowMatrixInner1"></feMergeNode>
                <feMergeNode in="shadowMatrixInner2"></feMergeNode>
            </feMerge>
        </filter>
        <linearGradient x1="0%" y1="0%" x2="100%" y2="100%" id="linearGradient-6">
            <stop stop-color="#FFFFFF" stop-opacity="0.24" offset="0%"></stop>
            <stop stop-color="#000000" stop-opacity="0.5" offset="100%"></stop>
        </linearGradient>
        <path d="M93.75,66 L5.25,66 C4.836,66 4.5,65.664 4.5,65.25 L4.5,17.25 C4.5,16.836 4.836,16.5 5.25,16.5 L93.75,16.5 C94.164,16.5 94.5,16.836 94.5,17.25 L94.5,65.25 C94.5,65.664 94.164,66 93.75,66" id="path-7"></path>
        <path d="M51.375,7.5 L47.625,7.5 C47.004,7.5 46.5,6.996 46.5,6.375 L46.5,5.625 C46.5,5.004 47.004,4.5 47.625,4.5 L51.375,4.5 C51.996,4.5 52.5,5.004 52.5,5.625 L52.5,6.375 C52.5,6.996 51.996,7.5 51.375,7.5" id="path-8"></path>
        <filter x="0.0%" y="0.0%" width="100.0%" height="100.0%" filterUnits="objectBoundingBox" id="filter-9">
            <feOffset dx="0" dy="-0" in="SourceAlpha" result="shadowOffsetInner1"></feOffset>
            <feComposite in="shadowOffsetInner1" in2="SourceAlpha" operator="arithmetic" k2="-1" k3="1" result="shadowInnerInner1"></feComposite>
            <feColorMatrix values="0 0 0 0 1   0 0 0 0 1   0 0 0 0 1  0 0 0 0.24 0" type="matrix" in="shadowInnerInner1"></feColorMatrix>
        </filter>
    </defs>
    <g id="Page-1" stroke="none" stroke-width="1" fill="none" fill-rule="evenodd">
        <g id="Devices" transform="translate(-867.000000, -408.000000)">
            <g id="img_dx70_72" transform="translate(867.000000, 408.000000)">
                <g id="Device" transform="translate(11.000000, 6.000000)">
                    <g id="Fill-192">
                        <use fill="#E0E0E0" fill-rule="evenodd" xlink:href="#path-1"></use>
                        <use fill="black" fill-opacity="1" filter="url(#filter-2)" xlink:href="#path-1"></use>
                    </g>
                    <path d="M47.9475757,104.981106 L47.9475757,103.991403 L48.1716085,103.991403 L48.1716085,104.981106 L47.9475757,104.981106 Z M49.983305,104.275717 C49.9752074,104.272718 49.9023293,104.221733 49.7943617,104.221733 C49.6486054,104.221733 49.5487354,104.335699 49.5487354,104.488653 C49.5487354,104.635609 49.6459062,104.752574 49.7943617,104.752574 C49.8996301,104.752574 49.9752074,104.704589 49.983305,104.69859 L49.983305,104.962511 C49.9563131,104.974508 49.8780366,104.9985 49.7781666,104.9985 C49.5271419,104.9985 49.3058083,104.803559 49.3058083,104.488653 C49.3058083,104.191742 49.5055483,103.975807 49.7781666,103.975807 C49.883435,103.975807 49.9617115,104.002799 49.983305,104.011796 L49.983305,104.275717 Z M47.6387884,104.275717 C47.6306908,104.272718 47.5578127,104.221733 47.449845,104.221733 C47.3040888,104.221733 47.2042187,104.335699 47.2042187,104.488653 C47.2042187,104.635609 47.3013896,104.752574 47.449845,104.752574 C47.5551135,104.752574 47.6306908,104.704589 47.6387884,104.69859 L47.6387884,104.962511 C47.6117965,104.974508 47.5362191,104.9985 47.4363491,104.9985 C47.1826252,104.9985 46.9612916,104.803559 46.9612916,104.488653 C46.9612916,104.191742 47.1610317,103.975807 47.4363491,103.975807 C47.5416175,103.975807 47.619894,104.002799 47.6387884,104.011796 L47.6387884,104.275717 Z M50.689953,104.225932 C50.5576927,104.225932 50.4578227,104.345896 50.4578227,104.486854 C50.4578227,104.630811 50.5576927,104.747776 50.689953,104.747776 C50.8249125,104.747776 50.9220834,104.630811 50.9220834,104.486854 C50.9220834,104.345896 50.8249125,104.225932 50.689953,104.225932 Z M51.1623113,104.486854 C51.1623113,104.768769 50.9652704,104.9997 50.689953,104.9997 C50.4173348,104.9997 50.2202939,104.768769 50.2202939,104.486854 C50.2202939,104.204939 50.4173348,103.977007 50.689953,103.977007 C50.9652704,103.977007 51.1623113,104.204939 51.1623113,104.486854 Z M49.0253624,104.217235 C49.0226632,104.217235 48.9281915,104.187244 48.849915,104.187244 C48.7581426,104.187244 48.7095571,104.220234 48.7095571,104.26822 C48.7095571,104.328202 48.7770369,104.349195 48.8148256,104.361192 L48.8742077,104.385184 C49.0226632,104.436169 49.0874438,104.547136 49.0874438,104.6671 C49.0874438,104.916025 48.8931021,105 48.7203539,105 C48.5988903,105 48.4882235,104.973008 48.4747276,104.970009 L48.4747276,104.745076 C48.4963211,104.751075 48.5907928,104.781066 48.6879636,104.781066 C48.8013296,104.781066 48.8526142,104.745076 48.8526142,104.688094 C48.8526142,104.640108 48.806728,104.610117 48.750045,104.592122 C48.7392482,104.586124 48.7176547,104.580126 48.7041588,104.574128 C48.5772968,104.529141 48.4720284,104.448166 48.4720284,104.283215 C48.4720284,104.10027 48.5988903,103.974308 48.806728,103.974308 C48.9146956,103.974308 49.0172648,104.004299 49.0253624,104.007298 L49.0253624,104.217235 Z M46.7240328,102.930021 L46.7240328,103.187944 C46.7240328,103.256923 46.670049,103.313906 46.6106668,103.313906 C46.5485854,103.313906 46.5,103.256923 46.5,103.187944 L46.5,102.930021 C46.5,102.861042 46.5485854,102.807058 46.6106668,102.807058 C46.670049,102.807058 46.7240328,102.861042 46.7240328,102.930021 Z M47.3356693,102.588723 L47.3356693,103.188543 C47.3356693,103.257523 47.2843847,103.314506 47.2223033,103.314506 C47.1629211,103.314506 47.1116365,103.257523 47.1116365,103.188543 L47.1116365,102.588723 C47.1116365,102.522743 47.1629211,102.46576 47.2223033,102.46576 C47.2843847,102.46576 47.3356693,102.522743 47.3356693,102.588723 Z M47.9483855,102.122963 L47.9483855,103.436569 C47.9483855,103.502549 47.8971009,103.559532 47.8350195,103.559532 C47.7756373,103.559532 47.7243527,103.502549 47.7243527,103.436569 L47.7243527,102.122963 C47.7243527,102.053984 47.7756373,102 47.8350195,102 C47.8971009,102 47.9483855,102.053984 47.9483855,102.122963 Z M48.560022,102.588723 L48.560022,103.188543 C48.560022,103.257523 48.5087374,103.314506 48.4493552,103.314506 C48.3872738,103.314506 48.3359892,103.257523 48.3359892,103.188543 L48.3359892,102.588723 C48.3359892,102.522743 48.3872738,102.46576 48.4493552,102.46576 C48.5087374,102.46576 48.560022,102.522743 48.560022,102.588723 Z M49.1727382,102.930021 L49.1727382,103.187944 C49.1727382,103.256923 49.1214536,103.313906 49.0593722,103.313906 C48.99999,103.313906 48.9487054,103.256923 48.9487054,103.187944 L48.9487054,102.930021 C48.9487054,102.861042 48.99999,102.807058 49.0593722,102.807058 C49.1214536,102.807058 49.1727382,102.861042 49.1727382,102.930021 Z M49.7843747,102.588723 L49.7843747,103.188543 C49.7843747,103.257523 49.7330901,103.314506 49.6710087,103.314506 C49.6116265,103.314506 49.5603419,103.257523 49.5603419,103.188543 L49.5603419,102.588723 C49.5603419,102.522743 49.6116265,102.46576 49.6710087,102.46576 C49.7330901,102.46576 49.7843747,102.522743 49.7843747,102.588723 Z M50.3973608,102.122963 L50.3973608,103.436569 C50.3973608,103.502549 50.3487754,103.559532 50.286694,103.559532 C50.2246126,103.559532 50.173328,103.502549 50.173328,103.436569 L50.173328,102.122963 C50.173328,102.053984 50.2246126,102 50.286694,102 C50.3487754,102 50.3973608,102.053984 50.3973608,102.122963 Z M51.0114266,102.588723 L51.0114266,103.188543 C51.0114266,103.257523 50.960142,103.314506 50.8980606,103.314506 C50.8359792,103.314506 50.7873938,103.257523 50.7873938,103.188543 L50.7873938,102.588723 C50.7873938,102.522743 50.8359792,102.46576 50.8980606,102.46576 C50.960142,102.46576 51.0114266,102.522743 51.0114266,102.588723 Z M51.6230631,102.930021 L51.6230631,103.187944 C51.6230631,103.256923 51.5717785,103.313906 51.5123963,103.313906 C51.4503149,103.313906 51.3990303,103.256923 51.3990303,103.187944 L51.3990303,102.930021 C51.3990303,102.861042 51.4503149,102.807058 51.5123963,102.807058 C51.5717785,102.807058 51.6230631,102.861042 51.6230631,102.930021 Z" id="Combined-Shape" fill="#908E8E"></path>
                    <path d="M99,75 L0,75 L0,12 C0,10.344 1.344,9 3,9 L96,9 C97.656,9 99,10.344 99,12 L99,75 Z" id="Fill-193" fill="#1A1A1A"></path>
                    <g id="Fill-194">
                        <use fill="url(#linearGradient-3)" fill-rule="evenodd" xlink:href="#path-4"></use>
                        <use fill="black" fill-opacity="1" filter="url(#filter-5)" xlink:href="#path-4"></use>
                    </g>
                    <g id="Fill-195">
                        <use fill="#222222" xlink:href="#path-7"></use>
                        <use fill="url(#linearGradient-6)" xlink:href="#path-7"></use>
                    </g>
                    <path d="M54,6 C54,3.5145 51.9855,1.5 49.5,1.5 C47.0145,1.5 45,3.5145 45,6 C45,8.4855 47.0145,10.5 49.5,10.5 C51.9855,10.5 54,8.4855 54,6" id="Fill-196" fill="#232323"></path>
                    <g id="Fill-197">
                        <use fill="#494E5C" fill-rule="evenodd" xlink:href="#path-8"></use>
                        <use fill="black" fill-opacity="1" filter="url(#filter-9)" xlink:href="#path-8"></use>
                    </g>
                    <path d="M96,70.5 C96,71.3295 95.328,72 94.5,72 C93.672,72 93,71.3295 93,70.5 C93,69.6705 93.672,69 94.5,69 C95.328,69 96,69.6705 96,70.5 Z" id="Stroke-212" stroke="#474747" stroke-width="0.75"></path>
                    <path d="M96,103.5 C96,104.3295 95.328,105 94.5,105 C93.672,105 93,104.3295 93,103.5 C93,102.6705 93.672,102 94.5,102 C95.328,102 96,102.6705 96,103.5 Z" id="Stroke-212" fill-opacity="0.6" fill="#FFFFFF"></path>
                    <path d="M82.5,72 L88.5,72 C89.328,72 90,71.3295 90,70.5 C90,69.6705 89.328,69 88.5,69 L82.5,69 C81.672,69 81,69.6705 81,70.5 C81,71.3295 81.672,72 82.5,72 Z" id="Stroke-213" stroke="#474747" stroke-width="0.75"></path>
                </g>
            </g>
        </g>
    </g>
</svg>