<?xml version="1.0" encoding="UTF-8"?>
<svg width="120px" height="120px" viewBox="0 0 120 120" version="1.1" xmlns="http://www.w3.org/2000/svg" xmlns:xlink="http://www.w3.org/1999/xlink">
    <!-- Generator: Sketch 49.1 (51147) - http://www.bohemiancoding.com/sketch -->
    <title>img_room-kit-plus_72</title>
    <desc>Created with Sketch.</desc>
    <defs>
        <path d="M1.87147702,0 L40.0556063,2.2759572e-15 C40.2282718,2.24423906e-15 40.3814486,0.110793922 40.4355012,0.274780773 L41.9270833,4.8 L0,4.8 L1.4915821,0.274780773 C1.5456347,0.110793922 1.69881153,4.20296194e-16 1.87147702,3.88578059e-16 Z" id="path-1"></path>
        <filter x="0.0%" y="0.0%" width="100.0%" height="100.0%" filterUnits="objectBoundingBox" id="filter-2">
            <feOffset dx="0" dy="0" in="SourceAlpha" result="shadowOffsetInner1"></feOffset>
            <feComposite in="shadowOffsetInner1" in2="SourceAlpha" operator="arithmetic" k2="-1" k3="1" result="shadowInnerInner1"></feComposite>
            <feColorMatrix values="0 0 0 0 1   0 0 0 0 1   0 0 0 0 1  0 0 0 1 0" type="matrix" in="shadowInnerInner1"></feColorMatrix>
        </filter>
        <linearGradient x1="0%" y1="100%" x2="100%" y2="100%" id="linearGradient-3">
            <stop stop-color="#EFEFEF" offset="0%"></stop>
            <stop stop-color="#F7F7F7" offset="1.09095982%"></stop>
            <stop stop-color="#ECEBEB" offset="3.04408482%"></stop>
            <stop stop-color="#ECEBEB" offset="97.7518136%"></stop>
            <stop stop-color="#F7F7F7" offset="99.0534319%"></stop>
            <stop stop-color="#EFEFEF" offset="100%"></stop>
        </linearGradient>
        <rect id="path-4" x="0" y="4.8" width="41.9270833" height="2.4" rx="0.4"></rect>
        <linearGradient x1="50%" y1="0%" x2="50%" y2="100%" id="linearGradient-5">
            <stop stop-color="#DFDFDF" offset="0%"></stop>
            <stop stop-color="#7E7E7E" offset="100%"></stop>
        </linearGradient>
        <path d="M1.19791667,18 C0.53546875,18 0,17.4636 0,16.8 L0,4.8 C0,4.1364 0.53546875,3.6 1.19791667,3.6 L113.802083,3.6 C114.464531,3.6 115,4.1364 115,4.8 L115,16.8 C115,17.4636 114.464531,18 113.802083,18 L1.19791667,18 Z" id="path-6"></path>
        <filter x="-0.4%" y="-3.5%" width="100.9%" height="106.9%" filterUnits="objectBoundingBox" id="filter-7">
            <feOffset dx="0" dy="-0" in="SourceAlpha" result="shadowOffsetInner1"></feOffset>
            <feComposite in="shadowOffsetInner1" in2="SourceAlpha" operator="arithmetic" k2="-1" k3="1" result="shadowInnerInner1"></feComposite>
            <feColorMatrix values="0 0 0 0 0   0 0 0 0 0   0 0 0 0 0  0 0 0 0.24 0" type="matrix" in="shadowInnerInner1" result="shadowMatrixInner1"></feColorMatrix>
            <feOffset dx="0" dy="1" in="SourceAlpha" result="shadowOffsetInner2"></feOffset>
            <feComposite in="shadowOffsetInner2" in2="SourceAlpha" operator="arithmetic" k2="-1" k3="1" result="shadowInnerInner2"></feComposite>
            <feColorMatrix values="0 0 0 0 1   0 0 0 0 1   0 0 0 0 1  0 0 0 0.500905797 0" type="matrix" in="shadowInnerInner2" result="shadowMatrixInner2"></feColorMatrix>
            <feOffset dx="0" dy="0" in="SourceAlpha" result="shadowOffsetInner3"></feOffset>
            <feComposite in="shadowOffsetInner3" in2="SourceAlpha" operator="arithmetic" k2="-1" k3="1" result="shadowInnerInner3"></feComposite>
            <feColorMatrix values="0 0 0 0 0   0 0 0 0 0   0 0 0 0 0  0 0 0 0.08 0" type="matrix" in="shadowInnerInner3" result="shadowMatrixInner3"></feColorMatrix>
            <feMerge>
                <feMergeNode in="shadowMatrixInner1"></feMergeNode>
                <feMergeNode in="shadowMatrixInner2"></feMergeNode>
                <feMergeNode in="shadowMatrixInner3"></feMergeNode>
            </feMerge>
        </filter>
        <linearGradient x1="0%" y1="50%" x2="100%" y2="50%" id="linearGradient-8">
            <stop stop-color="#2B2B2B" offset="0%"></stop>
            <stop stop-color="#4F4F4F" offset="56.3674133%"></stop>
            <stop stop-color="#535353" offset="67.5634766%"></stop>
            <stop stop-color="#4A4A4A" offset="76.1334899%"></stop>
            <stop stop-color="#1C1C1C" offset="100%"></stop>
        </linearGradient>
        <path d="M65.8854167,14.4 L49.1145833,14.4 C47.1296354,14.4 45.5208333,12.7884 45.5208333,10.8 C45.5208333,8.8116 47.1296354,7.2 49.1145833,7.2 L65.8854167,7.2 C67.8703646,7.2 69.4791667,8.8116 69.4791667,10.8 C69.4791667,12.7884 67.8703646,14.4 65.8854167,14.4" id="path-9"></path>
        <filter x="-6.3%" y="-20.8%" width="112.5%" height="141.7%" filterUnits="objectBoundingBox" id="filter-10">
            <feOffset dx="0" dy="0" in="SourceAlpha" result="shadowOffsetInner1"></feOffset>
            <feComposite in="shadowOffsetInner1" in2="SourceAlpha" operator="arithmetic" k2="-1" k3="1" result="shadowInnerInner1"></feComposite>
            <feColorMatrix values="0 0 0 0 1   0 0 0 0 1   0 0 0 0 1  0 0 0 0.91553442 0" type="matrix" in="shadowInnerInner1" result="shadowMatrixInner1"></feColorMatrix>
            <feOffset dx="0" dy="-0" in="SourceAlpha" result="shadowOffsetInner2"></feOffset>
            <feComposite in="shadowOffsetInner2" in2="SourceAlpha" operator="arithmetic" k2="-1" k3="1" result="shadowInnerInner2"></feComposite>
            <feColorMatrix values="0 0 0 0 1   0 0 0 0 1   0 0 0 0 1  0 0 0 0.92 0" type="matrix" in="shadowInnerInner2" result="shadowMatrixInner2"></feColorMatrix>
            <feOffset dx="-0" dy="0" in="SourceAlpha" result="shadowOffsetInner3"></feOffset>
            <feComposite in="shadowOffsetInner3" in2="SourceAlpha" operator="arithmetic" k2="-1" k3="1" result="shadowInnerInner3"></feComposite>
            <feColorMatrix values="0 0 0 0 1   0 0 0 0 1   0 0 0 0 1  0 0 0 0.8 0" type="matrix" in="shadowInnerInner3" result="shadowMatrixInner3"></feColorMatrix>
            <feOffset dx="0" dy="0" in="SourceAlpha" result="shadowOffsetInner4"></feOffset>
            <feComposite in="shadowOffsetInner4" in2="SourceAlpha" operator="arithmetic" k2="-1" k3="1" result="shadowInnerInner4"></feComposite>
            <feColorMatrix values="0 0 0 0 1   0 0 0 0 1   0 0 0 0 1  0 0 0 0.8 0" type="matrix" in="shadowInnerInner4" result="shadowMatrixInner4"></feColorMatrix>
            <feGaussianBlur stdDeviation="1" in="SourceAlpha" result="shadowBlurInner5"></feGaussianBlur>
            <feOffset dx="0" dy="-1" in="shadowBlurInner5" result="shadowOffsetInner5"></feOffset>
            <feComposite in="shadowOffsetInner5" in2="SourceAlpha" operator="arithmetic" k2="-1" k3="1" result="shadowInnerInner5"></feComposite>
            <feColorMatrix values="0 0 0 0 0   0 0 0 0 0   0 0 0 0 0  0 0 0 0.5 0" type="matrix" in="shadowInnerInner5" result="shadowMatrixInner5"></feColorMatrix>
            <feMerge>
                <feMergeNode in="shadowMatrixInner1"></feMergeNode>
                <feMergeNode in="shadowMatrixInner2"></feMergeNode>
                <feMergeNode in="shadowMatrixInner3"></feMergeNode>
                <feMergeNode in="shadowMatrixInner4"></feMergeNode>
                <feMergeNode in="shadowMatrixInner5"></feMergeNode>
            </feMerge>
        </filter>
        <linearGradient x1="50%" y1="0%" x2="50%" y2="100%" id="linearGradient-11">
            <stop stop-color="#2B2B2B" offset="0%"></stop>
            <stop stop-color="#434343" offset="49.1848808%"></stop>
            <stop stop-color="#1C1C1C" offset="100%"></stop>
        </linearGradient>
    </defs>
    <g id="Page-1" stroke="none" stroke-width="1" fill="none" fill-rule="evenodd">
        <g id="Devices" transform="translate(-1136.000000, -1124.000000)">
            <g id="img_room-kit-plus_72" transform="translate(1136.000000, 1124.000000)">
                <g id="Device" transform="translate(2.000000, 46.000000)">
                    <path d="M5.59277917,0.6 L109.407221,0.6 C109.927194,0.6 110.433104,0.768870965 110.848822,1.081202 L115,4.2 L0,4.2 L4.15117789,1.081202 C4.56689628,0.768870965 5.07280565,0.6 5.59277917,0.6 Z" id="Rectangle-2" fill="#F0F0F0"></path>
                    <g id="Group" transform="translate(37.135417, 22.800000)">
                        <g id="Rectangle">
                            <use fill="#F1F1F1" fill-rule="evenodd" xlink:href="#path-1"></use>
                            <use fill="black" fill-opacity="1" filter="url(#filter-2)" xlink:href="#path-1"></use>
                        </g>
                        <path d="M20.3227167,2.99244227 L20.3227167,2.59656103 L20.5016318,2.59656103 L20.5016318,2.99244227 L20.3227167,2.99244227 Z M21.9484727,2.71028691 C21.9420059,2.70908727 21.8838047,2.68869339 21.7975805,2.68869339 C21.6811779,2.68869339 21.6014206,2.73427972 21.6014206,2.79546136 C21.6014206,2.85424373 21.6790223,2.90102969 21.7975805,2.90102969 C21.881649,2.90102969 21.9420059,2.88183545 21.9484727,2.87943617 L21.9484727,2.9850045 C21.9269167,2.98980306 21.8644042,2.99940018 21.7846469,2.99940018 C21.5841758,2.99940018 21.4074163,2.92142357 21.4074163,2.79546136 C21.4074163,2.67669699 21.566931,2.5903229 21.7846469,2.5903229 C21.8687154,2.5903229 21.9312279,2.60111966 21.9484727,2.60471858 L21.9484727,2.71028691 Z M20.0761157,2.71028691 C20.0696489,2.70908727 20.0114476,2.68869339 19.9252235,2.68869339 C19.8088209,2.68869339 19.7290636,2.73427972 19.7290636,2.79546136 C19.7290636,2.85424373 19.8066653,2.90102969 19.9252235,2.90102969 C20.009292,2.90102969 20.0696489,2.88183545 20.0761157,2.87943617 L20.0761157,2.9850045 C20.0545597,2.98980306 19.9942028,2.99940018 19.9144455,2.99940018 C19.7118187,2.99940018 19.5350593,2.92142357 19.5350593,2.79546136 C19.5350593,2.67669699 19.6945739,2.5903229 19.9144455,2.5903229 C19.998514,2.5903229 20.0610265,2.60111966 20.0761157,2.60471858 L20.0761157,2.71028691 Z M22.5128097,2.69037289 C22.4071851,2.69037289 22.3274278,2.73835849 22.3274278,2.79474158 C22.3274278,2.8523243 22.4071851,2.89911027 22.5128097,2.89911027 C22.6205899,2.89911027 22.6981916,2.8523243 22.6981916,2.79474158 C22.6981916,2.73835849 22.6205899,2.69037289 22.5128097,2.69037289 Z M22.8900403,2.79474158 C22.8900403,2.90750775 22.7326812,2.99988004 22.5128097,2.99988004 C22.2950938,2.99988004 22.1377347,2.90750775 22.1377347,2.79474158 C22.1377347,2.68197541 22.2950938,2.59080276 22.5128097,2.59080276 C22.7326812,2.59080276 22.8900403,2.68197541 22.8900403,2.79474158 Z M21.1834491,2.68689393 C21.1812935,2.68689393 21.1058474,2.67489753 21.0433349,2.67489753 C20.9700444,2.67489753 20.9312435,2.68809357 20.9312435,2.70728781 C20.9312435,2.73128062 20.9851336,2.7396781 21.0153121,2.74447666 L21.0627353,2.75407378 C21.1812935,2.77446766 21.233028,2.81885434 21.233028,2.86683995 C21.233028,2.96641008 21.0778246,3 20.939866,3 C20.8428638,3 20.7544841,2.98920324 20.7437061,2.9880036 L20.7437061,2.89803059 C20.7609509,2.90042987 20.836397,2.91242627 20.9139987,2.91242627 C21.0045341,2.91242627 21.0454905,2.89803059 21.0454905,2.87523743 C21.0454905,2.85604319 21.0088453,2.84404679 20.9635776,2.83684895 C20.9549552,2.83444967 20.9377104,2.83205038 20.9269323,2.8296511 C20.825619,2.8116565 20.7415505,2.77926622 20.7415505,2.71328601 C20.7415505,2.64010797 20.8428638,2.58972308 21.0088453,2.58972308 C21.0950694,2.58972308 21.1769823,2.60171948 21.1834491,2.60291912 L21.1834491,2.68689393 Z M19.3455817,2.1720084 L19.3455817,2.27517745 C19.3455817,2.30276917 19.3024697,2.32556233 19.2550464,2.32556233 C19.2054675,2.32556233 19.1666667,2.30276917 19.1666667,2.27517745 L19.1666667,2.1720084 C19.1666667,2.14441667 19.2054675,2.12282315 19.2550464,2.12282315 C19.3024697,2.12282315 19.3455817,2.14441667 19.3455817,2.1720084 Z M19.8340415,2.03548935 L19.8340415,2.27541737 C19.8340415,2.3030091 19.793085,2.32580226 19.7435061,2.32580226 C19.6960828,2.32580226 19.6551264,2.3030091 19.6551264,2.27541737 L19.6551264,2.03548935 C19.6551264,2.00909727 19.6960828,1.98630411 19.7435061,1.98630411 C19.793085,1.98630411 19.8340415,2.00909727 19.8340415,2.03548935 Z M20.3233634,1.84918524 L20.3233634,2.37462761 C20.3233634,2.40101969 20.2824069,2.42381286 20.2328281,2.42381286 C20.1854048,2.42381286 20.1444483,2.40101969 20.1444483,2.37462761 L20.1444483,1.84918524 C20.1444483,1.82159352 20.1854048,1.8 20.2328281,1.8 C20.2824069,1.8 20.3233634,1.82159352 20.3233634,1.84918524 Z M20.8118231,2.03548935 L20.8118231,2.27541737 C20.8118231,2.3030091 20.7708667,2.32580226 20.7234434,2.32580226 C20.6738645,2.32580226 20.632908,2.3030091 20.632908,2.27541737 L20.632908,2.03548935 C20.632908,2.00909727 20.6738645,1.98630411 20.7234434,1.98630411 C20.7708667,1.98630411 20.8118231,2.00909727 20.8118231,2.03548935 Z M21.3011451,2.1720084 L21.3011451,2.27517745 C21.3011451,2.30276917 21.2601886,2.32556233 21.2106097,2.32556233 C21.1631865,2.32556233 21.12223,2.30276917 21.12223,2.27517745 L21.12223,2.1720084 C21.12223,2.14441667 21.1631865,2.12282315 21.2106097,2.12282315 C21.2601886,2.12282315 21.3011451,2.14441667 21.3011451,2.1720084 Z M21.7896048,2.03548935 L21.7896048,2.27541737 C21.7896048,2.3030091 21.7486483,2.32580226 21.6990694,2.32580226 C21.6516462,2.32580226 21.6106897,2.3030091 21.6106897,2.27541737 L21.6106897,2.03548935 C21.6106897,2.00909727 21.6516462,1.98630411 21.6990694,1.98630411 C21.7486483,1.98630411 21.7896048,2.00909727 21.7896048,2.03548935 Z M22.2791423,1.84918524 L22.2791423,2.37462761 C22.2791423,2.40101969 22.2403414,2.42381286 22.1907626,2.42381286 C22.1411837,2.42381286 22.1002272,2.40101969 22.1002272,2.37462761 L22.1002272,1.84918524 C22.1002272,1.82159352 22.1411837,1.8 22.1907626,1.8 C22.2403414,1.8 22.2791423,1.82159352 22.2791423,1.84918524 Z M22.7695421,2.03548935 L22.7695421,2.27541737 C22.7695421,2.3030091 22.7285856,2.32580226 22.6790067,2.32580226 C22.6294278,2.32580226 22.590627,2.3030091 22.590627,2.27541737 L22.590627,2.03548935 C22.590627,2.00909727 22.6294278,1.98630411 22.6790067,1.98630411 C22.7285856,1.98630411 22.7695421,2.00909727 22.7695421,2.03548935 Z M23.2580018,2.1720084 L23.2580018,2.27517745 C23.2580018,2.30276917 23.2170453,2.32556233 23.169622,2.32556233 C23.1200432,2.32556233 23.0790867,2.30276917 23.0790867,2.27517745 L23.0790867,2.1720084 C23.0790867,2.14441667 23.1200432,2.12282315 23.169622,2.12282315 C23.2170453,2.12282315 23.2580018,2.14441667 23.2580018,2.1720084 Z" id="Combined-Shape" fill="#AEAEAE"></path>
                        <g id="Rectangle">
                            <use fill="url(#linearGradient-3)" xlink:href="#path-4"></use>
                            <use fill-opacity="0.04" fill="#000000" xlink:href="#path-4"></use>
                        </g>
                    </g>
                    <g id="Fill-318">
                        <use fill="url(#linearGradient-5)" fill-rule="evenodd" xlink:href="#path-6"></use>
                        <use fill="black" fill-opacity="1" filter="url(#filter-7)" xlink:href="#path-6"></use>
                    </g>
                    <path d="M3.55188339,15.5848845 L3.55188339,14.7931221 L3.73079847,14.7931221 L3.73079847,15.5848845 L3.55188339,15.5848845 Z M5.17763942,15.0205738 C5.17117261,15.0181745 5.11297132,14.9773868 5.02674718,14.9773868 C4.9103446,14.9773868 4.83058728,15.0685594 4.83058728,15.1909227 C4.83058728,15.3084875 4.908189,15.4020594 5.02674718,15.4020594 C5.11081571,15.4020594 5.17117261,15.3636709 5.17763942,15.3588723 L5.17763942,15.570009 C5.15608338,15.5796061 5.09357089,15.5988004 5.01381356,15.5988004 C4.81334246,15.5988004 4.63658298,15.4428471 4.63658298,15.1909227 C4.63658298,14.953394 4.79609763,14.7806458 5.01381356,14.7806458 C5.09788209,14.7806458 5.16039459,14.8022393 5.17763942,14.8094372 L5.17763942,15.0205738 Z M3.30528237,15.0205738 C3.29881556,15.0181745 3.24061427,14.9773868 3.15439014,14.9773868 C3.03798756,14.9773868 2.95823024,15.0685594 2.95823024,15.1909227 C2.95823024,15.3084875 3.03583196,15.4020594 3.15439014,15.4020594 C3.23845867,15.4020594 3.29881556,15.3636709 3.30528237,15.3588723 L3.30528237,15.570009 C3.28372634,15.5796061 3.22336945,15.5988004 3.14361212,15.5988004 C2.94098541,15.5988004 2.76422594,15.4428471 2.76422594,15.1909227 C2.76422594,14.953394 2.92374059,14.7806458 3.14361212,14.7806458 C3.22768065,14.7806458 3.29019315,14.8022393 3.30528237,14.8094372 L3.30528237,15.0205738 Z M5.74197637,14.9807458 C5.6363518,14.9807458 5.55659448,15.076717 5.55659448,15.1894832 C5.55659448,15.3046486 5.6363518,15.3982205 5.74197637,15.3982205 C5.84975653,15.3982205 5.92735825,15.3046486 5.92735825,15.1894832 C5.92735825,15.076717 5.84975653,14.9807458 5.74197637,14.9807458 Z M6.11920695,15.1894832 C6.11920695,15.4150155 5.9618479,15.5997601 5.74197637,15.5997601 C5.52426043,15.5997601 5.36690139,15.4150155 5.36690139,15.1894832 C5.36690139,14.9639508 5.52426043,14.7816055 5.74197637,14.7816055 C5.9618479,14.7816055 6.11920695,14.9639508 6.11920695,15.1894832 Z M4.4126158,14.9737879 C4.4104602,14.9737879 4.33501408,14.9497951 4.27250158,14.9497951 C4.19921107,14.9497951 4.16041021,14.9761871 4.16041021,15.0145756 C4.16041021,15.0625612 4.21430029,15.0793562 4.24447874,15.0889533 L4.29190201,15.1081476 C4.4104602,15.1489353 4.46219467,15.2377087 4.46219467,15.3336799 C4.46219467,15.5328202 4.30699124,15.6 4.16903262,15.6 C4.07203047,15.6 3.98365074,15.5784065 3.97287272,15.5760072 L3.97287272,15.3960612 C3.99011755,15.4008597 4.06556366,15.4248525 4.14316538,15.4248525 C4.23370072,15.4248525 4.27465719,15.3960612 4.27465719,15.3504749 C4.27465719,15.3120864 4.23801193,15.2880936 4.19274426,15.2736979 C4.18412185,15.2688993 4.16687702,15.2641008 4.156099,15.2593022 C4.05478565,15.223313 3.97071712,15.1585324 3.97071712,15.026572 C3.97071712,14.8802159 4.07203047,14.7794462 4.23801193,14.7794462 C4.32423606,14.7794462 4.40614899,14.803439 4.4126158,14.8058382 L4.4126158,14.9737879 Z M2.57474841,13.9440168 L2.57474841,14.1503549 C2.57474841,14.2055383 2.53163634,14.2511247 2.48421307,14.2511247 C2.43463419,14.2511247 2.39583333,14.2055383 2.39583333,14.1503549 L2.39583333,13.9440168 C2.39583333,13.8888333 2.43463419,13.8456463 2.48421307,13.8456463 C2.53163634,13.8456463 2.57474841,13.8888333 2.57474841,13.9440168 Z M3.06320812,13.6709787 L3.06320812,14.1508347 C3.06320812,14.2060182 3.02225166,14.2516045 2.97267278,14.2516045 C2.92524951,14.2516045 2.88429305,14.2060182 2.88429305,14.1508347 L2.88429305,13.6709787 C2.88429305,13.6181945 2.92524951,13.5726082 2.97267278,13.5726082 C3.02225166,13.5726082 3.06320812,13.6181945 3.06320812,13.6709787 Z M3.55253007,13.2983705 L3.55253007,14.3492552 C3.55253007,14.4020394 3.51157361,14.4476257 3.46199473,14.4476257 C3.41457146,14.4476257 3.373615,14.4020394 3.373615,14.3492552 L3.373615,13.2983705 C3.373615,13.243187 3.41457146,13.2 3.46199473,13.2 C3.51157361,13.2 3.55253007,13.243187 3.55253007,13.2983705 Z M4.04098979,13.6709787 L4.04098979,14.1508347 C4.04098979,14.2060182 4.00003332,14.2516045 3.95261005,14.2516045 C3.90303117,14.2516045 3.86207471,14.2060182 3.86207471,14.1508347 L3.86207471,13.6709787 C3.86207471,13.6181945 3.90303117,13.5726082 3.95261005,13.5726082 C4.00003332,13.5726082 4.04098979,13.6181945 4.04098979,13.6709787 Z M4.53031174,13.9440168 L4.53031174,14.1503549 C4.53031174,14.2055383 4.48935528,14.2511247 4.4397764,14.2511247 C4.39235313,14.2511247 4.35139666,14.2055383 4.35139666,14.1503549 L4.35139666,13.9440168 C4.35139666,13.8888333 4.39235313,13.8456463 4.4397764,13.8456463 C4.48935528,13.8456463 4.53031174,13.8888333 4.53031174,13.9440168 Z M5.01877145,13.6709787 L5.01877145,14.1508347 C5.01877145,14.2060182 4.97781499,14.2516045 4.92823611,14.2516045 C4.88081284,14.2516045 4.83985638,14.2060182 4.83985638,14.1508347 L4.83985638,13.6709787 C4.83985638,13.6181945 4.88081284,13.5726082 4.92823611,13.5726082 C4.97781499,13.5726082 5.01877145,13.6181945 5.01877145,13.6709787 Z M5.50830897,13.2983705 L5.50830897,14.3492552 C5.50830897,14.4020394 5.46950811,14.4476257 5.41992923,14.4476257 C5.37035035,14.4476257 5.32939389,14.4020394 5.32939389,14.3492552 L5.32939389,13.2983705 C5.32939389,13.243187 5.37035035,13.2 5.41992923,13.2 C5.46950811,13.2 5.50830897,13.243187 5.50830897,13.2983705 Z M5.99870872,13.6709787 L5.99870872,14.1508347 C5.99870872,14.2060182 5.95775226,14.2516045 5.90817338,14.2516045 C5.8585945,14.2516045 5.81979365,14.2060182 5.81979365,14.1508347 L5.81979365,13.6709787 C5.81979365,13.6181945 5.8585945,13.5726082 5.90817338,13.5726082 C5.95775226,13.5726082 5.99870872,13.6181945 5.99870872,13.6709787 Z M6.48716843,13.9440168 L6.48716843,14.1503549 C6.48716843,14.2055383 6.44621197,14.2511247 6.3987887,14.2511247 C6.34920982,14.2511247 6.30825336,14.2055383 6.30825336,14.1503549 L6.30825336,13.9440168 C6.30825336,13.8888333 6.34920982,13.8456463 6.3987887,13.8456463 C6.44621197,13.8456463 6.48716843,13.8888333 6.48716843,13.9440168 Z" id="Combined-Shape" fill="#FFFFFF"></path>
                    <g id="Fill-319">
                        <use fill="url(#linearGradient-8)" fill-rule="evenodd" xlink:href="#path-9"></use>
                        <use fill="black" fill-opacity="1" filter="url(#filter-10)" xlink:href="#path-9"></use>
                    </g>
                    <path d="M49.1145833,12.3 C48.2892188,12.3 47.6171875,11.6268 47.6171875,10.8 C47.6171875,9.9732 48.2892188,9.3 49.1145833,9.3 C49.9399479,9.3 50.6119792,9.9732 50.6119792,10.8 C50.6119792,11.6268 49.9399479,12.3 49.1145833,12.3" id="Fill-320" fill="#666666"></path>
                    <path d="M49.1145833,9 C48.1239063,9 47.3177083,9.8076 47.3177083,10.8 C47.3177083,11.7924 48.1239063,12.6 49.1145833,12.6 C50.1052604,12.6 50.9114583,11.7924 50.9114583,10.8 C50.9114583,9.8076 50.1052604,9 49.1145833,9 M49.1145833,9.6 C49.7770313,9.6 50.3125,10.1364 50.3125,10.8 C50.3125,11.4636 49.7770313,12 49.1145833,12 C48.4521354,12 47.9166667,11.4636 47.9166667,10.8 C47.9166667,10.1364 48.4521354,9.6 49.1145833,9.6" id="Fill-321" fill="#000000"></path>
                    <path d="M53.90625,12.3 C53.0808854,12.3 52.4088542,11.6268 52.4088542,10.8 C52.4088542,9.9732 53.0808854,9.3 53.90625,9.3 C54.7316146,9.3 55.4036458,9.9732 55.4036458,10.8 C55.4036458,11.6268 54.7316146,12.3 53.90625,12.3" id="Fill-322" fill="#666666"></path>
                    <path d="M53.90625,9 C52.9155729,9 52.109375,9.8076 52.109375,10.8 C52.109375,11.7924 52.9155729,12.6 53.90625,12.6 C54.8969271,12.6 55.703125,11.7924 55.703125,10.8 C55.703125,9.8076 54.8969271,9 53.90625,9 M53.90625,9.6 C54.5686979,9.6 55.1041667,10.1364 55.1041667,10.8 C55.1041667,11.4636 54.5686979,12 53.90625,12 C53.2438021,12 52.7083333,11.4636 52.7083333,10.8 C52.7083333,10.1364 53.2438021,9.6 53.90625,9.6" id="Fill-323" fill="#000000"></path>
                    <path d="M58.6979167,12.3 C57.8725521,12.3 57.2005208,11.6268 57.2005208,10.8 C57.2005208,9.9732 57.8725521,9.3 58.6979167,9.3 C59.5232812,9.3 60.1953125,9.9732 60.1953125,10.8 C60.1953125,11.6268 59.5232812,12.3 58.6979167,12.3" id="Fill-324" fill="#666666"></path>
                    <path d="M58.6979167,9 C57.7072396,9 56.9010417,9.8076 56.9010417,10.8 C56.9010417,11.7924 57.7072396,12.6 58.6979167,12.6 C59.6885938,12.6 60.4947917,11.7924 60.4947917,10.8 C60.4947917,9.8076 59.6885938,9 58.6979167,9 M58.6979167,9.6 C59.3603646,9.6 59.8958333,10.1364 59.8958333,10.8 C59.8958333,11.4636 59.3603646,12 58.6979167,12 C58.0354688,12 57.5,11.4636 57.5,10.8 C57.5,10.1364 58.0354688,9.6 58.6979167,9.6" id="Fill-325" fill="#000000"></path>
                    <path d="M65.8854167,12.6 C64.8947396,12.6 64.0885417,11.7924 64.0885417,10.8 C64.0885417,9.8076 64.8947396,9 65.8854167,9 C66.8760937,9 67.6822917,9.8076 67.6822917,10.8 C67.6822917,11.7924 66.8760937,12.6 65.8854167,12.6" id="Fill-326" fill="#666666"></path>
                    <path d="M65.8854167,8.4 C64.5641146,8.4 63.4895833,9.4764 63.4895833,10.8 C63.4895833,12.1236 64.5641146,13.2 65.8854167,13.2 C67.2067187,13.2 68.28125,12.1236 68.28125,10.8 C68.28125,9.4764 67.2067187,8.4 65.8854167,8.4 M65.8854167,9.6 C66.5478646,9.6 67.0833333,10.1364 67.0833333,10.8 C67.0833333,11.4636 66.5478646,12 65.8854167,12 C65.2229688,12 64.6875,11.4636 64.6875,10.8 C64.6875,10.1364 65.2229688,9.6 65.8854167,9.6" id="Fill-327" fill="url(#linearGradient-11)"></path>
                </g>
            </g>
        </g>
    </g>
</svg>