<?xml version="1.0" encoding="UTF-8"?>
<svg width="120px" height="120px" viewBox="0 0 120 120" version="1.1" xmlns="http://www.w3.org/2000/svg" xmlns:xlink="http://www.w3.org/1999/xlink">
    <!-- Generator: Sketch 49.1 (51147) - http://www.bohemiancoding.com/sketch -->
    <title>img_mx200_72</title>
    <desc>Created with Sketch.</desc>
    <defs>
        <linearGradient x1="0%" y1="100%" x2="100%" y2="100%" id="linearGradient-1">
            <stop stop-color="#DFDFDF" offset="0%"></stop>
            <stop stop-color="#6F6F6F" offset="100%"></stop>
        </linearGradient>
        <linearGradient x1="50%" y1="0%" x2="83.0078125%" y2="50%" id="linearGradient-2">
            <stop stop-color="#F6F6F6" offset="0%"></stop>
            <stop stop-color="#969696" offset="100%"></stop>
        </linearGradient>
        <linearGradient x1="0%" y1="2.7366329%" x2="100%" y2="2.7366329%" id="linearGradient-3">
            <stop stop-color="#B4B4B4" offset="0%"></stop>
            <stop stop-color="#F5F5F5" offset="26.4038086%"></stop>
            <stop stop-color="#CCCCCC" offset="66.4245605%"></stop>
            <stop stop-color="#808080" offset="100%"></stop>
        </linearGradient>
        <radialGradient cx="62.7753364%" cy="205.518055%" fx="62.7753364%" fy="205.518055%" r="499.70859%" gradientTransform="translate(0.627753,2.055181),scale(0.135674,1.000000),rotate(5.742529),translate(-0.627753,-2.055181)" id="radialGradient-4">
            <stop stop-color="#9C9C9C" offset="0%"></stop>
            <stop stop-color="#E8E8E8" offset="52.8235546%"></stop>
            <stop stop-color="#E8E8E8" offset="100%"></stop>
        </radialGradient>
        <linearGradient x1="50%" y1="0%" x2="50%" y2="99.9932262%" id="linearGradient-5">
            <stop stop-color="#CFCFCF" offset="0%"></stop>
            <stop stop-color="#D9D9D9" offset="27.8382406%"></stop>
            <stop stop-color="#DFDFDF" offset="51.4140625%"></stop>
            <stop stop-color="#D6D6D6" offset="75.3319184%"></stop>
            <stop stop-color="#C0C0C0" offset="99.9932262%"></stop>
        </linearGradient>
        <polygon id="path-6" points="37.5 102 49.5 102 49.5 66 37.5 66"></polygon>
        <filter x="0.0%" y="0.0%" width="100.0%" height="100.0%" filterUnits="objectBoundingBox" id="filter-7">
            <feOffset dx="0" dy="-0" in="SourceAlpha" result="shadowOffsetInner1"></feOffset>
            <feComposite in="shadowOffsetInner1" in2="SourceAlpha" operator="arithmetic" k2="-1" k3="1" result="shadowInnerInner1"></feComposite>
            <feColorMatrix values="0 0 0 0 1   0 0 0 0 1   0 0 0 0 1  0 0 0 0.5 0" type="matrix" in="shadowInnerInner1"></feColorMatrix>
        </filter>
        <path d="M84,66 L3,66 C1.344,66 0,64.656 0,63 L0,12 C0,10.344 1.344,9 3,9 L84,9 C85.656,9 87,10.344 87,12 L87,63 C87,64.656 85.656,66 84,66" id="path-8"></path>
        <filter x="0.0%" y="0.0%" width="100.0%" height="100.0%" filterUnits="objectBoundingBox" id="filter-9">
            <feOffset dx="0" dy="-0" in="SourceAlpha" result="shadowOffsetInner1"></feOffset>
            <feComposite in="shadowOffsetInner1" in2="SourceAlpha" operator="arithmetic" k2="-1" k3="1" result="shadowInnerInner1"></feComposite>
            <feColorMatrix values="0 0 0 0 0   0 0 0 0 0   0 0 0 0 0  0 0 0 0.08 0" type="matrix" in="shadowInnerInner1" result="shadowMatrixInner1"></feColorMatrix>
            <feOffset dx="0" dy="0" in="SourceAlpha" result="shadowOffsetInner2"></feOffset>
            <feComposite in="shadowOffsetInner2" in2="SourceAlpha" operator="arithmetic" k2="-1" k3="1" result="shadowInnerInner2"></feComposite>
            <feColorMatrix values="0 0 0 0 0   0 0 0 0 0   0 0 0 0 0  0 0 0 0.04 0" type="matrix" in="shadowInnerInner2" result="shadowMatrixInner2"></feColorMatrix>
            <feOffset dx="0" dy="0" in="SourceAlpha" result="shadowOffsetInner3"></feOffset>
            <feComposite in="shadowOffsetInner3" in2="SourceAlpha" operator="arithmetic" k2="-1" k3="1" result="shadowInnerInner3"></feComposite>
            <feColorMatrix values="0 0 0 0 0   0 0 0 0 0   0 0 0 0 0  0 0 0 0.08 0" type="matrix" in="shadowInnerInner3" result="shadowMatrixInner3"></feColorMatrix>
            <feOffset dx="-0" dy="0" in="SourceAlpha" result="shadowOffsetInner4"></feOffset>
            <feComposite in="shadowOffsetInner4" in2="SourceAlpha" operator="arithmetic" k2="-1" k3="1" result="shadowInnerInner4"></feComposite>
            <feColorMatrix values="0 0 0 0 0   0 0 0 0 0   0 0 0 0 0  0 0 0 0.04 0" type="matrix" in="shadowInnerInner4" result="shadowMatrixInner4"></feColorMatrix>
            <feMerge>
                <feMergeNode in="shadowMatrixInner1"></feMergeNode>
                <feMergeNode in="shadowMatrixInner2"></feMergeNode>
                <feMergeNode in="shadowMatrixInner3"></feMergeNode>
                <feMergeNode in="shadowMatrixInner4"></feMergeNode>
            </feMerge>
        </filter>
        <linearGradient x1="0%" y1="0%" x2="100%" y2="100%" id="linearGradient-10">
            <stop stop-color="#FFFFFF" stop-opacity="0.24" offset="0%"></stop>
            <stop stop-color="#000000" stop-opacity="0.5" offset="100%"></stop>
        </linearGradient>
        <path d="M83.25,57 L3.75,57 C3.336,57 3,56.664 3,56.25 L3,12.75 C3,12.336 3.336,12 3.75,12 L83.25,12 C83.664,12 84,12.336 84,12.75 L84,56.25 C84,56.664 83.664,57 83.25,57" id="path-11"></path>
    </defs>
    <g id="Page-1" stroke="none" stroke-width="1" fill="none" fill-rule="evenodd">
        <g id="Devices" transform="translate(-867.000000, -786.000000)">
            <g id="img_mx200_72" transform="translate(867.000000, 786.000000)">
                <g id="Device" transform="translate(17.000000, 6.000000)">
                    <polygon id="Fill-17" fill="url(#linearGradient-1)" points="39 9 48 9 48 6.75 39 6.75"></polygon>
                    <path d="M48,6.75 C48,7.164 45.9855,7.5 43.5,7.5 C41.0145,7.5 39,7.164 39,6.75 C39,6.336 41.0145,6 43.5,6 C45.9855,6 48,6.336 48,6.75" id="Fill-19" fill="url(#linearGradient-2)"></path>
                    <path d="M46.5,3 C46.5,1.344 45.156,0 43.5,0 C41.844,0 40.5,1.344 40.5,3 L40.5,4.5 L46.5,4.5 L46.5,3 Z" id="Fill-20" fill="url(#linearGradient-3)"></path>
                    <path d="M16.4245605,106.326416 L17.8726285,99.5923276 C17.9469347,99.2467748 18.2524158,99 18.6058675,99 L66.9918386,99 C67.2987104,99 67.574625,99.1869455 67.6883928,99.4719493 L70.4245605,106.326416 L16.4245605,106.326416 Z" id="Fill-21" fill="url(#radialGradient-4)"></path>
                    <path d="M17.25,108 L69.75,108 C70.1642136,108 70.5,107.664214 70.5,107.25 L70.5,106.5 L16.5,106.5 L16.5,107.25 C16.5,107.664214 16.8357864,108 17.25,108 Z" id="Fill-22" fill="#2F2F2F"></path>
                    <g id="Fill-23">
                        <use fill="url(#linearGradient-5)" fill-rule="evenodd" xlink:href="#path-6"></use>
                        <use fill="black" fill-opacity="1" filter="url(#filter-7)" xlink:href="#path-6"></use>
                    </g>
                    <g id="Fill-24">
                        <use fill="#E0E0E0" fill-rule="evenodd" xlink:href="#path-8"></use>
                        <use fill="black" fill-opacity="1" filter="url(#filter-9)" xlink:href="#path-8"></use>
                    </g>
                    <path d="M83.25,57 L3.75,57 C3.336,57 3,56.664 3,56.25 L3,12.75 C3,12.336 3.336,12 3.75,12 L83.25,12 C83.664,12 84,12.336 84,12.75 L84,56.25 C84,56.664 83.664,57 83.25,57" id="Fill-25" fill="#222222"></path>
                    <g id="Fill-25">
                        <use fill="#222222" xlink:href="#path-11"></use>
                        <use fill="url(#linearGradient-10)" xlink:href="#path-11"></use>
                    </g>
                    <path d="M42.3031507,62.8861057 L42.3031507,61.8964026 L42.5271835,61.8964026 L42.5271835,62.8861057 L42.3031507,62.8861057 Z M44.33888,62.1807173 C44.3307824,62.1777182 44.2579043,62.1267335 44.1499367,62.1267335 C44.0041804,62.1267335 43.9043104,62.2406993 43.9043104,62.3936534 C43.9043104,62.5406093 44.0014812,62.6575742 44.1499367,62.6575742 C44.2552051,62.6575742 44.3307824,62.6095886 44.33888,62.6035904 L44.33888,62.8675112 C44.3118881,62.8795076 44.2336116,62.9035004 44.1337416,62.9035004 C43.8827169,62.9035004 43.6613833,62.7085589 43.6613833,62.3936534 C43.6613833,62.0967425 43.8611233,61.8808073 44.1337416,61.8808073 C44.23901,61.8808073 44.3172865,61.9077992 44.33888,61.9167965 L44.33888,62.1807173 Z M41.9943634,62.1807173 C41.9862658,62.1777182 41.9133877,62.1267335 41.80542,62.1267335 C41.6596638,62.1267335 41.5597937,62.2406993 41.5597937,62.3936534 C41.5597937,62.5406093 41.6569646,62.6575742 41.80542,62.6575742 C41.9106885,62.6575742 41.9862658,62.6095886 41.9943634,62.6035904 L41.9943634,62.8675112 C41.9673715,62.8795076 41.8917941,62.9035004 41.7919241,62.9035004 C41.5382002,62.9035004 41.3168666,62.7085589 41.3168666,62.3936534 C41.3168666,62.0967425 41.5166067,61.8808073 41.7919241,61.8808073 C41.8971925,61.8808073 41.975469,61.9077992 41.9943634,61.9167965 L41.9943634,62.1807173 Z M45.045528,62.1309322 C44.9132677,62.1309322 44.8133977,62.2508962 44.8133977,62.3918539 C44.8133977,62.5358108 44.9132677,62.6527757 45.045528,62.6527757 C45.1804875,62.6527757 45.2776584,62.5358108 45.2776584,62.3918539 C45.2776584,62.2508962 45.1804875,62.1309322 45.045528,62.1309322 Z M45.5178863,62.3918539 C45.5178863,62.6737694 45.3208454,62.9047001 45.045528,62.9047001 C44.7729098,62.9047001 44.5758689,62.6737694 44.5758689,62.3918539 C44.5758689,62.1099385 44.7729098,61.8820069 45.045528,61.8820069 C45.3208454,61.8820069 45.5178863,62.1099385 45.5178863,62.3918539 Z M43.3809374,62.1222348 C43.3782382,62.1222348 43.2837665,62.0922438 43.20549,62.0922438 C43.1137176,62.0922438 43.0651321,62.1252339 43.0651321,62.1732195 C43.0651321,62.2332015 43.1326119,62.2541952 43.1704006,62.2661916 L43.2297827,62.2901844 C43.3782382,62.3411691 43.4430188,62.4521359 43.4430188,62.5720999 C43.4430188,62.8210252 43.2486771,62.905 43.0759289,62.905 C42.9544653,62.905 42.8437985,62.8780081 42.8303026,62.875009 L42.8303026,62.6500765 C42.8518961,62.6560747 42.9463678,62.6860657 43.0435386,62.6860657 C43.1569046,62.6860657 43.2081892,62.6500765 43.2081892,62.5930936 C43.2081892,62.545108 43.162303,62.515117 43.10562,62.4971224 C43.0948232,62.4911242 43.0732297,62.485126 43.0597338,62.4791278 C42.9328718,62.4341413 42.8276034,62.3531656 42.8276034,62.188215 C42.8276034,62.0052699 42.9544653,61.8793077 43.162303,61.8793077 C43.2702706,61.8793077 43.3728398,61.9092987 43.3809374,61.9122978 L43.3809374,62.1222348 Z M41.0796078,60.835021 L41.0796078,61.0929436 C41.0796078,61.1619229 41.025624,61.2189058 40.9662418,61.2189058 C40.9041604,61.2189058 40.855575,61.1619229 40.855575,61.0929436 L40.855575,60.835021 C40.855575,60.7660417 40.9041604,60.7120579 40.9662418,60.7120579 C41.025624,60.7120579 41.0796078,60.7660417 41.0796078,60.835021 Z M41.6912443,60.4937234 L41.6912443,61.0935434 C41.6912443,61.1625227 41.6399597,61.2195056 41.5778783,61.2195056 C41.5184961,61.2195056 41.4672115,61.1625227 41.4672115,61.0935434 L41.4672115,60.4937234 C41.4672115,60.4277432 41.5184961,60.3707603 41.5778783,60.3707603 C41.6399597,60.3707603 41.6912443,60.4277432 41.6912443,60.4937234 Z M42.3039605,60.0279631 L42.3039605,61.341569 C42.3039605,61.4075492 42.2526759,61.4645321 42.1905945,61.4645321 C42.1312123,61.4645321 42.0799277,61.4075492 42.0799277,61.341569 L42.0799277,60.0279631 C42.0799277,59.9589838 42.1312123,59.905 42.1905945,59.905 C42.2526759,59.905 42.3039605,59.9589838 42.3039605,60.0279631 Z M42.915597,60.4937234 L42.915597,61.0935434 C42.915597,61.1625227 42.8643124,61.2195056 42.8049302,61.2195056 C42.7428488,61.2195056 42.6915642,61.1625227 42.6915642,61.0935434 L42.6915642,60.4937234 C42.6915642,60.4277432 42.7428488,60.3707603 42.8049302,60.3707603 C42.8643124,60.3707603 42.915597,60.4277432 42.915597,60.4937234 Z M43.5283132,60.835021 L43.5283132,61.0929436 C43.5283132,61.1619229 43.4770286,61.2189058 43.4149472,61.2189058 C43.355565,61.2189058 43.3042804,61.1619229 43.3042804,61.0929436 L43.3042804,60.835021 C43.3042804,60.7660417 43.355565,60.7120579 43.4149472,60.7120579 C43.4770286,60.7120579 43.5283132,60.7660417 43.5283132,60.835021 Z M44.1399497,60.4937234 L44.1399497,61.0935434 C44.1399497,61.1625227 44.0886651,61.2195056 44.0265837,61.2195056 C43.9672015,61.2195056 43.9159169,61.1625227 43.9159169,61.0935434 L43.9159169,60.4937234 C43.9159169,60.4277432 43.9672015,60.3707603 44.0265837,60.3707603 C44.0886651,60.3707603 44.1399497,60.4277432 44.1399497,60.4937234 Z M44.7529358,60.0279631 L44.7529358,61.341569 C44.7529358,61.4075492 44.7043504,61.4645321 44.642269,61.4645321 C44.5801876,61.4645321 44.528903,61.4075492 44.528903,61.341569 L44.528903,60.0279631 C44.528903,59.9589838 44.5801876,59.905 44.642269,59.905 C44.7043504,59.905 44.7529358,59.9589838 44.7529358,60.0279631 Z M45.3670016,60.4937234 L45.3670016,61.0935434 C45.3670016,61.1625227 45.315717,61.2195056 45.2536356,61.2195056 C45.1915542,61.2195056 45.1429688,61.1625227 45.1429688,61.0935434 L45.1429688,60.4937234 C45.1429688,60.4277432 45.1915542,60.3707603 45.2536356,60.3707603 C45.315717,60.3707603 45.3670016,60.4277432 45.3670016,60.4937234 Z M45.9786381,60.835021 L45.9786381,61.0929436 C45.9786381,61.1619229 45.9273535,61.2189058 45.8679713,61.2189058 C45.8058899,61.2189058 45.7546053,61.1619229 45.7546053,61.0929436 L45.7546053,60.835021 C45.7546053,60.7660417 45.8058899,60.7120579 45.8679713,60.7120579 C45.9273535,60.7120579 45.9786381,60.7660417 45.9786381,60.835021 Z" id="Combined-Shape" fill="#908E8E"></path>
                    <path d="M46.5,4.5 C46.5,2.844 45.156,1.5 43.5,1.5 C41.844,1.5 40.5,2.844 40.5,4.5 C40.5,6.156 41.844,7.5 43.5,7.5 C45.156,7.5 46.5,6.156 46.5,4.5" id="Fill-40" fill="#232323"></path>
                    <path d="M45,4.5 C45,3.672 44.328,3 43.5,3 C42.672,3 42,3.672 42,4.5 C42,5.328 42.672,6 43.5,6 C44.328,6 45,5.328 45,4.5" id="Fill-41" fill="#373B47"></path>
                </g>
            </g>
        </g>
    </g>
</svg>