<?xml version="1.0" encoding="UTF-8"?>
<svg width="114px" height="72px" viewBox="0 0 114 72" version="1.1" xmlns="http://www.w3.org/2000/svg" xmlns:xlink="http://www.w3.org/1999/xlink">
    <!-- Generator: Sketch 50.2 (55047) - http://www.bohemiancoding.com/sketch -->
    <title>No devices found</title>
    <desc>Created with Sketch.</desc>
    <defs>
        <path d="M70,72 L2,72 C0.896,72 0,71.104 0,70 L72,70 C72,71.104 71.104,72 70,72" id="path-1"></path>
    </defs>
    <g id="Page-1" stroke="none" stroke-width="1" fill="none" fill-rule="evenodd">
        <g id="No-devices-found">
            <rect id="bounds" x="0" y="0" width="114" height="72"></rect>
            <g id="illustration">
                <g id="fill">
                    <use fill="#FFB400" xlink:href="#path-1"></use>
                    <use fill-opacity="0.1" fill="#000000" xlink:href="#path-1"></use>
                </g>
                <path d="M109.5,0 L23.5,0 C21.019,0 19,2.019 19,4.5 L19,31 L20,31 L20,4.5 C20,2.57 21.57,1 23.5,1 L109.5,1 C111.43,1 113,2.57 113,4.5 L113,57.498 C113,59.428 111.43,60.998 109.5,60.998 L74.5,60.998 C74.225,60.998 74,61.223 74,61.498 C74,61.772 74.225,61.998 74.5,61.998 L109.5,61.998 C111.981,61.998 114,59.979 114,57.498 L114,4.5 C114,2.019 111.981,0 109.5,0" id="fill" fill="#AFAFAF"></path>
                <path d="M109,9 L24,9 C22.896,9 22,9.896 22,11 L22,31 L51,31 L51,30.999 C51,22.162 58.163,14.999 67,14.999 C75.837,14.999 83,22.162 83,30.999 C83,39.836 75.837,46.999 67,46.999 L67,53 L109,53 C110.104,53 111,52.104 111,51 L111,11 C111,9.896 110.104,9 109,9" id="fill" fill="#000000" opacity="0.0547433036"></path>
                <path d="M51,31 C51.001,39.836 58.164,46.999 67,46.999 L67,53 L67,70 L5,70 L5,34 C5,32.343 6.343,31 8,31 L19,31 L19,43.917 L19,57.5 C19,59.981 21.019,62 23.5,62 L32.5,62 C32.775,62 33,61.775 33,61.5 C33,61.225 32.775,61 32.5,61 L23.5,61 C21.57,61 20,59.43 20,57.5 L20,43.917 L20,31 L22,31 L51,31 Z M73.854,37.145 C74.049,37.341 74.049,37.657 73.854,37.853 C73.756,37.95 73.628,37.999 73.5,37.999 C73.372,37.999 73.244,37.95 73.146,37.853 L69.871,34.576 C68.825,35.462 67.475,35.999 66,35.999 C62.691,35.999 60,33.308 60,29.999 C60,26.69 62.691,23.999 66,23.999 C69.309,23.999 72,26.69 72,29.999 C72,31.474 71.463,32.823 70.578,33.869 L73.854,37.145 Z M61,29.999 C61,32.756 63.243,34.999 66,34.999 C68.757,34.999 71,32.756 71,29.999 C71,27.242 68.757,24.999 66,24.999 C63.243,24.999 61,27.242 61,29.999 Z M67.8535,28.1455 C68.0485,28.3405 68.0485,28.6575 67.8535,28.8525 L66.7075,29.9995 L67.8535,31.1455 C68.0485,31.3405 68.0485,31.6575 67.8535,31.8525 C67.7555,31.9505 67.6275,31.9995 67.4995,31.9995 C67.3725,31.9995 67.2445,31.9505 67.1465,31.8525 L65.9995,30.7065 L64.8535,31.8525 C64.7555,31.9505 64.6275,31.9995 64.4995,31.9995 C64.3725,31.9995 64.2445,31.9505 64.1465,31.8525 C63.9515,31.6575 63.9515,31.3405 64.1465,31.1455 L65.2925,29.9995 L64.1465,28.8525 C63.9515,28.6575 63.9515,28.3405 64.1465,28.1455 C64.3415,27.9505 64.6585,27.9505 64.8535,28.1455 L65.9995,29.2915 L67.1465,28.1455 C67.3415,27.9505 67.6585,27.9505 67.8535,28.1455 Z" id="fill" fill="#FFB400"></path>
            </g>
        </g>
    </g>
</svg>