<?xml version="1.0" encoding="UTF-8"?>
<svg width="120px" height="120px" viewBox="0 0 120 120" version="1.1" xmlns="http://www.w3.org/2000/svg" xmlns:xlink="http://www.w3.org/1999/xlink">
    <!-- Generator: Sketch 49.1 (51147) - http://www.bohemiancoding.com/sketch -->
    <title>img_sx10_72</title>
    <desc>Created with Sketch.</desc>
    <defs>
        <linearGradient x1="50%" y1="100%" x2="50%" y2="0%" id="linearGradient-1">
            <stop stop-color="#B9B9B9" offset="0%"></stop>
            <stop stop-color="#F2F2F2" offset="100%"></stop>
        </linearGradient>
        <path d="M4.5,0 L100.5,0 C102.985281,-4.56538782e-16 105,2.01471863 105,4.5 L105,40.5 C105,42.9852814 102.985281,45 100.5,45 L4.5,45 C2.01471863,45 3.04359188e-16,42.9852814 0,40.5 L0,4.5 C-3.04359188e-16,2.01471863 2.01471863,4.56538782e-16 4.5,0 Z M45,19.5 C39.2010101,19.5 34.5,24.2010101 34.5,30 C34.5,35.7989899 39.2010101,40.5 45,40.5 L60,40.5 C65.7989899,40.5 70.5,35.7989899 70.5,30 C70.5,24.2010101 65.7989899,19.5 60,19.5 L45,19.5 Z" id="path-2"></path>
        <polygon id="path-3" points="45 18 60 18 60 31.5 45 31.5"></polygon>
        <linearGradient x1="50%" y1="0%" x2="50%" y2="100%" id="linearGradient-4">
            <stop stop-color="#F4F4F4" offset="0%"></stop>
            <stop stop-color="#EBEBEB" offset="100%"></stop>
        </linearGradient>
        <rect id="path-5" x="33" y="18" width="39" height="24" rx="12"></rect>
        <filter x="-5.1%" y="-8.3%" width="110.3%" height="116.7%" filterUnits="objectBoundingBox" id="filter-6">
            <feOffset dx="0" dy="-3" in="SourceAlpha" result="shadowOffsetInner1"></feOffset>
            <feComposite in="shadowOffsetInner1" in2="SourceAlpha" operator="arithmetic" k2="-1" k3="1" result="shadowInnerInner1"></feComposite>
            <feColorMatrix values="0 0 0 0 0   0 0 0 0 0   0 0 0 0 0  0 0 0 0.5 0" type="matrix" in="shadowInnerInner1"></feColorMatrix>
        </filter>
        <circle id="path-7" cx="52.5" cy="31.5" r="9"></circle>
        <filter x="-8.3%" y="-19.4%" width="116.7%" height="127.8%" filterUnits="objectBoundingBox" id="filter-8">
            <feMorphology radius="0.5" operator="dilate" in="SourceAlpha" result="shadowSpreadOuter1"></feMorphology>
            <feOffset dx="0" dy="-2" in="shadowSpreadOuter1" result="shadowOffsetOuter1"></feOffset>
            <feComposite in="shadowOffsetOuter1" in2="SourceAlpha" operator="out" result="shadowOffsetOuter1"></feComposite>
            <feColorMatrix values="0 0 0 0 1   0 0 0 0 1   0 0 0 0 1  0 0 0 0.8 0" type="matrix" in="shadowOffsetOuter1"></feColorMatrix>
        </filter>
        <circle id="path-9" cx="52.5" cy="31.5" r="6"></circle>
        <circle id="path-10" cx="52.5" cy="31.5" r="3"></circle>
        <circle id="path-11" cx="97.5" cy="37.5" r="1.5"></circle>
    </defs>
    <g id="Page-1" stroke="none" stroke-width="1" fill="none" fill-rule="evenodd">
        <g id="Devices" transform="translate(-867.000000, -583.000000)">
            <g id="img_sx10_72" transform="translate(867.000000, 583.000000)">
                <g id="device" transform="translate(8.000000, 38.000000)">
                    <g id="Combined-Shape">
                        <use fill="url(#linearGradient-1)" fill-rule="evenodd" xlink:href="#path-2"></use>
                        <path stroke-opacity="0.4" stroke="#000000" stroke-width="0.75" d="M4.5,0.375 C2.22182541,0.375 0.375,2.22182541 0.375,4.5 L0.375,40.5 C0.375,42.7781746 2.22182541,44.625 4.5,44.625 L100.5,44.625 C102.778175,44.625 104.625,42.7781746 104.625,40.5 L104.625,4.5 C104.625,2.22182541 102.778175,0.375 100.5,0.375 L4.5,0.375 Z M45,19.125 L60,19.125 C66.0060967,19.125 70.875,23.9939033 70.875,30 C70.875,36.0060967 66.0060967,40.875 60,40.875 L45,40.875 C38.9939033,40.875 34.125,36.0060967 34.125,30 C34.125,23.9939033 38.9939033,19.125 45,19.125 Z"></path>
                    </g>
                    <g id="Rectangle-3">
                        <use fill="#323232" fill-rule="evenodd" xlink:href="#path-3"></use>
                        <path stroke-opacity="0.8" stroke="#FFFFFF" stroke-width="0.5" d="M44.75,17.75 L60.25,17.75 L60.25,31.75 L44.75,31.75 L44.75,17.75 Z"></path>
                    </g>
                    <g id="Rectangle-2">
                        <use fill="black" fill-opacity="1" filter="url(#filter-6)" xlink:href="#path-5"></use>
                        <rect stroke="url(#linearGradient-4)" stroke-width="1.5" x="33.75" y="18.75" width="37.5" height="22.5" rx="11.25"></rect>
                        <rect stroke-opacity="0.8" stroke="#FFFFFF" stroke-width="0.5" x="32.75" y="17.75" width="39.5" height="24.5" rx="12"></rect>
                    </g>
                    <g id="Oval-2">
                        <use fill="black" fill-opacity="1" filter="url(#filter-8)" xlink:href="#path-7"></use>
                        <use fill="#323232" fill-rule="evenodd" xlink:href="#path-7"></use>
                        <circle stroke-opacity="0.6" stroke="#FFFFFF" stroke-width="0.5" cx="52.5" cy="31.5" r="9.25"></circle>
                    </g>
                    <g id="Oval-2">
                        <use fill="#00222C" fill-rule="evenodd" xlink:href="#path-9"></use>
                        <circle stroke-opacity="0.16" stroke="#FFFFFF" stroke-width="0.5" cx="52.5" cy="31.5" r="5.75"></circle>
                    </g>
                    <g id="Oval-2">
                        <use fill="#000000" fill-rule="evenodd" xlink:href="#path-10"></use>
                        <circle stroke-opacity="0.230525362" stroke="#FFFFFF" stroke-width="0.5" cx="52.5" cy="31.5" r="3.25"></circle>
                    </g>
                    <circle id="Oval-2" fill-opacity="0.08" fill="#000000" cx="97.5" cy="37.5" r="3"></circle>
                    <g id="Oval-2">
                        <use fill-opacity="0.08" fill="#000000" fill-rule="evenodd" xlink:href="#path-11"></use>
                        <circle stroke-opacity="0.4" stroke="#FFFFFF" stroke-width="0.5" cx="97.5" cy="37.5" r="1.75"></circle>
                    </g>
                    <path d="M50.8951515,11.9622113 L50.8951515,9.98280516 L51.343217,9.98280516 L51.343217,11.9622113 L50.8951515,11.9622113 Z M54.96661,10.5514346 C54.9504149,10.5454364 54.8046586,10.443467 54.5887234,10.443467 C54.2972108,10.443467 54.0974708,10.6713986 54.0974708,10.9773068 C54.0974708,11.2712186 54.2918125,11.5051485 54.5887234,11.5051485 C54.7992602,11.5051485 54.9504149,11.4091772 54.96661,11.3971808 L54.96661,11.9250225 C54.9126262,11.9490153 54.7560732,11.9970009 54.5563331,11.9970009 C54.0542837,11.9970009 53.6116165,11.6071179 53.6116165,10.9773068 C53.6116165,10.383485 54.0110967,9.95161452 54.5563331,9.95161452 C54.7668699,9.95161452 54.923423,10.0055983 54.96661,10.0235929 L54.96661,10.5514346 Z M50.2775767,10.5514346 C50.2613816,10.5454364 50.1156253,10.443467 49.8996901,10.443467 C49.6081775,10.443467 49.4084375,10.6713986 49.4084375,10.9773068 C49.4084375,11.2712186 49.6027792,11.5051485 49.8996901,11.5051485 C50.1102269,11.5051485 50.2613816,11.4091772 50.2775767,11.3971808 L50.2775767,11.9250225 C50.2235929,11.9490153 50.0724383,11.9970009 49.8726982,11.9970009 C49.3652504,11.9970009 48.9225832,11.6071179 48.9225832,10.9773068 C48.9225832,10.383485 49.3220634,9.95161452 49.8726982,9.95161452 C50.083235,9.95161452 50.2397881,10.0055983 50.2775767,10.0235929 L50.2775767,10.5514346 Z M57.3246226,10.9737079 C57.3246226,11.5375387 56.9305408,11.9994002 56.379906,11.9994002 C55.8346696,11.9994002 55.4405878,11.5375387 55.4405878,10.9737079 C55.4405878,10.409877 55.8346696,9.9540138 56.379906,9.9540138 C56.9305408,9.9540138 57.3246226,10.409877 57.3246226,10.9737079 Z M56.379906,10.4518644 C56.1153854,10.4518644 55.9156453,10.6917925 55.9156453,10.9737079 C55.9156453,11.2616215 56.1153854,11.4955513 56.379906,11.4955513 C56.6498251,11.4955513 56.8441667,11.2616215 56.8441667,10.9737079 C56.8441667,10.6917925 56.6498251,10.4518644 56.379906,10.4518644 Z M53.0507248,10.4344697 C53.0453264,10.4344697 52.8563831,10.3744877 52.6998301,10.3744877 C52.5162851,10.3744877 52.4191143,10.4404679 52.4191143,10.5364391 C52.4191143,10.6564031 52.5540738,10.6983905 52.6296511,10.7223833 L52.7484155,10.7703689 C53.0453264,10.8723383 53.1748875,11.0942717 53.1748875,11.3341997 C53.1748875,11.8320504 52.7862041,12 52.4407078,12 C52.1977807,12 51.9764471,11.9460162 51.9494552,11.940018 L51.9494552,11.490153 C51.9926422,11.5021494 52.1815855,11.5621314 52.3759272,11.5621314 C52.6026592,11.5621314 52.7052284,11.490153 52.7052284,11.3761871 C52.7052284,11.2802159 52.613456,11.2202339 52.50009,11.1842447 C52.4784965,11.1722483 52.4353094,11.1602519 52.4083175,11.1482555 C52.1545936,11.0582825 51.9440568,10.8963311 51.9440568,10.5664301 C51.9440568,10.2005398 52.1977807,9.94861542 52.613456,9.94861542 C52.8293912,9.94861542 53.0345296,10.0085974 53.0507248,10.0145956 L53.0507248,10.4344697 Z M48.4480656,7.86004199 L48.4480656,8.37588723 C48.4480656,8.51384585 48.340098,8.62781166 48.2213336,8.62781166 C48.0971708,8.62781166 48,8.51384585 48,8.37588723 L48,7.86004199 C48,7.72208337 48.0971708,7.61411577 48.2213336,7.61411577 C48.340098,7.61411577 48.4480656,7.72208337 48.4480656,7.86004199 Z M49.6713386,7.17744677 L49.6713386,8.37708687 C49.6713386,8.51504549 49.5687694,8.6290113 49.4446066,8.6290113 C49.3258422,8.6290113 49.223273,8.51504549 49.223273,8.37708687 L49.223273,7.17744677 C49.223273,7.04548635 49.3258422,6.93152054 49.4446066,6.93152054 C49.5687694,6.93152054 49.6713386,7.04548635 49.6713386,7.17744677 Z M50.896771,6.24592622 L50.896771,8.87313806 C50.896771,9.00509847 50.7942017,9.11906428 50.670039,9.11906428 C50.5512746,9.11906428 50.4487054,9.00509847 50.4487054,8.87313806 L50.4487054,6.24592622 C50.4487054,6.10796761 50.5512746,6 50.670039,6 C50.7942017,6 50.896771,6.10796761 50.896771,6.24592622 Z M52.120044,7.17744677 L52.120044,8.37708687 C52.120044,8.51504549 52.0174748,8.6290113 51.8987104,8.6290113 C51.7745476,8.6290113 51.6719784,8.51504549 51.6719784,8.37708687 L51.6719784,7.17744677 C51.6719784,7.04548635 51.7745476,6.93152054 51.8987104,6.93152054 C52.0174748,6.93152054 52.120044,7.04548635 52.120044,7.17744677 Z M53.3454764,7.86004199 L53.3454764,8.37588723 C53.3454764,8.51384585 53.2429071,8.62781166 53.1187444,8.62781166 C52.99998,8.62781166 52.8974108,8.51384585 52.8974108,8.37588723 L52.8974108,7.86004199 C52.8974108,7.72208337 52.99998,7.61411577 53.1187444,7.61411577 C53.2429071,7.61411577 53.3454764,7.72208337 53.3454764,7.86004199 Z M54.5687494,7.17744677 L54.5687494,8.37708687 C54.5687494,8.51504549 54.4661801,8.6290113 54.3420174,8.6290113 C54.223253,8.6290113 54.1206838,8.51504549 54.1206838,8.37708687 L54.1206838,7.17744677 C54.1206838,7.04548635 54.223253,6.93152054 54.3420174,6.93152054 C54.4661801,6.93152054 54.5687494,7.04548635 54.5687494,7.17744677 Z M55.7947216,6.24592622 L55.7947216,8.87313806 C55.7947216,9.00509847 55.6975507,9.11906428 55.573388,9.11906428 C55.4492252,9.11906428 55.346656,9.00509847 55.346656,8.87313806 L55.346656,6.24592622 C55.346656,6.10796761 55.4492252,6 55.573388,6 C55.6975507,6 55.7947216,6.10796761 55.7947216,6.24592622 Z M57.0228531,7.17744677 L57.0228531,8.37708687 C57.0228531,8.51504549 56.9202839,8.6290113 56.7961212,8.6290113 C56.6719584,8.6290113 56.5747876,8.51504549 56.5747876,8.37708687 L56.5747876,7.17744677 C56.5747876,7.04548635 56.6719584,6.93152054 56.7961212,6.93152054 C56.9202839,6.93152054 57.0228531,7.04548635 57.0228531,7.17744677 Z M58.2461262,7.86004199 L58.2461262,8.37588723 C58.2461262,8.51384585 58.1435569,8.62781166 58.0247926,8.62781166 C57.9006298,8.62781166 57.7980606,8.51384585 57.7980606,8.37588723 L57.7980606,7.86004199 C57.7980606,7.72208337 57.9006298,7.61411577 58.0247926,7.61411577 C58.1435569,7.61411577 58.2461262,7.72208337 58.2461262,7.86004199 Z" id="Combined-Shape" fill="#908E8E"></path>
                </g>
            </g>
        </g>
    </g>
</svg>