<?xml version="1.0" encoding="UTF-8"?>
<svg width="180px" height="180px" viewBox="0 0 180 180" version="1.1" xmlns="http://www.w3.org/2000/svg" xmlns:xlink="http://www.w3.org/1999/xlink">
    <!-- Generator: Sketch 49.1 (51147) - http://www.bohemiancoding.com/sketch -->
    <title>TelePresence SX20</title>
    <desc>Created with Sketch.</desc>
    <defs>
        <linearGradient x1="6.14149306%" y1="28.7012488%" x2="92.9443359%" y2="28.7012924%" id="linearGradient-1">
            <stop stop-color="#696968" offset="0%"></stop>
            <stop stop-color="#A0A0A0" offset="50.8984653%"></stop>
            <stop stop-color="#7A7B7A" offset="100%"></stop>
        </linearGradient>
        <radialGradient cx="8.06966146%" cy="0%" fx="8.06966146%" fy="0%" r="153.805892%" gradientTransform="translate(0.080697,0.000000),scale(0.452291,1.000000),rotate(11.145516),scale(1.000000,0.913458),translate(-0.080697,-0.000000)" id="radialGradient-2">
            <stop stop-color="#AEAEAD" offset="0%"></stop>
            <stop stop-color="#DBDBDB" offset="100%"></stop>
        </radialGradient>
    </defs>
    <g id="TelePresence-SX20" stroke="none" stroke-width="1" fill="none" fill-rule="evenodd">
        <g id="img" transform="translate(0.000000, 48.000000)">
            <path d="M1,80 L179,80 L178.160777,84.1961161 C178.067292,84.6635403 177.656877,85 177.180196,85 L2.8198039,85 C2.34312288,85 1.93270807,84.6635403 1.83922323,84.1961161 L1,80 Z" id="Rectangle-5" fill="#363635"></path>
            <polygon id="Rectangle-7" fill="url(#linearGradient-1)" points="12.2077637 21 167.769775 21 166.769775 25 13.2077637 25"></polygon>
            <path d="M12.8142823,23 L167.185718,23 C167.659911,23 168.068904,23.3330361 168.164978,23.7973944 L179.50237,78.5947888 C179.726162,79.67645 179.030722,80.7347289 177.94906,80.9585208 C177.815754,80.9861016 177.679979,81 177.543849,81 L2.45615074,81 C1.35158124,81 0.456150744,80.1045695 0.456150744,79 C0.456150744,78.8638699 0.470049194,78.7280956 0.497629905,78.5947888 L11.8350218,23.7973944 C11.931096,23.3330361 12.3400894,23 12.8142823,23 Z M16.8345764,0 L163.165424,4.88498131e-15 C163.64871,4.79620308e-15 164.062841,0.345623866 164.149294,0.821114562 L167.785657,20.8211146 C167.884453,21.3644909 167.524049,21.8850742 166.980673,21.9838699 C166.921649,21.9946015 166.861779,22 166.801787,22 L13.1982127,22 C12.645928,22 12.1982127,21.5522847 12.1982127,21 C12.1982127,20.9400084 12.2036112,20.8801385 12.2143428,20.8211146 L15.8507064,0.821114562 C15.9371593,0.345623866 16.3512902,-5.7735559e-16 16.8345764,-6.66133815e-16 Z" id="Combined-Shape" fill="url(#radialGradient-2)"></path>
            <path d="M86.6322423,51.9622113 L86.6322423,49.9828052 L87.3491473,49.9828052 L87.3491473,51.9622113 L86.6322423,51.9622113 Z M93.146576,50.5514346 C93.1206638,50.5454364 92.8874538,50.443467 92.5419574,50.443467 C92.0755373,50.443467 91.7559532,50.6713986 91.7559532,50.9773068 C91.7559532,51.2712186 92.0668999,51.5051485 92.5419574,51.5051485 C92.8788164,51.5051485 93.1206638,51.4091772 93.146576,51.3971808 L93.146576,51.9250225 C93.0602019,51.9490153 92.8097171,51.9970009 92.490133,51.9970009 C91.6868539,51.9970009 90.9785864,51.6071179 90.9785864,50.9773068 C90.9785864,50.383485 91.6177547,49.9516145 92.490133,49.9516145 C92.8269919,49.9516145 93.0774768,50.0055983 93.146576,50.0235929 L93.146576,50.5514346 Z M85.6441228,50.5514346 C85.6182105,50.5454364 85.3850005,50.443467 85.0395041,50.443467 C84.5730841,50.443467 84.2535,50.6713986 84.2535,50.9773068 C84.2535,51.2712186 84.5644467,51.5051485 85.0395041,51.5051485 C85.3763631,51.5051485 85.6182105,51.4091772 85.6441228,51.3971808 L85.6441228,51.9250225 C85.5577487,51.9490153 85.3159012,51.9970009 84.9963171,51.9970009 C84.1844007,51.9970009 83.4761332,51.6071179 83.4761332,50.9773068 C83.4761332,50.383485 84.1153014,49.9516145 84.9963171,49.9516145 C85.333176,49.9516145 85.5836609,50.0055983 85.6441228,50.0235929 L85.6441228,50.5514346 Z M96.9193962,50.9737079 C96.9193962,51.5375387 96.2888653,51.9994002 95.4078496,51.9994002 C94.5354714,51.9994002 93.9049405,51.5375387 93.9049405,50.9737079 C93.9049405,50.409877 94.5354714,49.9540138 95.4078496,49.9540138 C96.2888653,49.9540138 96.9193962,50.409877 96.9193962,50.9737079 Z M95.4078496,50.4518644 C94.9846166,50.4518644 94.6650325,50.6917925 94.6650325,50.9737079 C94.6650325,51.2616215 94.9846166,51.4955513 95.4078496,51.4955513 C95.8397201,51.4955513 96.1506668,51.2616215 96.1506668,50.9737079 C96.1506668,50.6917925 95.8397201,50.4518644 95.4078496,50.4518644 Z M90.0811597,50.4344697 C90.0725222,50.4344697 89.7702129,50.3744877 89.5197281,50.3744877 C89.2260562,50.3744877 89.0705828,50.4404679 89.0705828,50.5364391 C89.0705828,50.6564031 89.286518,50.6983905 89.4074418,50.7223833 L89.5974648,50.7703689 C90.0725222,50.8723383 90.2798201,51.0942717 90.2798201,51.3341997 C90.2798201,51.8320504 89.6579266,52 89.1051325,52 C88.7164491,52 88.3623153,51.9460162 88.3191283,51.940018 L88.3191283,51.490153 C88.3882275,51.5021494 88.6905368,51.5621314 89.0014836,51.5621314 C89.3642547,51.5621314 89.5283655,51.490153 89.5283655,51.3761871 C89.5283655,51.2802159 89.3815295,51.2202339 89.200144,51.1842447 C89.1655943,51.1722483 89.0964951,51.1602519 89.053308,51.1482555 C88.6473498,51.0582825 88.3104909,50.8963311 88.3104909,50.5664301 C88.3104909,50.2005398 88.7164491,49.9486154 89.3815295,49.9486154 C89.7270259,49.9486154 90.0552474,50.0085974 90.0811597,50.0145956 L90.0811597,50.4344697 Z M82.7169049,47.860042 L82.7169049,48.3758872 C82.7169049,48.5138458 82.5441568,48.6278117 82.3541338,48.6278117 C82.1554734,48.6278117 82,48.5138458 82,48.3758872 L82,47.860042 C82,47.7220834 82.1554734,47.6141158 82.3541338,47.6141158 C82.5441568,47.6141158 82.7169049,47.7220834 82.7169049,47.860042 Z M84.6741418,47.1774468 L84.6741418,48.3770869 C84.6741418,48.5150455 84.510031,48.6290113 84.3113706,48.6290113 C84.1213476,48.6290113 83.9572368,48.5150455 83.9572368,48.3770869 L83.9572368,47.1774468 C83.9572368,47.0454864 84.1213476,46.9315205 84.3113706,46.9315205 C84.510031,46.9315205 84.6741418,47.0454864 84.6741418,47.1774468 Z M86.6348335,46.2459262 L86.6348335,48.8731381 C86.6348335,49.0050985 86.4707228,49.1190643 86.2720624,49.1190643 C86.0820394,49.1190643 85.9179286,49.0050985 85.9179286,48.8731381 L85.9179286,46.2459262 C85.9179286,46.1079676 86.0820394,46 86.2720624,46 C86.4707228,46 86.6348335,46.1079676 86.6348335,46.2459262 Z M88.5920704,47.1774468 L88.5920704,48.3770869 C88.5920704,48.5150455 88.4279596,48.6290113 88.2379366,48.6290113 C88.0392762,48.6290113 87.8751655,48.5150455 87.8751655,48.3770869 L87.8751655,47.1774468 C87.8751655,47.0454864 88.0392762,46.9315205 88.2379366,46.9315205 C88.4279596,46.9315205 88.5920704,47.0454864 88.5920704,47.1774468 Z M90.5527622,47.860042 L90.5527622,48.3758872 C90.5527622,48.5138458 90.3886514,48.6278117 90.189991,48.6278117 C89.999968,48.6278117 89.8358572,48.5138458 89.8358572,48.3758872 L89.8358572,47.860042 C89.8358572,47.7220834 89.999968,47.6141158 90.189991,47.6141158 C90.3886514,47.6141158 90.5527622,47.7220834 90.5527622,47.860042 Z M92.509999,47.1774468 L92.509999,48.3770869 C92.509999,48.5150455 92.3458882,48.6290113 92.1472278,48.6290113 C91.9572048,48.6290113 91.7930941,48.5150455 91.7930941,48.3770869 L91.7930941,47.1774468 C91.7930941,47.0454864 91.9572048,46.9315205 92.1472278,46.9315205 C92.3458882,46.9315205 92.509999,47.0454864 92.509999,47.1774468 Z M94.4715545,46.2459262 L94.4715545,48.8731381 C94.4715545,49.0050985 94.3160812,49.1190643 94.1174208,49.1190643 C93.9187604,49.1190643 93.7546496,49.0050985 93.7546496,48.8731381 L93.7546496,46.2459262 C93.7546496,46.1079676 93.9187604,46 94.1174208,46 C94.3160812,46 94.4715545,46.1079676 94.4715545,46.2459262 Z M96.436565,47.1774468 L96.436565,48.3770869 C96.436565,48.5150455 96.2724543,48.6290113 96.0737939,48.6290113 C95.8751335,48.6290113 95.7196601,48.5150455 95.7196601,48.3770869 L95.7196601,47.1774468 C95.7196601,47.0454864 95.8751335,46.9315205 96.0737939,46.9315205 C96.2724543,46.9315205 96.436565,47.0454864 96.436565,47.1774468 Z M98.3938019,47.860042 L98.3938019,48.3758872 C98.3938019,48.5138458 98.2296911,48.6278117 98.0396681,48.6278117 C97.8410077,48.6278117 97.6768969,48.5138458 97.6768969,48.3758872 L97.6768969,47.860042 C97.6768969,47.7220834 97.8410077,47.6141158 98.0396681,47.6141158 C98.2296911,47.6141158 98.3938019,47.7220834 98.3938019,47.860042 Z" id="Combined-Shape" fill="#908E8E"></path>
            <ellipse id="Oval-3" fill="" cx="161.5" cy="70" rx="6.5" ry="4"></ellipse>
            <ellipse id="Oval-3" stroke="#C2C3C5" stroke-width="0.75" cx="161.5" cy="70" rx="4.625" ry="2.625"></ellipse>
            <ellipse id="Oval-3" stroke="#C2C3C5" stroke-width="0.75" cx="161.583333" cy="70.25" rx="1.70833333" ry="1"></ellipse>
        </g>
    </g>
</svg>