<?xml version="1.0" encoding="UTF-8"?>
<svg width="180px" height="180px" viewBox="0 0 180 180" version="1.1" xmlns="http://www.w3.org/2000/svg" xmlns:xlink="http://www.w3.org/1999/xlink">
    <!-- Generator: Sketch 49.1 (51147) - http://www.bohemiancoding.com/sketch -->
    <title>TelePresence SX80</title>
    <desc>Created with Sketch.</desc>
    <defs>
        <radialGradient cx="50%" cy="50%" fx="50%" fy="50%" r="706.232244%" gradientTransform="translate(0.500000,0.500000),scale(0.061111,1.000000),rotate(180.000000),scale(1.000000,0.294102),translate(-0.500000,-0.500000)" id="radialGradient-1">
            <stop stop-color="#5B5B5C" offset="0%"></stop>
            <stop stop-color="#505050" offset="100%"></stop>
        </radialGradient>
        <linearGradient x1="50%" y1="0%" x2="50%" y2="100%" id="linearGradient-2">
            <stop stop-color="#D8D8DB" offset="0%"></stop>
            <stop stop-color="#D2D3D7" offset="100%"></stop>
        </linearGradient>
        <path d="M12.5351838,20 L165.464816,20 C165.799169,20 166.111401,20.1671011 166.296867,20.4452998 L168.963533,24.4452998 C169.269886,24.9048285 169.145712,25.5256978 168.686183,25.8320503 C168.521916,25.941562 168.328908,26 168.131483,26 L9.86851709,26 C9.31623234,26 8.86851709,25.5522847 8.86851709,25 C8.86851709,24.802575 8.92695512,24.6095673 9.0364668,24.4452998 L11.7031335,20.4452998 C11.8885992,20.1671011 12.2008306,20 12.5351838,20 Z" id="path-3"></path>
        <filter x="-0.2%" y="-12.5%" width="100.3%" height="116.7%" filterUnits="objectBoundingBox" id="filter-4">
            <feOffset dx="0" dy="-0.5" in="SourceAlpha" result="shadowOffsetOuter1"></feOffset>
            <feColorMatrix values="0 0 0 0 1   0 0 0 0 1   0 0 0 0 1  0 0 0 0.5 0" type="matrix" in="shadowOffsetOuter1"></feColorMatrix>
        </filter>
        <linearGradient x1="50%" y1="100%" x2="50%" y2="0%" id="linearGradient-5">
            <stop stop-color="#EAEAEC" offset="0%"></stop>
            <stop stop-color="#929292" offset="100%"></stop>
        </linearGradient>
    </defs>
    <g id="TelePresence-SX80" stroke="none" stroke-width="1" fill="none" fill-rule="evenodd">
        <g id="Group" transform="translate(0.000000, 75.000000)">
            <path d="M11.4142136,0 L168.585786,-4.4408921e-16 C168.851003,-4.92808689e-16 169.105357,0.10535684 169.292893,0.292893219 L180,11 L0,11 L10.7071068,0.292893219 C10.8946432,0.10535684 11.1489971,1.82507632e-15 11.4142136,1.77635684e-15 Z" id="Rectangle-8" fill="url(#radialGradient-1)"></path>
            <path d="M88.5018386,5.98740378 L88.5018386,5.32760172 L88.8890334,5.32760172 L88.8890334,5.98740378 L88.5018386,5.98740378 Z M92.0201802,5.51714486 C92.0061852,5.51514546 91.8802303,5.48115565 91.6936304,5.48115565 C91.4417205,5.48115565 91.2691155,5.55713286 91.2691155,5.65910227 C91.2691155,5.75707288 91.4370555,5.83504949 91.6936304,5.83504949 C91.8755653,5.83504949 92.0061852,5.80305908 92.0201802,5.79906028 L92.0201802,5.9750075 C91.9735303,5.9830051 91.8382453,5.9990003 91.6656404,5.9990003 C91.2317955,5.9990003 90.8492657,5.86903929 90.8492657,5.65910227 C90.8492657,5.46116165 91.1944755,5.31720484 91.6656404,5.31720484 C91.8475753,5.31720484 91.9828602,5.33519944 92.0201802,5.34119764 L92.0201802,5.51714486 Z M87.9681628,5.51714486 C87.9541678,5.51514546 87.8282128,5.48115565 87.6416129,5.48115565 C87.389703,5.48115565 87.217098,5.55713286 87.217098,5.65910227 C87.217098,5.75707288 87.385038,5.83504949 87.6416129,5.83504949 C87.8235478,5.83504949 87.9541678,5.80305908 87.9681628,5.79906028 L87.9681628,5.9750075 C87.9215128,5.9830051 87.7908928,5.9990003 87.6182879,5.9990003 C87.1797781,5.9990003 86.7972482,5.86903929 86.7972482,5.65910227 C86.7972482,5.46116165 87.1424581,5.31720484 87.6182879,5.31720484 C87.8002228,5.31720484 87.9355078,5.33519944 87.9681628,5.34119764 L87.9681628,5.51714486 Z M93.2414768,5.48395481 C93.0128919,5.48395481 92.8402869,5.56393082 92.8402869,5.65790263 C92.8402869,5.75387384 93.0128919,5.83185044 93.2414768,5.83185044 C93.4747267,5.83185044 93.6426666,5.75387384 93.6426666,5.65790263 C93.6426666,5.56393082 93.4747267,5.48395481 93.2414768,5.48395481 Z M94.0578515,5.65790263 C94.0578515,5.84584625 93.7173066,5.99980006 93.2414768,5.99980006 C92.770312,5.99980006 92.4297671,5.84584625 92.4297671,5.65790263 C92.4297671,5.46995901 92.770312,5.3180046 93.2414768,5.3180046 C93.7173066,5.3180046 94.0578515,5.46995901 94.0578515,5.65790263 Z M90.3645724,5.47815655 C90.3599074,5.47815655 90.1966324,5.45816255 90.0613475,5.45816255 C89.9027375,5.45816255 89.8187676,5.48015595 89.8187676,5.51214636 C89.8187676,5.55213436 89.9353925,5.56613016 90.0007025,5.57412776 L90.1033325,5.59012296 C90.3599074,5.62411277 90.4718673,5.69809057 90.4718673,5.77806658 C90.4718673,5.94401679 90.1359874,6 89.8374276,6 C89.6275026,6 89.4362377,5.9820054 89.4129127,5.980006 L89.4129127,5.83005098 C89.4502327,5.83404979 89.6135076,5.85404379 89.7814476,5.85404379 C89.9773775,5.85404379 90.0660125,5.83005098 90.0660125,5.79206238 C90.0660125,5.76007198 89.9867075,5.74007798 89.8887425,5.72808158 C89.8700825,5.72408278 89.8327626,5.72008397 89.8094376,5.71608517 C89.5901826,5.68609417 89.4082477,5.63211037 89.4082477,5.52214336 C89.4082477,5.40017995 89.6275026,5.31620514 89.9867075,5.31620514 C90.1733074,5.31620514 90.3505774,5.33619914 90.3645724,5.33819854 L90.3645724,5.47815655 Z M86.3871949,4.620014 L86.3871949,4.79196241 C86.3871949,4.83794862 86.2938949,4.87593722 86.1912649,4.87593722 C86.08397,4.87593722 86,4.83794862 86,4.79196241 L86,4.620014 C86,4.57402779 86.08397,4.53803859 86.1912649,4.53803859 C86.2938949,4.53803859 86.3871949,4.57402779 86.3871949,4.620014 Z M87.4442835,4.39248226 L87.4442835,4.79236229 C87.4442835,4.8383485 87.3556485,4.8763371 87.2483535,4.8763371 C87.1457236,4.8763371 87.0570886,4.8383485 87.0570886,4.79236229 L87.0570886,4.39248226 C87.0570886,4.34849545 87.1457236,4.31050685 87.2483535,4.31050685 C87.3556485,4.31050685 87.4442835,4.34849545 87.4442835,4.39248226 Z M88.5032381,4.08197541 L88.5032381,4.95771269 C88.5032381,5.00169949 88.4146031,5.03968809 88.3073081,5.03968809 C88.2046782,5.03968809 88.1160432,5.00169949 88.1160432,4.95771269 L88.1160432,4.08197541 C88.1160432,4.0359892 88.2046782,4 88.3073081,4 C88.4146031,4 88.5032381,4.0359892 88.5032381,4.08197541 Z M89.5603267,4.39248226 L89.5603267,4.79236229 C89.5603267,4.8383485 89.4716917,4.8763371 89.3690617,4.8763371 C89.2617668,4.8763371 89.1731318,4.8383485 89.1731318,4.79236229 L89.1731318,4.39248226 C89.1731318,4.34849545 89.2617668,4.31050685 89.3690617,4.31050685 C89.4716917,4.31050685 89.5603267,4.34849545 89.5603267,4.39248226 Z M90.6192813,4.620014 L90.6192813,4.79196241 C90.6192813,4.83794862 90.5306463,4.87593722 90.4233513,4.87593722 C90.3207214,4.87593722 90.2320864,4.83794862 90.2320864,4.79196241 L90.2320864,4.620014 C90.2320864,4.57402779 90.3207214,4.53803859 90.4233513,4.53803859 C90.5306463,4.53803859 90.6192813,4.57402779 90.6192813,4.620014 Z M91.6763699,4.39248226 L91.6763699,4.79236229 C91.6763699,4.8383485 91.5877349,4.8763371 91.4804399,4.8763371 C91.37781,4.8763371 91.289175,4.8383485 91.289175,4.79236229 L91.289175,4.39248226 C91.289175,4.34849545 91.37781,4.31050685 91.4804399,4.31050685 C91.5877349,4.31050685 91.6763699,4.34849545 91.6763699,4.39248226 Z M92.735791,4.08197541 L92.735791,4.95771269 C92.735791,5.00169949 92.651821,5.03968809 92.544526,5.03968809 C92.4372311,5.03968809 92.3485961,5.00169949 92.3485961,4.95771269 L92.3485961,4.08197541 C92.3485961,4.0359892 92.4372311,4 92.544526,4 C92.651821,4 92.735791,4.0359892 92.735791,4.08197541 Z M93.7970781,4.39248226 L93.7970781,4.79236229 C93.7970781,4.8383485 93.7084431,4.8763371 93.6011481,4.8763371 C93.4938532,4.8763371 93.4098832,4.8383485 93.4098832,4.79236229 L93.4098832,4.39248226 C93.4098832,4.34849545 93.4938532,4.31050685 93.6011481,4.31050685 C93.7084431,4.31050685 93.7970781,4.34849545 93.7970781,4.39248226 Z M94.8541667,4.620014 L94.8541667,4.79196241 C94.8541667,4.83794862 94.7655317,4.87593722 94.6629017,4.87593722 C94.5556068,4.87593722 94.4669718,4.83794862 94.4669718,4.79196241 L94.4669718,4.620014 C94.4669718,4.57402779 94.5556068,4.53803859 94.6629017,4.53803859 C94.7655317,4.53803859 94.8541667,4.57402779 94.8541667,4.620014 Z" id="Combined-Shape" fill="#3F3F3F"></path>
            <rect id="Rectangle-4" fill="url(#linearGradient-2)" x="0" y="10" width="180" height="20" rx="1"></rect>
            <g id="Rectangle-9">
                <use fill="black" fill-opacity="1" filter="url(#filter-4)" xlink:href="#path-3"></use>
                <use fill="#0F100F" fill-rule="evenodd" xlink:href="#path-3"></use>
            </g>
            <path d="M13.4142136,22 L164.585786,22 C164.851003,22 165.105357,22.1053568 165.292893,22.2928932 L169,26 L9,26 L12.7071068,22.2928932 C12.8946432,22.1053568 13.1489971,22 13.4142136,22 Z" id="Rectangle" fill="url(#linearGradient-5)"></path>
            <path d="M88.5430453,17.9685094 L88.5430453,16.3190043 L88.9366175,16.3190043 L88.9366175,17.9685094 L88.5430453,17.9685094 Z M92.1193361,16.7928621 C92.1051106,16.7878636 91.9770811,16.7028891 91.7874078,16.7028891 C91.5313488,16.7028891 91.3559009,16.8928322 91.3559009,17.1477557 C91.3559009,17.3926822 91.526607,17.5876237 91.7874078,17.5876237 C91.9723393,17.5876237 92.1051106,17.5076477 92.1193361,17.4976507 L92.1193361,17.9375187 C92.0719178,17.9575127 91.9344046,17.9975007 91.7589568,17.9975007 C91.3179663,17.9975007 90.9291359,17.6725982 90.9291359,17.1477557 C90.9291359,16.6529041 91.2800316,16.2930121 91.7589568,16.2930121 C91.9438883,16.2930121 92.0814015,16.3379986 92.1193361,16.3529941 L92.1193361,16.7928621 Z M88.0005796,16.7928621 C87.9863541,16.7878636 87.8583246,16.7028891 87.6686512,16.7028891 C87.4125922,16.7028891 87.2371444,16.8928322 87.2371444,17.1477557 C87.2371444,17.3926822 87.4078504,17.5876237 87.6686512,17.5876237 C87.8535827,17.5876237 87.9863541,17.5076477 88.0005796,17.4976507 L88.0005796,17.9375187 C87.9531612,17.9575127 87.8203899,17.9975007 87.644942,17.9975007 C87.1992097,17.9975007 86.8103793,17.6725982 86.8103793,17.1477557 C86.8103793,16.6529041 87.161275,16.2930121 87.644942,16.2930121 C87.8298736,16.2930121 87.9673867,16.3379986 88.0005796,16.3529941 L88.0005796,16.7928621 Z M93.3607482,16.709887 C93.1283983,16.709887 92.9529505,16.9098271 92.9529505,17.1447566 C92.9529505,17.3846846 93.1283983,17.5796261 93.3607482,17.5796261 C93.5978398,17.5796261 93.7685458,17.3846846 93.7685458,17.1447566 C93.7685458,16.9098271 93.5978398,16.709887 93.3607482,16.709887 Z M94.190569,17.1447566 C94.190569,17.6146156 93.8444152,17.9995001 93.3607482,17.9995001 C92.881823,17.9995001 92.5356691,17.6146156 92.5356691,17.1447566 C92.5356691,16.6748975 92.881823,16.2950115 93.3607482,16.2950115 C93.8444152,16.2950115 94.190569,16.6748975 94.190569,17.1447566 Z M90.4364594,16.6953914 C90.4317176,16.6953914 90.2657534,16.6454064 90.1282403,16.6454064 C89.9670179,16.6454064 89.8816649,16.7003899 89.8816649,16.7803659 C89.8816649,16.8803359 90.0002107,16.9153254 90.0665964,16.9353194 L90.1709168,16.9753074 C90.4317176,17.0602819 90.5455216,17.2452264 90.5455216,17.4451665 C90.5455216,17.860042 90.2041096,18 89.9006322,18 C89.6872497,18 89.4928346,17.9550135 89.4691254,17.950015 L89.4691254,17.5751275 C89.5070601,17.5851245 89.6730242,17.6351095 89.8437302,17.6351095 C90.0428872,17.6351095 90.1329821,17.5751275 90.1329821,17.480156 C90.1329821,17.4001799 90.0523709,17.3501949 89.9527924,17.3202039 C89.9338251,17.3102069 89.8958904,17.3002099 89.8721812,17.2902129 C89.6493151,17.2152354 89.4643836,17.0802759 89.4643836,16.8053584 C89.4643836,16.5004499 89.6872497,16.2905128 90.0523709,16.2905128 C90.2420443,16.2905128 90.4222339,16.3404979 90.4364594,16.3454964 L90.4364594,16.6953914 Z M86.3935722,14.550035 L86.3935722,14.979906 C86.3935722,15.0948715 86.2987355,15.189843 86.1944152,15.189843 C86.085353,15.189843 86,15.0948715 86,14.979906 L86,14.550035 C86,14.4350695 86.085353,14.3450965 86.1944152,14.3450965 C86.2987355,14.3450965 86.3935722,14.4350695 86.3935722,14.550035 Z M87.4680717,13.9812056 L87.4680717,14.9809057 C87.4680717,15.0958712 87.3779768,15.1908427 87.2689146,15.1908427 C87.1645943,15.1908427 87.0744995,15.0958712 87.0744995,14.9809057 L87.0744995,13.9812056 C87.0744995,13.8712386 87.1645943,13.7762671 87.2689146,13.7762671 C87.3779768,13.7762671 87.4680717,13.8712386 87.4680717,13.9812056 Z M88.5444679,13.2049385 L88.5444679,15.3942817 C88.5444679,15.5042487 88.454373,15.5992202 88.3453109,15.5992202 C88.2409905,15.5992202 88.1508957,15.5042487 88.1508957,15.3942817 L88.1508957,13.2049385 C88.1508957,13.089973 88.2409905,13 88.3453109,13 C88.454373,13 88.5444679,13.089973 88.5444679,13.2049385 Z M89.6189673,13.9812056 L89.6189673,14.9809057 C89.6189673,15.0958712 89.5288725,15.1908427 89.4245522,15.1908427 C89.31549,15.1908427 89.2253952,15.0958712 89.2253952,14.9809057 L89.2253952,13.9812056 C89.2253952,13.8712386 89.31549,13.7762671 89.4245522,13.7762671 C89.5288725,13.7762671 89.6189673,13.8712386 89.6189673,13.9812056 Z M90.6953635,14.550035 L90.6953635,14.979906 C90.6953635,15.0948715 90.6052687,15.189843 90.4962065,15.189843 C90.3918862,15.189843 90.3017914,15.0948715 90.3017914,14.979906 L90.3017914,14.550035 C90.3017914,14.4350695 90.3918862,14.3450965 90.4962065,14.3450965 C90.6052687,14.3450965 90.6953635,14.4350695 90.6953635,14.550035 Z M91.769863,13.9812056 L91.769863,14.9809057 C91.769863,15.0958712 91.6797682,15.1908427 91.570706,15.1908427 C91.4663857,15.1908427 91.3762908,15.0958712 91.3762908,14.9809057 L91.3762908,13.9812056 C91.3762908,13.8712386 91.4663857,13.7762671 91.570706,13.7762671 C91.6797682,13.7762671 91.769863,13.8712386 91.769863,13.9812056 Z M92.8467334,13.2049385 L92.8467334,15.3942817 C92.8467334,15.5042487 92.7613804,15.5992202 92.6523182,15.5992202 C92.5432561,15.5992202 92.4531612,15.5042487 92.4531612,15.3942817 L92.4531612,13.2049385 C92.4531612,13.089973 92.5432561,13 92.6523182,13 C92.7613804,13 92.8467334,13.089973 92.8467334,13.2049385 Z M93.9255005,13.9812056 L93.9255005,14.9809057 C93.9255005,15.0958712 93.8354057,15.1908427 93.7263435,15.1908427 C93.6172813,15.1908427 93.5319283,15.0958712 93.5319283,14.9809057 L93.5319283,13.9812056 C93.5319283,13.8712386 93.6172813,13.7762671 93.7263435,13.7762671 C93.8354057,13.7762671 93.9255005,13.8712386 93.9255005,13.9812056 Z M95,14.550035 L95,14.979906 C95,15.0948715 94.9099052,15.189843 94.8055848,15.189843 C94.6965227,15.189843 94.6064278,15.0948715 94.6064278,14.979906 L94.6064278,14.550035 C94.6064278,14.4350695 94.6965227,14.3450965 94.8055848,14.3450965 C94.9099052,14.3450965 95,14.4350695 95,14.550035 Z" id="Combined-Shape" fill="#FFFFFF"></path>
            <circle id="Oval-4" fill="#B7B6B9" cx="7" cy="15" r="1"></circle>
        </g>
    </g>
</svg>