<?xml version="1.0" encoding="UTF-8"?>
<svg width="24px" height="24px" viewBox="0 0 24 24" version="1.1" xmlns="http://www.w3.org/2000/svg" xmlns:xlink="http://www.w3.org/1999/xlink">
    <!-- Generator: Sketch 49.3 (51167) - http://www.bohemiancoding.com/sketch -->
    <title>alerts-and-notifications/help-circle_24 copy</title>
    <desc>Created with Sketch.</desc>
    <defs></defs>
    <g id="&gt;-Small-fixes" stroke="none" stroke-width="1" fill="none" fill-rule="evenodd" opacity="0.600000024">
        <g id="alerts-and-notifications/help-circle_24" fill="#000000">
            <g id="help-circle_24">
                <g id="icon">
                    <path d="M12,0 C18.617,0 24,5.383 24,12 C24,18.617 18.617,24 12,24 C5.383,24 0,18.617 0,12 C0,5.383 5.383,0 12,0 Z M12,23 C18.065,23 23,18.065 23,12 C23,5.935 18.065,1 12,1 C5.935,1 1,5.935 1,12 C1,18.065 5.935,23 12,23 Z M12.1221,5.0015 C14.2581,5.0635 16.0631,6.9265 16.0631,9.0715 C16.0631,10.8935 15.0581,11.7335 14.2511,12.4085 C14.1071,12.5285 13.9671,12.6455 13.8361,12.7655 L13.2341,13.3205 C12.7851,13.7325 12.5281,14.3195 12.5281,14.9285 C12.5281,15.2055 12.3041,15.4285 12.0281,15.4285 C11.7511,15.4285 11.5281,15.2055 11.5281,14.9285 C11.5281,14.0405 11.9031,13.1865 12.5571,12.5845 L13.1591,12.0305 C13.3011,11.8995 13.4531,11.7715 13.6091,11.6415 C14.3571,11.0165 15.0631,10.4255 15.0631,9.0715 C15.0631,7.4535 13.7031,6.0475 12.0941,6.0015 C11.2781,5.9745 10.5141,6.2775 9.9301,6.8455 C9.3121,7.4455 8.9721,8.2665 8.9721,9.1545 C8.9721,9.4315 8.7481,9.6545 8.4721,9.6545 C8.1961,9.6545 7.9721,9.4315 7.9721,9.1545 C7.9721,7.9935 8.4201,6.9185 9.2331,6.1285 C10.0131,5.3705 11.0461,4.9725 12.1221,5.0015 Z M11.6499,17.1499 C11.8399,16.9599 12.1699,16.9599 12.3599,17.1499 C12.4499,17.2399 12.5099,17.3699 12.5099,17.4999 C12.5099,17.6299 12.4499,17.7599 12.3599,17.8499 C12.2699,17.9499 12.1399,17.9999 12.0099,17.9999 C11.9399,17.9999 11.8799,17.9899 11.8199,17.9599 C11.7599,17.9399 11.6999,17.8999 11.6499,17.8499 C11.5599,17.7599 11.5099,17.6299 11.5099,17.4999 C11.5099,17.3699 11.5599,17.2399 11.6499,17.1499 Z" id="fill"></path>
                </g>
            </g>
        </g>
    </g>
</svg>