<?xml version="1.0" encoding="UTF-8" standalone="no"?>
<svg width="48px" height="32px" viewBox="0 0 48 32" version="1.1" xmlns="http://www.w3.org/2000/svg" xmlns:xlink="http://www.w3.org/1999/xlink">
    <!-- Generator: Sketch Beta 39 (31504) - http://www.bohemiancoding.com/sketch -->
    <title>Cloud</title>
    <desc>Created with Sketch Beta.</desc>
    <defs>
        <path d="M36.5,17 C36.074,17 35.655,17.027 35.242,17.072 C33.407,11.794 28.402,8 22.5,8 C15.535,8 9.807,13.274 9.081,20.046 C3.989,20.511 0,24.788 0,30 C0,35.523 4.478,40 10,40 L37,40 L37,39.975 C43.117,39.711 48,34.683 48,28.5 C48,22.148 42.852,17 36.5,17 L36.5,17 Z" id="path-1"></path>
        <mask id="mask-2" maskContentUnits="userSpaceOnUse" maskUnits="objectBoundingBox" x="0" y="0" width="48" height="32" fill="white">
            <use xlink:href="#path-1"></use>
        </mask>
    </defs>
    <g id="Symbols" stroke="none" stroke-width="1" fill="none" fill-rule="evenodd">
        <g id="Info-Graphic---Context" transform="translate(-8.000000, -8.000000)">
            <g id="Info-Graphic" transform="translate(4.000000, 0.000000)">
                <g id="Cloud" transform="translate(4.000000, 0.000000)">
                    <rect id="Rectangle-126" x="0" y="0" width="48" height="48"></rect>
                    <use id="Cloud-Copy" stroke="#AEAEAF" mask="url(#mask-2)" stroke-width="2" xlink:href="#path-1"></use>
                </g>
            </g>
        </g>
    </g>
</svg>